G75*
%MOIN*%
%OFA0B0*%
%FSLAX25Y25*%
%IPPOS*%
%LPD*%
%AMOC8*
5,1,8,0,0,1.08239X$1,22.5*
%
%ADD10C,0.00000*%
%ADD11C,0.00700*%
%ADD12C,0.01000*%
%ADD13C,0.00900*%
%ADD14C,0.00600*%
%ADD15C,0.00500*%
%ADD16C,0.00800*%
%ADD17C,0.00400*%
%ADD18C,0.00100*%
%ADD19R,0.02300X0.02300*%
%ADD20C,0.00300*%
%ADD21C,0.05000*%
%ADD22C,0.03200*%
D10*
X0001800Y0001800D02*
X0001800Y0273454D01*
X0395501Y0273454D01*
X0395501Y0001800D01*
X0001800Y0001800D01*
X0013001Y0019300D02*
X0013003Y0019458D01*
X0013009Y0019616D01*
X0013019Y0019774D01*
X0013033Y0019932D01*
X0013051Y0020089D01*
X0013072Y0020246D01*
X0013098Y0020402D01*
X0013128Y0020558D01*
X0013161Y0020713D01*
X0013199Y0020866D01*
X0013240Y0021019D01*
X0013285Y0021171D01*
X0013334Y0021322D01*
X0013387Y0021471D01*
X0013443Y0021619D01*
X0013503Y0021765D01*
X0013567Y0021910D01*
X0013635Y0022053D01*
X0013706Y0022195D01*
X0013780Y0022335D01*
X0013858Y0022472D01*
X0013940Y0022608D01*
X0014024Y0022742D01*
X0014113Y0022873D01*
X0014204Y0023002D01*
X0014299Y0023129D01*
X0014396Y0023254D01*
X0014497Y0023376D01*
X0014601Y0023495D01*
X0014708Y0023612D01*
X0014818Y0023726D01*
X0014931Y0023837D01*
X0015046Y0023946D01*
X0015164Y0024051D01*
X0015285Y0024153D01*
X0015408Y0024253D01*
X0015534Y0024349D01*
X0015662Y0024442D01*
X0015792Y0024532D01*
X0015925Y0024618D01*
X0016060Y0024702D01*
X0016196Y0024781D01*
X0016335Y0024858D01*
X0016476Y0024930D01*
X0016618Y0025000D01*
X0016762Y0025065D01*
X0016908Y0025127D01*
X0017055Y0025185D01*
X0017204Y0025240D01*
X0017354Y0025291D01*
X0017505Y0025338D01*
X0017657Y0025381D01*
X0017810Y0025420D01*
X0017965Y0025456D01*
X0018120Y0025487D01*
X0018276Y0025515D01*
X0018432Y0025539D01*
X0018589Y0025559D01*
X0018747Y0025575D01*
X0018904Y0025587D01*
X0019063Y0025595D01*
X0019221Y0025599D01*
X0019379Y0025599D01*
X0019537Y0025595D01*
X0019696Y0025587D01*
X0019853Y0025575D01*
X0020011Y0025559D01*
X0020168Y0025539D01*
X0020324Y0025515D01*
X0020480Y0025487D01*
X0020635Y0025456D01*
X0020790Y0025420D01*
X0020943Y0025381D01*
X0021095Y0025338D01*
X0021246Y0025291D01*
X0021396Y0025240D01*
X0021545Y0025185D01*
X0021692Y0025127D01*
X0021838Y0025065D01*
X0021982Y0025000D01*
X0022124Y0024930D01*
X0022265Y0024858D01*
X0022404Y0024781D01*
X0022540Y0024702D01*
X0022675Y0024618D01*
X0022808Y0024532D01*
X0022938Y0024442D01*
X0023066Y0024349D01*
X0023192Y0024253D01*
X0023315Y0024153D01*
X0023436Y0024051D01*
X0023554Y0023946D01*
X0023669Y0023837D01*
X0023782Y0023726D01*
X0023892Y0023612D01*
X0023999Y0023495D01*
X0024103Y0023376D01*
X0024204Y0023254D01*
X0024301Y0023129D01*
X0024396Y0023002D01*
X0024487Y0022873D01*
X0024576Y0022742D01*
X0024660Y0022608D01*
X0024742Y0022472D01*
X0024820Y0022335D01*
X0024894Y0022195D01*
X0024965Y0022053D01*
X0025033Y0021910D01*
X0025097Y0021765D01*
X0025157Y0021619D01*
X0025213Y0021471D01*
X0025266Y0021322D01*
X0025315Y0021171D01*
X0025360Y0021019D01*
X0025401Y0020866D01*
X0025439Y0020713D01*
X0025472Y0020558D01*
X0025502Y0020402D01*
X0025528Y0020246D01*
X0025549Y0020089D01*
X0025567Y0019932D01*
X0025581Y0019774D01*
X0025591Y0019616D01*
X0025597Y0019458D01*
X0025599Y0019300D01*
X0025597Y0019142D01*
X0025591Y0018984D01*
X0025581Y0018826D01*
X0025567Y0018668D01*
X0025549Y0018511D01*
X0025528Y0018354D01*
X0025502Y0018198D01*
X0025472Y0018042D01*
X0025439Y0017887D01*
X0025401Y0017734D01*
X0025360Y0017581D01*
X0025315Y0017429D01*
X0025266Y0017278D01*
X0025213Y0017129D01*
X0025157Y0016981D01*
X0025097Y0016835D01*
X0025033Y0016690D01*
X0024965Y0016547D01*
X0024894Y0016405D01*
X0024820Y0016265D01*
X0024742Y0016128D01*
X0024660Y0015992D01*
X0024576Y0015858D01*
X0024487Y0015727D01*
X0024396Y0015598D01*
X0024301Y0015471D01*
X0024204Y0015346D01*
X0024103Y0015224D01*
X0023999Y0015105D01*
X0023892Y0014988D01*
X0023782Y0014874D01*
X0023669Y0014763D01*
X0023554Y0014654D01*
X0023436Y0014549D01*
X0023315Y0014447D01*
X0023192Y0014347D01*
X0023066Y0014251D01*
X0022938Y0014158D01*
X0022808Y0014068D01*
X0022675Y0013982D01*
X0022540Y0013898D01*
X0022404Y0013819D01*
X0022265Y0013742D01*
X0022124Y0013670D01*
X0021982Y0013600D01*
X0021838Y0013535D01*
X0021692Y0013473D01*
X0021545Y0013415D01*
X0021396Y0013360D01*
X0021246Y0013309D01*
X0021095Y0013262D01*
X0020943Y0013219D01*
X0020790Y0013180D01*
X0020635Y0013144D01*
X0020480Y0013113D01*
X0020324Y0013085D01*
X0020168Y0013061D01*
X0020011Y0013041D01*
X0019853Y0013025D01*
X0019696Y0013013D01*
X0019537Y0013005D01*
X0019379Y0013001D01*
X0019221Y0013001D01*
X0019063Y0013005D01*
X0018904Y0013013D01*
X0018747Y0013025D01*
X0018589Y0013041D01*
X0018432Y0013061D01*
X0018276Y0013085D01*
X0018120Y0013113D01*
X0017965Y0013144D01*
X0017810Y0013180D01*
X0017657Y0013219D01*
X0017505Y0013262D01*
X0017354Y0013309D01*
X0017204Y0013360D01*
X0017055Y0013415D01*
X0016908Y0013473D01*
X0016762Y0013535D01*
X0016618Y0013600D01*
X0016476Y0013670D01*
X0016335Y0013742D01*
X0016196Y0013819D01*
X0016060Y0013898D01*
X0015925Y0013982D01*
X0015792Y0014068D01*
X0015662Y0014158D01*
X0015534Y0014251D01*
X0015408Y0014347D01*
X0015285Y0014447D01*
X0015164Y0014549D01*
X0015046Y0014654D01*
X0014931Y0014763D01*
X0014818Y0014874D01*
X0014708Y0014988D01*
X0014601Y0015105D01*
X0014497Y0015224D01*
X0014396Y0015346D01*
X0014299Y0015471D01*
X0014204Y0015598D01*
X0014113Y0015727D01*
X0014024Y0015858D01*
X0013940Y0015992D01*
X0013858Y0016128D01*
X0013780Y0016265D01*
X0013706Y0016405D01*
X0013635Y0016547D01*
X0013567Y0016690D01*
X0013503Y0016835D01*
X0013443Y0016981D01*
X0013387Y0017129D01*
X0013334Y0017278D01*
X0013285Y0017429D01*
X0013240Y0017581D01*
X0013199Y0017734D01*
X0013161Y0017887D01*
X0013128Y0018042D01*
X0013098Y0018198D01*
X0013072Y0018354D01*
X0013051Y0018511D01*
X0013033Y0018668D01*
X0013019Y0018826D01*
X0013009Y0018984D01*
X0013003Y0019142D01*
X0013001Y0019300D01*
X0010501Y0254300D02*
X0010503Y0254458D01*
X0010509Y0254616D01*
X0010519Y0254774D01*
X0010533Y0254932D01*
X0010551Y0255089D01*
X0010572Y0255246D01*
X0010598Y0255402D01*
X0010628Y0255558D01*
X0010661Y0255713D01*
X0010699Y0255866D01*
X0010740Y0256019D01*
X0010785Y0256171D01*
X0010834Y0256322D01*
X0010887Y0256471D01*
X0010943Y0256619D01*
X0011003Y0256765D01*
X0011067Y0256910D01*
X0011135Y0257053D01*
X0011206Y0257195D01*
X0011280Y0257335D01*
X0011358Y0257472D01*
X0011440Y0257608D01*
X0011524Y0257742D01*
X0011613Y0257873D01*
X0011704Y0258002D01*
X0011799Y0258129D01*
X0011896Y0258254D01*
X0011997Y0258376D01*
X0012101Y0258495D01*
X0012208Y0258612D01*
X0012318Y0258726D01*
X0012431Y0258837D01*
X0012546Y0258946D01*
X0012664Y0259051D01*
X0012785Y0259153D01*
X0012908Y0259253D01*
X0013034Y0259349D01*
X0013162Y0259442D01*
X0013292Y0259532D01*
X0013425Y0259618D01*
X0013560Y0259702D01*
X0013696Y0259781D01*
X0013835Y0259858D01*
X0013976Y0259930D01*
X0014118Y0260000D01*
X0014262Y0260065D01*
X0014408Y0260127D01*
X0014555Y0260185D01*
X0014704Y0260240D01*
X0014854Y0260291D01*
X0015005Y0260338D01*
X0015157Y0260381D01*
X0015310Y0260420D01*
X0015465Y0260456D01*
X0015620Y0260487D01*
X0015776Y0260515D01*
X0015932Y0260539D01*
X0016089Y0260559D01*
X0016247Y0260575D01*
X0016404Y0260587D01*
X0016563Y0260595D01*
X0016721Y0260599D01*
X0016879Y0260599D01*
X0017037Y0260595D01*
X0017196Y0260587D01*
X0017353Y0260575D01*
X0017511Y0260559D01*
X0017668Y0260539D01*
X0017824Y0260515D01*
X0017980Y0260487D01*
X0018135Y0260456D01*
X0018290Y0260420D01*
X0018443Y0260381D01*
X0018595Y0260338D01*
X0018746Y0260291D01*
X0018896Y0260240D01*
X0019045Y0260185D01*
X0019192Y0260127D01*
X0019338Y0260065D01*
X0019482Y0260000D01*
X0019624Y0259930D01*
X0019765Y0259858D01*
X0019904Y0259781D01*
X0020040Y0259702D01*
X0020175Y0259618D01*
X0020308Y0259532D01*
X0020438Y0259442D01*
X0020566Y0259349D01*
X0020692Y0259253D01*
X0020815Y0259153D01*
X0020936Y0259051D01*
X0021054Y0258946D01*
X0021169Y0258837D01*
X0021282Y0258726D01*
X0021392Y0258612D01*
X0021499Y0258495D01*
X0021603Y0258376D01*
X0021704Y0258254D01*
X0021801Y0258129D01*
X0021896Y0258002D01*
X0021987Y0257873D01*
X0022076Y0257742D01*
X0022160Y0257608D01*
X0022242Y0257472D01*
X0022320Y0257335D01*
X0022394Y0257195D01*
X0022465Y0257053D01*
X0022533Y0256910D01*
X0022597Y0256765D01*
X0022657Y0256619D01*
X0022713Y0256471D01*
X0022766Y0256322D01*
X0022815Y0256171D01*
X0022860Y0256019D01*
X0022901Y0255866D01*
X0022939Y0255713D01*
X0022972Y0255558D01*
X0023002Y0255402D01*
X0023028Y0255246D01*
X0023049Y0255089D01*
X0023067Y0254932D01*
X0023081Y0254774D01*
X0023091Y0254616D01*
X0023097Y0254458D01*
X0023099Y0254300D01*
X0023097Y0254142D01*
X0023091Y0253984D01*
X0023081Y0253826D01*
X0023067Y0253668D01*
X0023049Y0253511D01*
X0023028Y0253354D01*
X0023002Y0253198D01*
X0022972Y0253042D01*
X0022939Y0252887D01*
X0022901Y0252734D01*
X0022860Y0252581D01*
X0022815Y0252429D01*
X0022766Y0252278D01*
X0022713Y0252129D01*
X0022657Y0251981D01*
X0022597Y0251835D01*
X0022533Y0251690D01*
X0022465Y0251547D01*
X0022394Y0251405D01*
X0022320Y0251265D01*
X0022242Y0251128D01*
X0022160Y0250992D01*
X0022076Y0250858D01*
X0021987Y0250727D01*
X0021896Y0250598D01*
X0021801Y0250471D01*
X0021704Y0250346D01*
X0021603Y0250224D01*
X0021499Y0250105D01*
X0021392Y0249988D01*
X0021282Y0249874D01*
X0021169Y0249763D01*
X0021054Y0249654D01*
X0020936Y0249549D01*
X0020815Y0249447D01*
X0020692Y0249347D01*
X0020566Y0249251D01*
X0020438Y0249158D01*
X0020308Y0249068D01*
X0020175Y0248982D01*
X0020040Y0248898D01*
X0019904Y0248819D01*
X0019765Y0248742D01*
X0019624Y0248670D01*
X0019482Y0248600D01*
X0019338Y0248535D01*
X0019192Y0248473D01*
X0019045Y0248415D01*
X0018896Y0248360D01*
X0018746Y0248309D01*
X0018595Y0248262D01*
X0018443Y0248219D01*
X0018290Y0248180D01*
X0018135Y0248144D01*
X0017980Y0248113D01*
X0017824Y0248085D01*
X0017668Y0248061D01*
X0017511Y0248041D01*
X0017353Y0248025D01*
X0017196Y0248013D01*
X0017037Y0248005D01*
X0016879Y0248001D01*
X0016721Y0248001D01*
X0016563Y0248005D01*
X0016404Y0248013D01*
X0016247Y0248025D01*
X0016089Y0248041D01*
X0015932Y0248061D01*
X0015776Y0248085D01*
X0015620Y0248113D01*
X0015465Y0248144D01*
X0015310Y0248180D01*
X0015157Y0248219D01*
X0015005Y0248262D01*
X0014854Y0248309D01*
X0014704Y0248360D01*
X0014555Y0248415D01*
X0014408Y0248473D01*
X0014262Y0248535D01*
X0014118Y0248600D01*
X0013976Y0248670D01*
X0013835Y0248742D01*
X0013696Y0248819D01*
X0013560Y0248898D01*
X0013425Y0248982D01*
X0013292Y0249068D01*
X0013162Y0249158D01*
X0013034Y0249251D01*
X0012908Y0249347D01*
X0012785Y0249447D01*
X0012664Y0249549D01*
X0012546Y0249654D01*
X0012431Y0249763D01*
X0012318Y0249874D01*
X0012208Y0249988D01*
X0012101Y0250105D01*
X0011997Y0250224D01*
X0011896Y0250346D01*
X0011799Y0250471D01*
X0011704Y0250598D01*
X0011613Y0250727D01*
X0011524Y0250858D01*
X0011440Y0250992D01*
X0011358Y0251128D01*
X0011280Y0251265D01*
X0011206Y0251405D01*
X0011135Y0251547D01*
X0011067Y0251690D01*
X0011003Y0251835D01*
X0010943Y0251981D01*
X0010887Y0252129D01*
X0010834Y0252278D01*
X0010785Y0252429D01*
X0010740Y0252581D01*
X0010699Y0252734D01*
X0010661Y0252887D01*
X0010628Y0253042D01*
X0010598Y0253198D01*
X0010572Y0253354D01*
X0010551Y0253511D01*
X0010533Y0253668D01*
X0010519Y0253826D01*
X0010509Y0253984D01*
X0010503Y0254142D01*
X0010501Y0254300D01*
X0370501Y0019300D02*
X0370503Y0019458D01*
X0370509Y0019616D01*
X0370519Y0019774D01*
X0370533Y0019932D01*
X0370551Y0020089D01*
X0370572Y0020246D01*
X0370598Y0020402D01*
X0370628Y0020558D01*
X0370661Y0020713D01*
X0370699Y0020866D01*
X0370740Y0021019D01*
X0370785Y0021171D01*
X0370834Y0021322D01*
X0370887Y0021471D01*
X0370943Y0021619D01*
X0371003Y0021765D01*
X0371067Y0021910D01*
X0371135Y0022053D01*
X0371206Y0022195D01*
X0371280Y0022335D01*
X0371358Y0022472D01*
X0371440Y0022608D01*
X0371524Y0022742D01*
X0371613Y0022873D01*
X0371704Y0023002D01*
X0371799Y0023129D01*
X0371896Y0023254D01*
X0371997Y0023376D01*
X0372101Y0023495D01*
X0372208Y0023612D01*
X0372318Y0023726D01*
X0372431Y0023837D01*
X0372546Y0023946D01*
X0372664Y0024051D01*
X0372785Y0024153D01*
X0372908Y0024253D01*
X0373034Y0024349D01*
X0373162Y0024442D01*
X0373292Y0024532D01*
X0373425Y0024618D01*
X0373560Y0024702D01*
X0373696Y0024781D01*
X0373835Y0024858D01*
X0373976Y0024930D01*
X0374118Y0025000D01*
X0374262Y0025065D01*
X0374408Y0025127D01*
X0374555Y0025185D01*
X0374704Y0025240D01*
X0374854Y0025291D01*
X0375005Y0025338D01*
X0375157Y0025381D01*
X0375310Y0025420D01*
X0375465Y0025456D01*
X0375620Y0025487D01*
X0375776Y0025515D01*
X0375932Y0025539D01*
X0376089Y0025559D01*
X0376247Y0025575D01*
X0376404Y0025587D01*
X0376563Y0025595D01*
X0376721Y0025599D01*
X0376879Y0025599D01*
X0377037Y0025595D01*
X0377196Y0025587D01*
X0377353Y0025575D01*
X0377511Y0025559D01*
X0377668Y0025539D01*
X0377824Y0025515D01*
X0377980Y0025487D01*
X0378135Y0025456D01*
X0378290Y0025420D01*
X0378443Y0025381D01*
X0378595Y0025338D01*
X0378746Y0025291D01*
X0378896Y0025240D01*
X0379045Y0025185D01*
X0379192Y0025127D01*
X0379338Y0025065D01*
X0379482Y0025000D01*
X0379624Y0024930D01*
X0379765Y0024858D01*
X0379904Y0024781D01*
X0380040Y0024702D01*
X0380175Y0024618D01*
X0380308Y0024532D01*
X0380438Y0024442D01*
X0380566Y0024349D01*
X0380692Y0024253D01*
X0380815Y0024153D01*
X0380936Y0024051D01*
X0381054Y0023946D01*
X0381169Y0023837D01*
X0381282Y0023726D01*
X0381392Y0023612D01*
X0381499Y0023495D01*
X0381603Y0023376D01*
X0381704Y0023254D01*
X0381801Y0023129D01*
X0381896Y0023002D01*
X0381987Y0022873D01*
X0382076Y0022742D01*
X0382160Y0022608D01*
X0382242Y0022472D01*
X0382320Y0022335D01*
X0382394Y0022195D01*
X0382465Y0022053D01*
X0382533Y0021910D01*
X0382597Y0021765D01*
X0382657Y0021619D01*
X0382713Y0021471D01*
X0382766Y0021322D01*
X0382815Y0021171D01*
X0382860Y0021019D01*
X0382901Y0020866D01*
X0382939Y0020713D01*
X0382972Y0020558D01*
X0383002Y0020402D01*
X0383028Y0020246D01*
X0383049Y0020089D01*
X0383067Y0019932D01*
X0383081Y0019774D01*
X0383091Y0019616D01*
X0383097Y0019458D01*
X0383099Y0019300D01*
X0383097Y0019142D01*
X0383091Y0018984D01*
X0383081Y0018826D01*
X0383067Y0018668D01*
X0383049Y0018511D01*
X0383028Y0018354D01*
X0383002Y0018198D01*
X0382972Y0018042D01*
X0382939Y0017887D01*
X0382901Y0017734D01*
X0382860Y0017581D01*
X0382815Y0017429D01*
X0382766Y0017278D01*
X0382713Y0017129D01*
X0382657Y0016981D01*
X0382597Y0016835D01*
X0382533Y0016690D01*
X0382465Y0016547D01*
X0382394Y0016405D01*
X0382320Y0016265D01*
X0382242Y0016128D01*
X0382160Y0015992D01*
X0382076Y0015858D01*
X0381987Y0015727D01*
X0381896Y0015598D01*
X0381801Y0015471D01*
X0381704Y0015346D01*
X0381603Y0015224D01*
X0381499Y0015105D01*
X0381392Y0014988D01*
X0381282Y0014874D01*
X0381169Y0014763D01*
X0381054Y0014654D01*
X0380936Y0014549D01*
X0380815Y0014447D01*
X0380692Y0014347D01*
X0380566Y0014251D01*
X0380438Y0014158D01*
X0380308Y0014068D01*
X0380175Y0013982D01*
X0380040Y0013898D01*
X0379904Y0013819D01*
X0379765Y0013742D01*
X0379624Y0013670D01*
X0379482Y0013600D01*
X0379338Y0013535D01*
X0379192Y0013473D01*
X0379045Y0013415D01*
X0378896Y0013360D01*
X0378746Y0013309D01*
X0378595Y0013262D01*
X0378443Y0013219D01*
X0378290Y0013180D01*
X0378135Y0013144D01*
X0377980Y0013113D01*
X0377824Y0013085D01*
X0377668Y0013061D01*
X0377511Y0013041D01*
X0377353Y0013025D01*
X0377196Y0013013D01*
X0377037Y0013005D01*
X0376879Y0013001D01*
X0376721Y0013001D01*
X0376563Y0013005D01*
X0376404Y0013013D01*
X0376247Y0013025D01*
X0376089Y0013041D01*
X0375932Y0013061D01*
X0375776Y0013085D01*
X0375620Y0013113D01*
X0375465Y0013144D01*
X0375310Y0013180D01*
X0375157Y0013219D01*
X0375005Y0013262D01*
X0374854Y0013309D01*
X0374704Y0013360D01*
X0374555Y0013415D01*
X0374408Y0013473D01*
X0374262Y0013535D01*
X0374118Y0013600D01*
X0373976Y0013670D01*
X0373835Y0013742D01*
X0373696Y0013819D01*
X0373560Y0013898D01*
X0373425Y0013982D01*
X0373292Y0014068D01*
X0373162Y0014158D01*
X0373034Y0014251D01*
X0372908Y0014347D01*
X0372785Y0014447D01*
X0372664Y0014549D01*
X0372546Y0014654D01*
X0372431Y0014763D01*
X0372318Y0014874D01*
X0372208Y0014988D01*
X0372101Y0015105D01*
X0371997Y0015224D01*
X0371896Y0015346D01*
X0371799Y0015471D01*
X0371704Y0015598D01*
X0371613Y0015727D01*
X0371524Y0015858D01*
X0371440Y0015992D01*
X0371358Y0016128D01*
X0371280Y0016265D01*
X0371206Y0016405D01*
X0371135Y0016547D01*
X0371067Y0016690D01*
X0371003Y0016835D01*
X0370943Y0016981D01*
X0370887Y0017129D01*
X0370834Y0017278D01*
X0370785Y0017429D01*
X0370740Y0017581D01*
X0370699Y0017734D01*
X0370661Y0017887D01*
X0370628Y0018042D01*
X0370598Y0018198D01*
X0370572Y0018354D01*
X0370551Y0018511D01*
X0370533Y0018668D01*
X0370519Y0018826D01*
X0370509Y0018984D01*
X0370503Y0019142D01*
X0370501Y0019300D01*
X0373001Y0254300D02*
X0373003Y0254458D01*
X0373009Y0254616D01*
X0373019Y0254774D01*
X0373033Y0254932D01*
X0373051Y0255089D01*
X0373072Y0255246D01*
X0373098Y0255402D01*
X0373128Y0255558D01*
X0373161Y0255713D01*
X0373199Y0255866D01*
X0373240Y0256019D01*
X0373285Y0256171D01*
X0373334Y0256322D01*
X0373387Y0256471D01*
X0373443Y0256619D01*
X0373503Y0256765D01*
X0373567Y0256910D01*
X0373635Y0257053D01*
X0373706Y0257195D01*
X0373780Y0257335D01*
X0373858Y0257472D01*
X0373940Y0257608D01*
X0374024Y0257742D01*
X0374113Y0257873D01*
X0374204Y0258002D01*
X0374299Y0258129D01*
X0374396Y0258254D01*
X0374497Y0258376D01*
X0374601Y0258495D01*
X0374708Y0258612D01*
X0374818Y0258726D01*
X0374931Y0258837D01*
X0375046Y0258946D01*
X0375164Y0259051D01*
X0375285Y0259153D01*
X0375408Y0259253D01*
X0375534Y0259349D01*
X0375662Y0259442D01*
X0375792Y0259532D01*
X0375925Y0259618D01*
X0376060Y0259702D01*
X0376196Y0259781D01*
X0376335Y0259858D01*
X0376476Y0259930D01*
X0376618Y0260000D01*
X0376762Y0260065D01*
X0376908Y0260127D01*
X0377055Y0260185D01*
X0377204Y0260240D01*
X0377354Y0260291D01*
X0377505Y0260338D01*
X0377657Y0260381D01*
X0377810Y0260420D01*
X0377965Y0260456D01*
X0378120Y0260487D01*
X0378276Y0260515D01*
X0378432Y0260539D01*
X0378589Y0260559D01*
X0378747Y0260575D01*
X0378904Y0260587D01*
X0379063Y0260595D01*
X0379221Y0260599D01*
X0379379Y0260599D01*
X0379537Y0260595D01*
X0379696Y0260587D01*
X0379853Y0260575D01*
X0380011Y0260559D01*
X0380168Y0260539D01*
X0380324Y0260515D01*
X0380480Y0260487D01*
X0380635Y0260456D01*
X0380790Y0260420D01*
X0380943Y0260381D01*
X0381095Y0260338D01*
X0381246Y0260291D01*
X0381396Y0260240D01*
X0381545Y0260185D01*
X0381692Y0260127D01*
X0381838Y0260065D01*
X0381982Y0260000D01*
X0382124Y0259930D01*
X0382265Y0259858D01*
X0382404Y0259781D01*
X0382540Y0259702D01*
X0382675Y0259618D01*
X0382808Y0259532D01*
X0382938Y0259442D01*
X0383066Y0259349D01*
X0383192Y0259253D01*
X0383315Y0259153D01*
X0383436Y0259051D01*
X0383554Y0258946D01*
X0383669Y0258837D01*
X0383782Y0258726D01*
X0383892Y0258612D01*
X0383999Y0258495D01*
X0384103Y0258376D01*
X0384204Y0258254D01*
X0384301Y0258129D01*
X0384396Y0258002D01*
X0384487Y0257873D01*
X0384576Y0257742D01*
X0384660Y0257608D01*
X0384742Y0257472D01*
X0384820Y0257335D01*
X0384894Y0257195D01*
X0384965Y0257053D01*
X0385033Y0256910D01*
X0385097Y0256765D01*
X0385157Y0256619D01*
X0385213Y0256471D01*
X0385266Y0256322D01*
X0385315Y0256171D01*
X0385360Y0256019D01*
X0385401Y0255866D01*
X0385439Y0255713D01*
X0385472Y0255558D01*
X0385502Y0255402D01*
X0385528Y0255246D01*
X0385549Y0255089D01*
X0385567Y0254932D01*
X0385581Y0254774D01*
X0385591Y0254616D01*
X0385597Y0254458D01*
X0385599Y0254300D01*
X0385597Y0254142D01*
X0385591Y0253984D01*
X0385581Y0253826D01*
X0385567Y0253668D01*
X0385549Y0253511D01*
X0385528Y0253354D01*
X0385502Y0253198D01*
X0385472Y0253042D01*
X0385439Y0252887D01*
X0385401Y0252734D01*
X0385360Y0252581D01*
X0385315Y0252429D01*
X0385266Y0252278D01*
X0385213Y0252129D01*
X0385157Y0251981D01*
X0385097Y0251835D01*
X0385033Y0251690D01*
X0384965Y0251547D01*
X0384894Y0251405D01*
X0384820Y0251265D01*
X0384742Y0251128D01*
X0384660Y0250992D01*
X0384576Y0250858D01*
X0384487Y0250727D01*
X0384396Y0250598D01*
X0384301Y0250471D01*
X0384204Y0250346D01*
X0384103Y0250224D01*
X0383999Y0250105D01*
X0383892Y0249988D01*
X0383782Y0249874D01*
X0383669Y0249763D01*
X0383554Y0249654D01*
X0383436Y0249549D01*
X0383315Y0249447D01*
X0383192Y0249347D01*
X0383066Y0249251D01*
X0382938Y0249158D01*
X0382808Y0249068D01*
X0382675Y0248982D01*
X0382540Y0248898D01*
X0382404Y0248819D01*
X0382265Y0248742D01*
X0382124Y0248670D01*
X0381982Y0248600D01*
X0381838Y0248535D01*
X0381692Y0248473D01*
X0381545Y0248415D01*
X0381396Y0248360D01*
X0381246Y0248309D01*
X0381095Y0248262D01*
X0380943Y0248219D01*
X0380790Y0248180D01*
X0380635Y0248144D01*
X0380480Y0248113D01*
X0380324Y0248085D01*
X0380168Y0248061D01*
X0380011Y0248041D01*
X0379853Y0248025D01*
X0379696Y0248013D01*
X0379537Y0248005D01*
X0379379Y0248001D01*
X0379221Y0248001D01*
X0379063Y0248005D01*
X0378904Y0248013D01*
X0378747Y0248025D01*
X0378589Y0248041D01*
X0378432Y0248061D01*
X0378276Y0248085D01*
X0378120Y0248113D01*
X0377965Y0248144D01*
X0377810Y0248180D01*
X0377657Y0248219D01*
X0377505Y0248262D01*
X0377354Y0248309D01*
X0377204Y0248360D01*
X0377055Y0248415D01*
X0376908Y0248473D01*
X0376762Y0248535D01*
X0376618Y0248600D01*
X0376476Y0248670D01*
X0376335Y0248742D01*
X0376196Y0248819D01*
X0376060Y0248898D01*
X0375925Y0248982D01*
X0375792Y0249068D01*
X0375662Y0249158D01*
X0375534Y0249251D01*
X0375408Y0249347D01*
X0375285Y0249447D01*
X0375164Y0249549D01*
X0375046Y0249654D01*
X0374931Y0249763D01*
X0374818Y0249874D01*
X0374708Y0249988D01*
X0374601Y0250105D01*
X0374497Y0250224D01*
X0374396Y0250346D01*
X0374299Y0250471D01*
X0374204Y0250598D01*
X0374113Y0250727D01*
X0374024Y0250858D01*
X0373940Y0250992D01*
X0373858Y0251128D01*
X0373780Y0251265D01*
X0373706Y0251405D01*
X0373635Y0251547D01*
X0373567Y0251690D01*
X0373503Y0251835D01*
X0373443Y0251981D01*
X0373387Y0252129D01*
X0373334Y0252278D01*
X0373285Y0252429D01*
X0373240Y0252581D01*
X0373199Y0252734D01*
X0373161Y0252887D01*
X0373128Y0253042D01*
X0373098Y0253198D01*
X0373072Y0253354D01*
X0373051Y0253511D01*
X0373033Y0253668D01*
X0373019Y0253826D01*
X0373009Y0253984D01*
X0373003Y0254142D01*
X0373001Y0254300D01*
D11*
X0197136Y0126904D02*
X0196085Y0127955D01*
X0192932Y0127955D01*
X0192932Y0121650D01*
X0196085Y0121650D01*
X0197136Y0122701D01*
X0197136Y0126904D01*
X0190690Y0127955D02*
X0190690Y0121650D01*
X0186486Y0127955D01*
X0186486Y0121650D01*
X0184245Y0122701D02*
X0184245Y0124803D01*
X0182143Y0124803D01*
X0184245Y0126904D02*
X0183194Y0127955D01*
X0181092Y0127955D01*
X0180041Y0126904D01*
X0180041Y0122701D01*
X0181092Y0121650D01*
X0183194Y0121650D01*
X0184245Y0122701D01*
X0184245Y0117455D02*
X0180041Y0117455D01*
X0182143Y0117455D02*
X0182143Y0111150D01*
X0186486Y0111150D02*
X0186486Y0115354D01*
X0186486Y0113252D02*
X0188588Y0115354D01*
X0189639Y0115354D01*
X0192909Y0115354D02*
X0195010Y0115354D01*
X0196061Y0114303D01*
X0196061Y0111150D01*
X0192909Y0111150D01*
X0191858Y0112201D01*
X0192909Y0113252D01*
X0196061Y0113252D01*
X0198303Y0114303D02*
X0198303Y0112201D01*
X0199354Y0111150D01*
X0202507Y0111150D01*
X0204749Y0111150D02*
X0204749Y0117455D01*
X0202507Y0115354D02*
X0199354Y0115354D01*
X0198303Y0114303D01*
X0204749Y0113252D02*
X0207901Y0115354D01*
X0204749Y0113252D02*
X0207901Y0111150D01*
X0216565Y0111150D02*
X0218667Y0111150D01*
X0217616Y0111150D02*
X0217616Y0117455D01*
X0216565Y0117455D02*
X0218667Y0117455D01*
X0220862Y0115354D02*
X0224015Y0115354D01*
X0225066Y0114303D01*
X0225066Y0111150D01*
X0220862Y0111150D02*
X0220862Y0115354D01*
X0219718Y0096455D02*
X0217616Y0096455D01*
X0216565Y0095404D01*
X0216565Y0091201D01*
X0217616Y0090150D01*
X0219718Y0090150D01*
X0220769Y0091201D01*
X0220769Y0095404D01*
X0219718Y0096455D01*
X0223011Y0094354D02*
X0223011Y0091201D01*
X0224062Y0090150D01*
X0227215Y0090150D01*
X0227215Y0094354D01*
X0229456Y0094354D02*
X0231558Y0094354D01*
X0230507Y0095404D02*
X0230507Y0091201D01*
X0231558Y0090150D01*
X0220816Y0083854D02*
X0218714Y0083854D01*
X0219765Y0084904D02*
X0219765Y0080701D01*
X0220816Y0079650D01*
X0216472Y0079650D02*
X0216472Y0083854D01*
X0212268Y0083854D02*
X0212268Y0080701D01*
X0213319Y0079650D01*
X0216472Y0079650D01*
X0210027Y0080701D02*
X0210027Y0084904D01*
X0208976Y0085955D01*
X0206874Y0085955D01*
X0205823Y0084904D01*
X0205823Y0080701D01*
X0206874Y0079650D01*
X0208976Y0079650D01*
X0210027Y0080701D01*
X0207901Y0090150D02*
X0204749Y0092252D01*
X0207901Y0094354D01*
X0204749Y0096455D02*
X0204749Y0090150D01*
X0202507Y0090150D02*
X0199354Y0090150D01*
X0198303Y0091201D01*
X0198303Y0093303D01*
X0199354Y0094354D01*
X0202507Y0094354D01*
X0196061Y0093303D02*
X0196061Y0090150D01*
X0192909Y0090150D01*
X0191858Y0091201D01*
X0192909Y0092252D01*
X0196061Y0092252D01*
X0196061Y0093303D02*
X0195010Y0094354D01*
X0192909Y0094354D01*
X0189639Y0094354D02*
X0188588Y0094354D01*
X0186486Y0092252D01*
X0186486Y0090150D02*
X0186486Y0094354D01*
X0184245Y0096455D02*
X0180041Y0096455D01*
X0182143Y0096455D02*
X0182143Y0090150D01*
X0183194Y0085955D02*
X0184245Y0084904D01*
X0184245Y0080701D01*
X0183194Y0079650D01*
X0181092Y0079650D01*
X0180041Y0080701D01*
X0180041Y0084904D01*
X0181092Y0085955D01*
X0183194Y0085955D01*
X0186486Y0082803D02*
X0186486Y0080701D01*
X0187537Y0079650D01*
X0190690Y0079650D01*
X0192932Y0080701D02*
X0192932Y0082803D01*
X0193983Y0083854D01*
X0197136Y0083854D01*
X0197136Y0079650D02*
X0193983Y0079650D01*
X0192932Y0080701D01*
X0190690Y0083854D02*
X0187537Y0083854D01*
X0186486Y0082803D01*
X0171354Y0082803D02*
X0171354Y0080701D01*
X0170303Y0079650D01*
X0168201Y0079650D01*
X0167150Y0080701D01*
X0167150Y0082803D02*
X0169252Y0083854D01*
X0170303Y0083854D01*
X0171354Y0082803D01*
X0171354Y0085955D02*
X0167150Y0085955D01*
X0167150Y0082803D01*
X0170303Y0090150D02*
X0170303Y0096455D01*
X0167150Y0093303D01*
X0171354Y0093303D01*
X0170303Y0100650D02*
X0168201Y0100650D01*
X0167150Y0101701D01*
X0169252Y0103803D02*
X0170303Y0103803D01*
X0171354Y0102752D01*
X0171354Y0101701D01*
X0170303Y0100650D01*
X0170303Y0103803D02*
X0171354Y0104854D01*
X0171354Y0105904D01*
X0170303Y0106955D01*
X0168201Y0106955D01*
X0167150Y0105904D01*
X0167150Y0111150D02*
X0171354Y0115354D01*
X0171354Y0116404D01*
X0170303Y0117455D01*
X0168201Y0117455D01*
X0167150Y0116404D01*
X0167150Y0121650D02*
X0171354Y0121650D01*
X0169252Y0121650D02*
X0169252Y0127955D01*
X0167150Y0125854D01*
X0167150Y0111150D02*
X0171354Y0111150D01*
X0180041Y0103803D02*
X0184245Y0103803D01*
X0186486Y0102752D02*
X0188588Y0100650D01*
X0190690Y0102752D01*
X0190690Y0106955D01*
X0186486Y0106955D02*
X0186486Y0102752D01*
X0182143Y0101701D02*
X0182143Y0105904D01*
X0181085Y0069955D02*
X0177932Y0066803D01*
X0182136Y0066803D01*
X0181085Y0069955D02*
X0181085Y0063650D01*
X0175690Y0066803D02*
X0171486Y0066803D01*
X0169245Y0069955D02*
X0165041Y0063650D01*
X0162799Y0064701D02*
X0162799Y0068904D01*
X0161748Y0069955D01*
X0158595Y0069955D01*
X0158595Y0063650D01*
X0161748Y0063650D01*
X0162799Y0064701D01*
X0156354Y0064701D02*
X0156354Y0068904D01*
X0155303Y0069955D01*
X0153201Y0069955D01*
X0152150Y0068904D01*
X0152150Y0064701D01*
X0153201Y0063650D01*
X0155303Y0063650D01*
X0156354Y0064701D01*
X0155303Y0059455D02*
X0153201Y0059455D01*
X0152150Y0058404D01*
X0155303Y0059455D02*
X0156354Y0058404D01*
X0156354Y0057354D01*
X0152150Y0053150D01*
X0156354Y0053150D01*
X0158595Y0054201D02*
X0162799Y0058404D01*
X0162799Y0054201D01*
X0161748Y0053150D01*
X0159646Y0053150D01*
X0158595Y0054201D01*
X0158595Y0058404D01*
X0159646Y0059455D01*
X0161748Y0059455D01*
X0162799Y0058404D01*
X0165041Y0058404D02*
X0166092Y0059455D01*
X0168194Y0059455D01*
X0169245Y0058404D01*
X0169245Y0057354D01*
X0165041Y0053150D01*
X0169245Y0053150D01*
X0171486Y0054201D02*
X0172537Y0053150D01*
X0174639Y0053150D01*
X0175690Y0054201D01*
X0175690Y0055252D01*
X0174639Y0056303D01*
X0173588Y0056303D01*
X0174639Y0056303D02*
X0175690Y0057354D01*
X0175690Y0058404D01*
X0174639Y0059455D01*
X0172537Y0059455D01*
X0171486Y0058404D01*
X0177932Y0058404D02*
X0178983Y0059455D01*
X0181085Y0059455D01*
X0182136Y0058404D01*
X0177932Y0054201D01*
X0178983Y0053150D01*
X0181085Y0053150D01*
X0182136Y0054201D01*
X0182136Y0058404D01*
X0184377Y0056303D02*
X0188581Y0056303D01*
X0190823Y0058404D02*
X0190823Y0054201D01*
X0195027Y0058404D01*
X0195027Y0054201D01*
X0193976Y0053150D01*
X0191874Y0053150D01*
X0190823Y0054201D01*
X0187530Y0053150D02*
X0187530Y0059455D01*
X0184377Y0056303D01*
X0190823Y0058404D02*
X0191874Y0059455D01*
X0193976Y0059455D01*
X0195027Y0058404D01*
X0197268Y0058404D02*
X0198319Y0059455D01*
X0200421Y0059455D01*
X0201472Y0058404D01*
X0201472Y0057354D01*
X0197268Y0053150D01*
X0201472Y0053150D01*
X0201565Y0046854D02*
X0202616Y0046854D01*
X0203667Y0045803D01*
X0204718Y0046854D01*
X0205769Y0045803D01*
X0205769Y0042650D01*
X0203667Y0042650D02*
X0203667Y0045803D01*
X0201565Y0046854D02*
X0201565Y0042650D01*
X0199324Y0042650D02*
X0199324Y0046854D01*
X0199324Y0042650D02*
X0196171Y0042650D01*
X0195120Y0043701D01*
X0195120Y0046854D01*
X0192878Y0045803D02*
X0191827Y0046854D01*
X0189725Y0046854D01*
X0188674Y0045803D01*
X0188674Y0043701D01*
X0189725Y0042650D01*
X0191827Y0042650D01*
X0192878Y0044752D02*
X0188674Y0044752D01*
X0186433Y0042650D02*
X0186433Y0048955D01*
X0182229Y0048955D02*
X0186433Y0042650D01*
X0182229Y0042650D02*
X0182229Y0048955D01*
X0177932Y0054201D02*
X0177932Y0058404D01*
X0169245Y0063650D02*
X0165041Y0069955D01*
X0190823Y0069955D02*
X0190823Y0065752D01*
X0192925Y0063650D01*
X0195027Y0065752D01*
X0195027Y0069955D01*
X0197268Y0067854D02*
X0199370Y0069955D01*
X0199370Y0063650D01*
X0197268Y0063650D02*
X0201472Y0063650D01*
X0203714Y0063650D02*
X0204765Y0063650D01*
X0204765Y0064701D01*
X0203714Y0064701D01*
X0203714Y0063650D01*
X0206937Y0063650D02*
X0206937Y0064701D01*
X0211140Y0068904D01*
X0211140Y0069955D01*
X0206937Y0069955D01*
X0209062Y0046854D02*
X0211164Y0046854D01*
X0212215Y0045803D01*
X0212215Y0042650D01*
X0209062Y0042650D01*
X0208011Y0043701D01*
X0209062Y0044752D01*
X0212215Y0044752D01*
X0214456Y0042650D02*
X0214456Y0046854D01*
X0217609Y0046854D01*
X0218660Y0045803D01*
X0218660Y0042650D01*
X0220902Y0042650D02*
X0220902Y0046854D01*
X0224055Y0046854D01*
X0225106Y0045803D01*
X0225106Y0042650D01*
X0220879Y0039506D02*
X0220879Y0038455D01*
X0220879Y0036354D02*
X0220879Y0032150D01*
X0219828Y0032150D02*
X0221930Y0032150D01*
X0224125Y0033201D02*
X0225176Y0034252D01*
X0228328Y0034252D01*
X0228328Y0035303D02*
X0228328Y0032150D01*
X0225176Y0032150D01*
X0224125Y0033201D01*
X0225176Y0036354D02*
X0227277Y0036354D01*
X0228328Y0035303D01*
X0220879Y0036354D02*
X0219828Y0036354D01*
X0217586Y0035303D02*
X0217586Y0032150D01*
X0217586Y0035303D02*
X0216535Y0036354D01*
X0213382Y0036354D01*
X0213382Y0032150D01*
X0211140Y0032150D02*
X0211140Y0035303D01*
X0210089Y0036354D01*
X0207988Y0036354D01*
X0207988Y0034252D02*
X0206937Y0033201D01*
X0207988Y0032150D01*
X0211140Y0032150D01*
X0211140Y0034252D02*
X0207988Y0034252D01*
X0204742Y0036354D02*
X0202640Y0036354D01*
X0203691Y0037404D02*
X0203691Y0033201D01*
X0204742Y0032150D01*
X0200398Y0032150D02*
X0200398Y0035303D01*
X0199347Y0036354D01*
X0197245Y0036354D01*
X0197245Y0034252D02*
X0200398Y0034252D01*
X0200398Y0032150D02*
X0197245Y0032150D01*
X0196194Y0033201D01*
X0197245Y0034252D01*
X0193952Y0033201D02*
X0192901Y0032150D01*
X0190800Y0032150D01*
X0189749Y0033201D01*
X0189749Y0037404D01*
X0190800Y0038455D01*
X0192901Y0038455D01*
X0193952Y0037404D01*
X0192878Y0044752D02*
X0192878Y0045803D01*
X0181085Y0036354D02*
X0177932Y0034252D01*
X0181085Y0032150D01*
X0177932Y0032150D02*
X0177932Y0038455D01*
X0175690Y0036354D02*
X0172537Y0036354D01*
X0171486Y0035303D01*
X0171486Y0033201D01*
X0172537Y0032150D01*
X0175690Y0032150D01*
X0169245Y0032150D02*
X0169245Y0036354D01*
X0165041Y0036354D02*
X0165041Y0033201D01*
X0166092Y0032150D01*
X0169245Y0032150D01*
X0162799Y0032150D02*
X0162799Y0035303D01*
X0161748Y0036354D01*
X0159646Y0036354D01*
X0158595Y0035303D01*
X0156354Y0037404D02*
X0155303Y0038455D01*
X0153201Y0038455D01*
X0152150Y0037404D01*
X0152150Y0033201D01*
X0153201Y0032150D01*
X0155303Y0032150D01*
X0156354Y0033201D01*
X0158595Y0032150D02*
X0158595Y0038455D01*
X0159646Y0042650D02*
X0158595Y0043701D01*
X0158595Y0045803D01*
X0159646Y0046854D01*
X0161748Y0046854D01*
X0162799Y0045803D01*
X0162799Y0044752D01*
X0158595Y0044752D01*
X0156354Y0044752D02*
X0156354Y0043701D01*
X0155303Y0042650D01*
X0153201Y0042650D01*
X0152150Y0043701D01*
X0153201Y0045803D02*
X0155303Y0045803D01*
X0156354Y0044752D01*
X0156354Y0047904D02*
X0155303Y0048955D01*
X0153201Y0048955D01*
X0152150Y0047904D01*
X0152150Y0046854D01*
X0153201Y0045803D01*
X0159646Y0042650D02*
X0161748Y0042650D01*
X0166092Y0043701D02*
X0167143Y0042650D01*
X0166092Y0043701D02*
X0166092Y0047904D01*
X0165041Y0046854D02*
X0167143Y0046854D01*
X0169338Y0045803D02*
X0170389Y0046854D01*
X0172491Y0046854D01*
X0173542Y0045803D01*
X0173542Y0042650D01*
X0169338Y0042650D02*
X0169338Y0048955D01*
X0126903Y0257150D02*
X0126903Y0261354D01*
X0124801Y0263455D01*
X0122699Y0261354D01*
X0122699Y0257150D01*
X0122699Y0260303D02*
X0126903Y0260303D01*
X0114058Y0261354D02*
X0111956Y0261354D01*
X0113007Y0262404D02*
X0113007Y0258201D01*
X0114058Y0257150D01*
X0109715Y0257150D02*
X0106562Y0257150D01*
X0105511Y0258201D01*
X0105511Y0260303D01*
X0106562Y0261354D01*
X0109715Y0261354D01*
X0103269Y0260303D02*
X0103269Y0259252D01*
X0099065Y0259252D01*
X0099065Y0260303D02*
X0100116Y0261354D01*
X0102218Y0261354D01*
X0103269Y0260303D01*
X0102218Y0257150D02*
X0100116Y0257150D01*
X0099065Y0258201D01*
X0099065Y0260303D01*
X0096824Y0259252D02*
X0096824Y0258201D01*
X0095773Y0257150D01*
X0093671Y0257150D01*
X0092620Y0258201D01*
X0093671Y0260303D02*
X0095773Y0260303D01*
X0096824Y0259252D01*
X0096824Y0262404D02*
X0095773Y0263455D01*
X0093671Y0263455D01*
X0092620Y0262404D01*
X0092620Y0261354D01*
X0093671Y0260303D01*
X0083933Y0261354D02*
X0082882Y0260303D01*
X0079729Y0260303D01*
X0079729Y0263455D02*
X0079729Y0257150D01*
X0082882Y0257150D01*
X0083933Y0258201D01*
X0083933Y0259252D01*
X0082882Y0260303D01*
X0083933Y0261354D02*
X0083933Y0262404D01*
X0082882Y0263455D01*
X0079729Y0263455D01*
X0071088Y0261354D02*
X0068986Y0261354D01*
X0070037Y0262404D02*
X0070037Y0258201D01*
X0071088Y0257150D01*
X0066745Y0257150D02*
X0063592Y0257150D01*
X0062541Y0258201D01*
X0062541Y0260303D01*
X0063592Y0261354D01*
X0066745Y0261354D01*
X0060299Y0260303D02*
X0060299Y0259252D01*
X0056095Y0259252D01*
X0056095Y0260303D02*
X0057146Y0261354D01*
X0059248Y0261354D01*
X0060299Y0260303D01*
X0059248Y0257150D02*
X0057146Y0257150D01*
X0056095Y0258201D01*
X0056095Y0260303D01*
X0053854Y0259252D02*
X0053854Y0258201D01*
X0052803Y0257150D01*
X0050701Y0257150D01*
X0049650Y0258201D01*
X0050701Y0260303D02*
X0052803Y0260303D01*
X0053854Y0259252D01*
X0053854Y0262404D02*
X0052803Y0263455D01*
X0050701Y0263455D01*
X0049650Y0262404D01*
X0049650Y0261354D01*
X0050701Y0260303D01*
D12*
X0196508Y0261804D02*
X0202513Y0261804D01*
X0201012Y0266308D02*
X0196508Y0261804D01*
X0201012Y0257300D02*
X0201012Y0266308D01*
X0214924Y0264806D02*
X0216425Y0266308D01*
X0219427Y0266308D01*
X0220929Y0264806D01*
X0220929Y0263305D01*
X0219427Y0261804D01*
X0220929Y0260303D01*
X0220929Y0258801D01*
X0219427Y0257300D01*
X0216425Y0257300D01*
X0214924Y0258801D01*
X0217926Y0261804D02*
X0219427Y0261804D01*
X0242547Y0264806D02*
X0244048Y0266308D01*
X0247051Y0266308D01*
X0248552Y0264806D01*
X0248552Y0263305D01*
X0242547Y0257300D01*
X0248552Y0257300D01*
X0260963Y0257300D02*
X0266968Y0257300D01*
X0263965Y0257300D02*
X0263965Y0266308D01*
X0260963Y0263305D01*
X0279379Y0264806D02*
X0279379Y0258801D01*
X0280880Y0257300D01*
X0283882Y0257300D01*
X0285384Y0258801D01*
X0285384Y0264806D01*
X0283882Y0266308D01*
X0280880Y0266308D01*
X0279379Y0264806D01*
X0288586Y0266308D02*
X0288586Y0258801D01*
X0290088Y0257300D01*
X0293090Y0257300D01*
X0294592Y0258801D01*
X0294592Y0266308D01*
X0297794Y0266308D02*
X0303799Y0266308D01*
X0300797Y0266308D02*
X0300797Y0257300D01*
X0304800Y0251804D02*
X0310805Y0251804D01*
X0307803Y0254806D02*
X0307803Y0248801D01*
X0314008Y0248801D02*
X0315509Y0247300D01*
X0318512Y0247300D01*
X0320013Y0248801D01*
X0320013Y0251804D01*
X0317010Y0251804D01*
X0314008Y0254806D02*
X0314008Y0248801D01*
X0314008Y0254806D02*
X0315509Y0256308D01*
X0318512Y0256308D01*
X0320013Y0254806D01*
X0323216Y0253305D02*
X0326218Y0256308D01*
X0326218Y0247300D01*
X0323216Y0247300D02*
X0329221Y0247300D01*
X0332424Y0247300D02*
X0338429Y0253305D01*
X0338429Y0254806D01*
X0336927Y0256308D01*
X0333925Y0256308D01*
X0332424Y0254806D01*
X0332424Y0247300D02*
X0338429Y0247300D01*
X0341631Y0248801D02*
X0343133Y0247300D01*
X0346135Y0247300D01*
X0347637Y0248801D01*
X0347637Y0250303D01*
X0346135Y0251804D01*
X0344634Y0251804D01*
X0346135Y0251804D02*
X0347637Y0253305D01*
X0347637Y0254806D01*
X0346135Y0256308D01*
X0343133Y0256308D01*
X0341631Y0254806D01*
X0350839Y0251804D02*
X0356844Y0251804D01*
X0355343Y0247300D02*
X0355343Y0256308D01*
X0350839Y0251804D01*
X0024300Y0153000D02*
X0022300Y0153000D01*
X0015800Y0153000D01*
X0014300Y0153000D01*
X0019300Y0138600D02*
X0019495Y0138611D01*
X0019689Y0138627D01*
X0019883Y0138647D01*
X0020076Y0138673D01*
X0020269Y0138703D01*
X0020461Y0138737D01*
X0020652Y0138776D01*
X0020842Y0138820D01*
X0021031Y0138868D01*
X0021218Y0138921D01*
X0021405Y0138978D01*
X0021590Y0139039D01*
X0021773Y0139106D01*
X0021955Y0139176D01*
X0022135Y0139251D01*
X0022313Y0139330D01*
X0022489Y0139413D01*
X0022663Y0139501D01*
X0022835Y0139592D01*
X0023005Y0139688D01*
X0023173Y0139788D01*
X0023338Y0139892D01*
X0023500Y0140000D01*
X0019300Y0138600D02*
X0019110Y0138611D01*
X0018920Y0138627D01*
X0018730Y0138648D01*
X0018541Y0138673D01*
X0018353Y0138702D01*
X0018165Y0138736D01*
X0017978Y0138774D01*
X0017792Y0138817D01*
X0017607Y0138864D01*
X0017423Y0138915D01*
X0017241Y0138971D01*
X0017060Y0139031D01*
X0016880Y0139095D01*
X0016702Y0139163D01*
X0016526Y0139236D01*
X0016351Y0139312D01*
X0016178Y0139393D01*
X0016007Y0139478D01*
X0015838Y0139567D01*
X0015672Y0139659D01*
X0015507Y0139756D01*
X0023270Y0139853D02*
X0023438Y0139953D01*
X0023605Y0140056D01*
X0023768Y0140163D01*
X0023929Y0140274D01*
X0024087Y0140390D01*
X0024243Y0140509D01*
X0024395Y0140631D01*
X0024544Y0140758D01*
X0024691Y0140888D01*
X0024833Y0141021D01*
X0024973Y0141158D01*
X0025109Y0141299D01*
X0025242Y0141443D01*
X0025371Y0141589D01*
X0025497Y0141740D01*
X0025619Y0141893D01*
X0025737Y0142049D01*
X0025851Y0142207D01*
X0025961Y0142369D01*
X0026068Y0142533D01*
X0026170Y0142700D01*
X0026268Y0142869D01*
X0026362Y0143041D01*
X0026452Y0143215D01*
X0026538Y0143391D01*
X0026619Y0143569D01*
X0026696Y0143749D01*
X0026768Y0143930D01*
X0026836Y0144114D01*
X0026899Y0144299D01*
X0026958Y0144485D01*
X0027012Y0144673D01*
X0027062Y0144863D01*
X0027107Y0145053D01*
X0027148Y0145245D01*
X0027183Y0145437D01*
X0027214Y0145630D01*
X0027240Y0145824D01*
X0027262Y0146018D01*
X0027279Y0146213D01*
X0027290Y0146409D01*
X0027298Y0146604D01*
X0027300Y0146800D01*
X0015535Y0139741D02*
X0015367Y0139834D01*
X0015201Y0139930D01*
X0015037Y0140030D01*
X0014876Y0140135D01*
X0014717Y0140243D01*
X0014561Y0140355D01*
X0014407Y0140471D01*
X0014257Y0140590D01*
X0014109Y0140713D01*
X0013964Y0140839D01*
X0013823Y0140969D01*
X0013684Y0141102D01*
X0013549Y0141239D01*
X0013417Y0141379D01*
X0013289Y0141521D01*
X0013164Y0141667D01*
X0013042Y0141816D01*
X0012924Y0141968D01*
X0012810Y0142122D01*
X0012700Y0142280D01*
X0012593Y0142439D01*
X0012490Y0142602D01*
X0012391Y0142767D01*
X0012296Y0142934D01*
X0012206Y0143103D01*
X0012119Y0143274D01*
X0012036Y0143448D01*
X0011958Y0143623D01*
X0011884Y0143801D01*
X0011814Y0143980D01*
X0011748Y0144160D01*
X0011687Y0144342D01*
X0011630Y0144526D01*
X0011578Y0144711D01*
X0011530Y0144897D01*
X0011486Y0145084D01*
X0011447Y0145272D01*
X0011413Y0145461D01*
X0011383Y0145651D01*
X0011358Y0145841D01*
X0011337Y0146032D01*
X0011321Y0146224D01*
X0011309Y0146416D01*
X0011302Y0146608D01*
X0011300Y0146800D01*
X0024468Y0152907D02*
X0024614Y0152780D01*
X0024756Y0152651D01*
X0024896Y0152517D01*
X0025032Y0152381D01*
X0025165Y0152241D01*
X0025295Y0152098D01*
X0025421Y0151951D01*
X0025543Y0151802D01*
X0025662Y0151650D01*
X0025777Y0151495D01*
X0025889Y0151338D01*
X0025996Y0151178D01*
X0026100Y0151015D01*
X0026199Y0150849D01*
X0026295Y0150682D01*
X0026387Y0150512D01*
X0026474Y0150340D01*
X0026558Y0150166D01*
X0026637Y0149990D01*
X0026711Y0149812D01*
X0026782Y0149632D01*
X0026848Y0149451D01*
X0026910Y0149268D01*
X0026967Y0149084D01*
X0027020Y0148898D01*
X0027068Y0148711D01*
X0027112Y0148523D01*
X0027151Y0148334D01*
X0027186Y0148144D01*
X0027216Y0147954D01*
X0027242Y0147763D01*
X0027263Y0147571D01*
X0027279Y0147378D01*
X0027291Y0147186D01*
X0027298Y0146993D01*
X0027300Y0146800D01*
X0014178Y0152946D02*
X0014030Y0152819D01*
X0013885Y0152689D01*
X0013744Y0152556D01*
X0013605Y0152419D01*
X0013470Y0152279D01*
X0013339Y0152135D01*
X0013211Y0151988D01*
X0013086Y0151839D01*
X0012965Y0151686D01*
X0012848Y0151531D01*
X0012735Y0151372D01*
X0012626Y0151211D01*
X0012521Y0151047D01*
X0012419Y0150881D01*
X0012322Y0150712D01*
X0012229Y0150542D01*
X0012140Y0150368D01*
X0012055Y0150193D01*
X0011975Y0150016D01*
X0011899Y0149837D01*
X0011827Y0149656D01*
X0011760Y0149473D01*
X0011697Y0149289D01*
X0011639Y0149103D01*
X0011585Y0148916D01*
X0011536Y0148728D01*
X0011491Y0148538D01*
X0011451Y0148348D01*
X0011416Y0148156D01*
X0011385Y0147964D01*
X0011359Y0147771D01*
X0011338Y0147577D01*
X0011321Y0147383D01*
X0011309Y0147189D01*
X0011302Y0146995D01*
X0011300Y0146800D01*
D13*
X0057250Y0149750D02*
X0062388Y0149750D01*
X0059819Y0149750D02*
X0059819Y0157457D01*
X0057250Y0154888D01*
X0073088Y0156172D02*
X0074372Y0157457D01*
X0076941Y0157457D01*
X0078225Y0156172D01*
X0078225Y0154888D01*
X0073088Y0149750D01*
X0078225Y0149750D01*
X0088925Y0151034D02*
X0090209Y0149750D01*
X0092778Y0149750D01*
X0094063Y0151034D01*
X0094063Y0152319D01*
X0092778Y0153603D01*
X0091494Y0153603D01*
X0092778Y0153603D02*
X0094063Y0154888D01*
X0094063Y0156172D01*
X0092778Y0157457D01*
X0090209Y0157457D01*
X0088925Y0156172D01*
X0104763Y0153603D02*
X0109900Y0153603D01*
X0108616Y0149750D02*
X0108616Y0157457D01*
X0104763Y0153603D01*
X0120600Y0153603D02*
X0123169Y0154888D01*
X0124453Y0154888D01*
X0125738Y0153603D01*
X0125738Y0151034D01*
X0124453Y0149750D01*
X0121885Y0149750D01*
X0120600Y0151034D01*
X0120600Y0153603D02*
X0120600Y0157457D01*
X0125738Y0157457D01*
X0257250Y0152388D02*
X0259819Y0154957D01*
X0259819Y0147250D01*
X0257250Y0147250D02*
X0262388Y0147250D01*
X0273088Y0147250D02*
X0278225Y0152388D01*
X0278225Y0153672D01*
X0276941Y0154957D01*
X0274372Y0154957D01*
X0273088Y0153672D01*
X0273088Y0147250D02*
X0278225Y0147250D01*
X0288925Y0148534D02*
X0290209Y0147250D01*
X0292778Y0147250D01*
X0294063Y0148534D01*
X0294063Y0149819D01*
X0292778Y0151103D01*
X0291494Y0151103D01*
X0292778Y0151103D02*
X0294063Y0152388D01*
X0294063Y0153672D01*
X0292778Y0154957D01*
X0290209Y0154957D01*
X0288925Y0153672D01*
X0304763Y0151103D02*
X0309900Y0151103D01*
X0308616Y0147250D02*
X0308616Y0154957D01*
X0304763Y0151103D01*
X0320600Y0151103D02*
X0323169Y0152388D01*
X0324453Y0152388D01*
X0325738Y0151103D01*
X0325738Y0148534D01*
X0324453Y0147250D01*
X0321885Y0147250D01*
X0320600Y0148534D01*
X0320600Y0151103D02*
X0320600Y0154957D01*
X0325738Y0154957D01*
X0320738Y0042457D02*
X0315600Y0042457D01*
X0315600Y0038603D01*
X0318169Y0039888D01*
X0319453Y0039888D01*
X0320738Y0038603D01*
X0320738Y0036034D01*
X0319453Y0034750D01*
X0316885Y0034750D01*
X0315600Y0036034D01*
X0304900Y0038603D02*
X0299763Y0038603D01*
X0303616Y0042457D01*
X0303616Y0034750D01*
X0289063Y0036034D02*
X0287778Y0034750D01*
X0285209Y0034750D01*
X0283925Y0036034D01*
X0286494Y0038603D02*
X0287778Y0038603D01*
X0289063Y0037319D01*
X0289063Y0036034D01*
X0287778Y0038603D02*
X0289063Y0039888D01*
X0289063Y0041172D01*
X0287778Y0042457D01*
X0285209Y0042457D01*
X0283925Y0041172D01*
X0273225Y0041172D02*
X0273225Y0039888D01*
X0268088Y0034750D01*
X0273225Y0034750D01*
X0273225Y0041172D02*
X0271941Y0042457D01*
X0269372Y0042457D01*
X0268088Y0041172D01*
X0257388Y0034750D02*
X0252250Y0034750D01*
X0254819Y0034750D02*
X0254819Y0042457D01*
X0252250Y0039888D01*
X0125738Y0038603D02*
X0125738Y0036034D01*
X0124453Y0034750D01*
X0121885Y0034750D01*
X0120600Y0036034D01*
X0120600Y0038603D02*
X0123169Y0039888D01*
X0124453Y0039888D01*
X0125738Y0038603D01*
X0125738Y0042457D02*
X0120600Y0042457D01*
X0120600Y0038603D01*
X0109900Y0038603D02*
X0104763Y0038603D01*
X0108616Y0042457D01*
X0108616Y0034750D01*
X0094063Y0036034D02*
X0092778Y0034750D01*
X0090209Y0034750D01*
X0088925Y0036034D01*
X0091494Y0038603D02*
X0092778Y0038603D01*
X0094063Y0037319D01*
X0094063Y0036034D01*
X0092778Y0038603D02*
X0094063Y0039888D01*
X0094063Y0041172D01*
X0092778Y0042457D01*
X0090209Y0042457D01*
X0088925Y0041172D01*
X0078225Y0041172D02*
X0078225Y0039888D01*
X0073088Y0034750D01*
X0078225Y0034750D01*
X0078225Y0041172D02*
X0076941Y0042457D01*
X0074372Y0042457D01*
X0073088Y0041172D01*
X0062388Y0034750D02*
X0057250Y0034750D01*
X0059819Y0034750D02*
X0059819Y0042457D01*
X0057250Y0039888D01*
D14*
X0013300Y0146800D02*
X0013302Y0146954D01*
X0013308Y0147108D01*
X0013318Y0147262D01*
X0013332Y0147416D01*
X0013349Y0147569D01*
X0013371Y0147721D01*
X0013397Y0147873D01*
X0013426Y0148025D01*
X0013460Y0148175D01*
X0013497Y0148325D01*
X0013538Y0148473D01*
X0013583Y0148621D01*
X0013632Y0148767D01*
X0013684Y0148912D01*
X0013740Y0149055D01*
X0013800Y0149198D01*
X0013863Y0149338D01*
X0013930Y0149477D01*
X0014001Y0149614D01*
X0014075Y0149749D01*
X0014152Y0149882D01*
X0014233Y0150014D01*
X0014317Y0150143D01*
X0014405Y0150270D01*
X0014496Y0150394D01*
X0014589Y0150516D01*
X0014687Y0150636D01*
X0014787Y0150753D01*
X0014890Y0150868D01*
X0014996Y0150980D01*
X0015104Y0151089D01*
X0015216Y0151195D01*
X0015330Y0151299D01*
X0015447Y0151399D01*
X0015566Y0151497D01*
X0015688Y0151591D01*
X0015813Y0151682D01*
X0025300Y0146800D02*
X0025298Y0146648D01*
X0025292Y0146497D01*
X0025283Y0146346D01*
X0025269Y0146194D01*
X0025252Y0146044D01*
X0025231Y0145894D01*
X0025206Y0145744D01*
X0025178Y0145595D01*
X0025145Y0145447D01*
X0025109Y0145300D01*
X0025070Y0145153D01*
X0025026Y0145008D01*
X0024979Y0144864D01*
X0024928Y0144721D01*
X0024874Y0144580D01*
X0024816Y0144439D01*
X0024755Y0144301D01*
X0024690Y0144164D01*
X0024621Y0144028D01*
X0024550Y0143895D01*
X0024475Y0143763D01*
X0024396Y0143633D01*
X0024315Y0143506D01*
X0024230Y0143380D01*
X0024142Y0143256D01*
X0024051Y0143135D01*
X0023957Y0143016D01*
X0023859Y0142900D01*
X0023759Y0142786D01*
X0023657Y0142674D01*
X0023551Y0142566D01*
X0023443Y0142460D01*
X0023332Y0142356D01*
X0023218Y0142256D01*
X0023102Y0142158D01*
X0022983Y0142064D01*
X0023286Y0142315D02*
X0023172Y0142217D01*
X0023056Y0142121D01*
X0022938Y0142029D01*
X0022817Y0141939D01*
X0022694Y0141852D01*
X0022569Y0141769D01*
X0022442Y0141689D01*
X0022313Y0141611D01*
X0022182Y0141538D01*
X0022050Y0141467D01*
X0021915Y0141400D01*
X0021779Y0141336D01*
X0021641Y0141276D01*
X0021502Y0141219D01*
X0021362Y0141165D01*
X0021220Y0141115D01*
X0021077Y0141069D01*
X0020933Y0141026D01*
X0020787Y0140987D01*
X0020641Y0140952D01*
X0020494Y0140920D01*
X0020347Y0140892D01*
X0020198Y0140868D01*
X0020049Y0140847D01*
X0019900Y0140830D01*
X0019750Y0140817D01*
X0019600Y0140808D01*
X0019450Y0140802D01*
X0019300Y0140800D01*
X0025300Y0146800D02*
X0025298Y0146952D01*
X0025292Y0147103D01*
X0025283Y0147254D01*
X0025269Y0147406D01*
X0025252Y0147556D01*
X0025231Y0147706D01*
X0025206Y0147856D01*
X0025178Y0148005D01*
X0025145Y0148153D01*
X0025109Y0148300D01*
X0025070Y0148447D01*
X0025026Y0148592D01*
X0024979Y0148736D01*
X0024928Y0148879D01*
X0024874Y0149020D01*
X0024816Y0149161D01*
X0024755Y0149299D01*
X0024690Y0149436D01*
X0024621Y0149572D01*
X0024550Y0149705D01*
X0024475Y0149837D01*
X0024396Y0149967D01*
X0024315Y0150094D01*
X0024230Y0150220D01*
X0024142Y0150344D01*
X0024051Y0150465D01*
X0023957Y0150584D01*
X0023859Y0150700D01*
X0023759Y0150814D01*
X0023657Y0150926D01*
X0023551Y0151034D01*
X0023443Y0151140D01*
X0023332Y0151244D01*
X0023218Y0151344D01*
X0023102Y0151442D01*
X0022983Y0151536D01*
X0019300Y0152800D02*
X0019148Y0152798D01*
X0018996Y0152792D01*
X0018845Y0152783D01*
X0018694Y0152769D01*
X0018543Y0152752D01*
X0018392Y0152731D01*
X0018243Y0152706D01*
X0018093Y0152677D01*
X0017945Y0152645D01*
X0017798Y0152609D01*
X0017651Y0152569D01*
X0017506Y0152525D01*
X0017361Y0152478D01*
X0017218Y0152427D01*
X0017077Y0152373D01*
X0016936Y0152315D01*
X0016797Y0152253D01*
X0016660Y0152188D01*
X0016525Y0152120D01*
X0016391Y0152048D01*
X0016259Y0151972D01*
X0016129Y0151894D01*
X0016001Y0151812D01*
X0015876Y0151727D01*
X0015752Y0151639D01*
X0015631Y0151547D01*
X0015512Y0151453D01*
X0015395Y0151356D01*
X0019300Y0152800D02*
X0019454Y0152798D01*
X0019609Y0152792D01*
X0019763Y0152782D01*
X0019916Y0152768D01*
X0020070Y0152750D01*
X0020223Y0152729D01*
X0020375Y0152703D01*
X0020526Y0152673D01*
X0020677Y0152640D01*
X0020827Y0152602D01*
X0020976Y0152561D01*
X0021123Y0152516D01*
X0021270Y0152467D01*
X0021415Y0152415D01*
X0021559Y0152359D01*
X0021701Y0152299D01*
X0021842Y0152235D01*
X0021981Y0152168D01*
X0022118Y0152097D01*
X0022253Y0152023D01*
X0022387Y0151945D01*
X0022518Y0151864D01*
X0022647Y0151780D01*
X0022774Y0151692D01*
X0022899Y0151601D01*
X0023021Y0151507D01*
X0023141Y0151409D01*
X0019300Y0150800D02*
X0019426Y0150798D01*
X0019551Y0150792D01*
X0019676Y0150782D01*
X0019801Y0150768D01*
X0019926Y0150751D01*
X0020050Y0150729D01*
X0020173Y0150704D01*
X0020295Y0150674D01*
X0020416Y0150641D01*
X0020536Y0150604D01*
X0020655Y0150564D01*
X0020772Y0150519D01*
X0020889Y0150471D01*
X0021003Y0150419D01*
X0021116Y0150364D01*
X0021227Y0150305D01*
X0021336Y0150243D01*
X0021443Y0150177D01*
X0021548Y0150108D01*
X0021651Y0150036D01*
X0021752Y0149961D01*
X0021850Y0149882D01*
X0021945Y0149800D01*
X0022038Y0149716D01*
X0022128Y0149628D01*
X0022216Y0149538D01*
X0022300Y0149445D01*
X0022382Y0149350D01*
X0022461Y0149252D01*
X0022536Y0149151D01*
X0022608Y0149048D01*
X0022677Y0148943D01*
X0022743Y0148836D01*
X0022805Y0148727D01*
X0022864Y0148616D01*
X0022919Y0148503D01*
X0022971Y0148389D01*
X0023019Y0148272D01*
X0023064Y0148155D01*
X0023104Y0148036D01*
X0023141Y0147916D01*
X0023174Y0147795D01*
X0023204Y0147673D01*
X0023229Y0147550D01*
X0023251Y0147426D01*
X0023268Y0147301D01*
X0023282Y0147176D01*
X0023292Y0147051D01*
X0023298Y0146926D01*
X0023300Y0146800D01*
X0019300Y0140800D02*
X0019146Y0140802D01*
X0018991Y0140808D01*
X0018837Y0140818D01*
X0018684Y0140832D01*
X0018530Y0140850D01*
X0018377Y0140871D01*
X0018225Y0140897D01*
X0018074Y0140927D01*
X0017923Y0140960D01*
X0017773Y0140998D01*
X0017624Y0141039D01*
X0017477Y0141084D01*
X0017330Y0141133D01*
X0017185Y0141185D01*
X0017041Y0141241D01*
X0016899Y0141301D01*
X0016758Y0141365D01*
X0016619Y0141432D01*
X0016482Y0141503D01*
X0016347Y0141577D01*
X0016213Y0141655D01*
X0016082Y0141736D01*
X0015953Y0141820D01*
X0015826Y0141908D01*
X0015701Y0141999D01*
X0015579Y0142093D01*
X0015459Y0142191D01*
X0021800Y0146800D02*
X0021798Y0146898D01*
X0021792Y0146996D01*
X0021783Y0147094D01*
X0021769Y0147191D01*
X0021752Y0147288D01*
X0021731Y0147384D01*
X0021706Y0147479D01*
X0021678Y0147573D01*
X0021645Y0147665D01*
X0021610Y0147757D01*
X0021570Y0147847D01*
X0021528Y0147935D01*
X0021481Y0148022D01*
X0021432Y0148106D01*
X0021379Y0148189D01*
X0021323Y0148269D01*
X0021263Y0148348D01*
X0021201Y0148424D01*
X0021136Y0148497D01*
X0021068Y0148568D01*
X0020997Y0148636D01*
X0020924Y0148701D01*
X0020848Y0148763D01*
X0020769Y0148823D01*
X0020689Y0148879D01*
X0020606Y0148932D01*
X0020522Y0148981D01*
X0020435Y0149028D01*
X0020347Y0149070D01*
X0020257Y0149110D01*
X0020165Y0149145D01*
X0020073Y0149178D01*
X0019979Y0149206D01*
X0019884Y0149231D01*
X0019788Y0149252D01*
X0019691Y0149269D01*
X0019594Y0149283D01*
X0019496Y0149292D01*
X0019398Y0149298D01*
X0019300Y0149300D01*
X0015300Y0146800D02*
X0015302Y0146674D01*
X0015308Y0146549D01*
X0015318Y0146424D01*
X0015332Y0146299D01*
X0015349Y0146174D01*
X0015371Y0146050D01*
X0015396Y0145927D01*
X0015426Y0145805D01*
X0015459Y0145684D01*
X0015496Y0145564D01*
X0015536Y0145445D01*
X0015581Y0145328D01*
X0015629Y0145211D01*
X0015681Y0145097D01*
X0015736Y0144984D01*
X0015795Y0144873D01*
X0015857Y0144764D01*
X0015923Y0144657D01*
X0015992Y0144552D01*
X0016064Y0144449D01*
X0016139Y0144348D01*
X0016218Y0144250D01*
X0016300Y0144155D01*
X0016384Y0144062D01*
X0016472Y0143972D01*
X0016562Y0143884D01*
X0016655Y0143800D01*
X0016750Y0143718D01*
X0016848Y0143639D01*
X0016949Y0143564D01*
X0017052Y0143492D01*
X0017157Y0143423D01*
X0017264Y0143357D01*
X0017373Y0143295D01*
X0017484Y0143236D01*
X0017597Y0143181D01*
X0017711Y0143129D01*
X0017828Y0143081D01*
X0017945Y0143036D01*
X0018064Y0142996D01*
X0018184Y0142959D01*
X0018305Y0142926D01*
X0018427Y0142896D01*
X0018550Y0142871D01*
X0018674Y0142849D01*
X0018799Y0142832D01*
X0018924Y0142818D01*
X0019049Y0142808D01*
X0019174Y0142802D01*
X0019300Y0142800D01*
X0019300Y0144300D02*
X0019202Y0144302D01*
X0019104Y0144308D01*
X0019006Y0144317D01*
X0018909Y0144331D01*
X0018812Y0144348D01*
X0018716Y0144369D01*
X0018621Y0144394D01*
X0018527Y0144422D01*
X0018435Y0144455D01*
X0018343Y0144490D01*
X0018253Y0144530D01*
X0018165Y0144572D01*
X0018078Y0144619D01*
X0017994Y0144668D01*
X0017911Y0144721D01*
X0017831Y0144777D01*
X0017752Y0144837D01*
X0017676Y0144899D01*
X0017603Y0144964D01*
X0017532Y0145032D01*
X0017464Y0145103D01*
X0017399Y0145176D01*
X0017337Y0145252D01*
X0017277Y0145331D01*
X0017221Y0145411D01*
X0017168Y0145494D01*
X0017119Y0145578D01*
X0017072Y0145665D01*
X0017030Y0145753D01*
X0016990Y0145843D01*
X0016955Y0145935D01*
X0016922Y0146027D01*
X0016894Y0146121D01*
X0016869Y0146216D01*
X0016848Y0146312D01*
X0016831Y0146409D01*
X0016817Y0146506D01*
X0016808Y0146604D01*
X0016802Y0146702D01*
X0016800Y0146800D01*
X0013300Y0146800D02*
X0013302Y0146650D01*
X0013308Y0146499D01*
X0013317Y0146349D01*
X0013330Y0146200D01*
X0013347Y0146050D01*
X0013368Y0145901D01*
X0013392Y0145753D01*
X0013420Y0145605D01*
X0013452Y0145458D01*
X0013487Y0145312D01*
X0013527Y0145167D01*
X0013569Y0145023D01*
X0013616Y0144880D01*
X0013666Y0144738D01*
X0013719Y0144597D01*
X0013776Y0144458D01*
X0013836Y0144320D01*
X0013900Y0144184D01*
X0013967Y0144050D01*
X0014038Y0143917D01*
X0014112Y0143786D01*
X0014189Y0143657D01*
X0014270Y0143530D01*
X0014353Y0143405D01*
X0014440Y0143282D01*
X0014529Y0143161D01*
X0014622Y0143043D01*
X0014718Y0142927D01*
X0014816Y0142813D01*
X0014917Y0142702D01*
X0015022Y0142593D01*
X0015128Y0142488D01*
X0015238Y0142384D01*
X0015350Y0142284D01*
X0015464Y0142186D01*
X0015581Y0142092D01*
X0015700Y0142000D01*
D15*
X0017550Y0154550D02*
X0013046Y0154550D01*
X0017550Y0154550D02*
X0017550Y0157553D01*
X0017550Y0159154D02*
X0017550Y0162156D01*
X0017550Y0163758D02*
X0017550Y0166010D01*
X0016799Y0166760D01*
X0013797Y0166760D01*
X0013046Y0166010D01*
X0013046Y0163758D01*
X0017550Y0163758D01*
X0015298Y0160655D02*
X0015298Y0159154D01*
X0013046Y0159154D02*
X0017550Y0159154D01*
X0021046Y0156802D02*
X0021046Y0154550D01*
X0025550Y0154550D01*
X0024049Y0154550D02*
X0024049Y0156802D01*
X0023298Y0157553D01*
X0021797Y0157553D01*
X0021046Y0156802D01*
X0024049Y0156051D02*
X0025550Y0157553D01*
X0024799Y0159154D02*
X0023298Y0159154D01*
X0022547Y0159905D01*
X0022547Y0161406D01*
X0023298Y0162156D01*
X0024049Y0162156D01*
X0024049Y0159154D01*
X0024799Y0159154D02*
X0025550Y0159905D01*
X0025550Y0161406D01*
X0024799Y0163758D02*
X0023298Y0163758D01*
X0022547Y0164508D01*
X0022547Y0166760D01*
X0021046Y0166760D02*
X0025550Y0166760D01*
X0025550Y0164508D01*
X0024799Y0163758D01*
X0017550Y0168362D02*
X0017550Y0171364D01*
X0017550Y0169863D02*
X0013046Y0169863D01*
X0014547Y0168362D01*
X0013046Y0162156D02*
X0013046Y0159154D01*
X0018448Y0204157D02*
X0017548Y0205058D01*
X0020250Y0205058D01*
X0020250Y0204157D02*
X0020250Y0205959D01*
X0020250Y0207103D02*
X0017548Y0207103D01*
X0018899Y0207554D02*
X0020250Y0208905D01*
X0019349Y0207103D02*
X0017548Y0208905D01*
X0065844Y0222233D02*
X0065846Y0222300D01*
X0065852Y0222366D01*
X0065862Y0222432D01*
X0065876Y0222497D01*
X0065893Y0222561D01*
X0065915Y0222624D01*
X0065940Y0222686D01*
X0065969Y0222746D01*
X0066002Y0222804D01*
X0066037Y0222860D01*
X0066077Y0222914D01*
X0066119Y0222965D01*
X0066164Y0223014D01*
X0066212Y0223060D01*
X0066263Y0223103D01*
X0066316Y0223143D01*
X0066372Y0223180D01*
X0066430Y0223213D01*
X0066489Y0223243D01*
X0066550Y0223269D01*
X0066613Y0223292D01*
X0066677Y0223310D01*
X0066742Y0223325D01*
X0066808Y0223336D01*
X0066874Y0223343D01*
X0066940Y0223346D01*
X0067007Y0223345D01*
X0067073Y0223340D01*
X0067139Y0223331D01*
X0067205Y0223318D01*
X0067269Y0223301D01*
X0067332Y0223281D01*
X0067394Y0223256D01*
X0067455Y0223228D01*
X0067514Y0223197D01*
X0067570Y0223162D01*
X0067625Y0223124D01*
X0067677Y0223082D01*
X0067726Y0223037D01*
X0067773Y0222990D01*
X0067817Y0222940D01*
X0067857Y0222887D01*
X0067895Y0222832D01*
X0067929Y0222775D01*
X0067960Y0222716D01*
X0067987Y0222655D01*
X0068010Y0222593D01*
X0068030Y0222529D01*
X0068046Y0222464D01*
X0068058Y0222399D01*
X0068066Y0222333D01*
X0068070Y0222266D01*
X0068070Y0222200D01*
X0068066Y0222133D01*
X0068058Y0222067D01*
X0068046Y0222002D01*
X0068030Y0221937D01*
X0068010Y0221873D01*
X0067987Y0221811D01*
X0067960Y0221750D01*
X0067929Y0221691D01*
X0067895Y0221634D01*
X0067857Y0221579D01*
X0067817Y0221526D01*
X0067773Y0221476D01*
X0067726Y0221429D01*
X0067677Y0221384D01*
X0067625Y0221342D01*
X0067570Y0221304D01*
X0067513Y0221269D01*
X0067455Y0221238D01*
X0067394Y0221210D01*
X0067332Y0221185D01*
X0067269Y0221165D01*
X0067205Y0221148D01*
X0067139Y0221135D01*
X0067073Y0221126D01*
X0067007Y0221121D01*
X0066940Y0221120D01*
X0066874Y0221123D01*
X0066808Y0221130D01*
X0066742Y0221141D01*
X0066677Y0221156D01*
X0066613Y0221174D01*
X0066550Y0221197D01*
X0066489Y0221223D01*
X0066430Y0221253D01*
X0066372Y0221286D01*
X0066316Y0221323D01*
X0066263Y0221363D01*
X0066212Y0221406D01*
X0066164Y0221452D01*
X0066119Y0221501D01*
X0066077Y0221552D01*
X0066037Y0221606D01*
X0066002Y0221662D01*
X0065969Y0221720D01*
X0065940Y0221780D01*
X0065915Y0221842D01*
X0065893Y0221905D01*
X0065876Y0221969D01*
X0065862Y0222034D01*
X0065852Y0222100D01*
X0065846Y0222166D01*
X0065844Y0222233D01*
X0105844Y0222233D02*
X0105846Y0222300D01*
X0105852Y0222366D01*
X0105862Y0222432D01*
X0105876Y0222497D01*
X0105893Y0222561D01*
X0105915Y0222624D01*
X0105940Y0222686D01*
X0105969Y0222746D01*
X0106002Y0222804D01*
X0106037Y0222860D01*
X0106077Y0222914D01*
X0106119Y0222965D01*
X0106164Y0223014D01*
X0106212Y0223060D01*
X0106263Y0223103D01*
X0106316Y0223143D01*
X0106372Y0223180D01*
X0106430Y0223213D01*
X0106489Y0223243D01*
X0106550Y0223269D01*
X0106613Y0223292D01*
X0106677Y0223310D01*
X0106742Y0223325D01*
X0106808Y0223336D01*
X0106874Y0223343D01*
X0106940Y0223346D01*
X0107007Y0223345D01*
X0107073Y0223340D01*
X0107139Y0223331D01*
X0107205Y0223318D01*
X0107269Y0223301D01*
X0107332Y0223281D01*
X0107394Y0223256D01*
X0107455Y0223228D01*
X0107514Y0223197D01*
X0107570Y0223162D01*
X0107625Y0223124D01*
X0107677Y0223082D01*
X0107726Y0223037D01*
X0107773Y0222990D01*
X0107817Y0222940D01*
X0107857Y0222887D01*
X0107895Y0222832D01*
X0107929Y0222775D01*
X0107960Y0222716D01*
X0107987Y0222655D01*
X0108010Y0222593D01*
X0108030Y0222529D01*
X0108046Y0222464D01*
X0108058Y0222399D01*
X0108066Y0222333D01*
X0108070Y0222266D01*
X0108070Y0222200D01*
X0108066Y0222133D01*
X0108058Y0222067D01*
X0108046Y0222002D01*
X0108030Y0221937D01*
X0108010Y0221873D01*
X0107987Y0221811D01*
X0107960Y0221750D01*
X0107929Y0221691D01*
X0107895Y0221634D01*
X0107857Y0221579D01*
X0107817Y0221526D01*
X0107773Y0221476D01*
X0107726Y0221429D01*
X0107677Y0221384D01*
X0107625Y0221342D01*
X0107570Y0221304D01*
X0107513Y0221269D01*
X0107455Y0221238D01*
X0107394Y0221210D01*
X0107332Y0221185D01*
X0107269Y0221165D01*
X0107205Y0221148D01*
X0107139Y0221135D01*
X0107073Y0221126D01*
X0107007Y0221121D01*
X0106940Y0221120D01*
X0106874Y0221123D01*
X0106808Y0221130D01*
X0106742Y0221141D01*
X0106677Y0221156D01*
X0106613Y0221174D01*
X0106550Y0221197D01*
X0106489Y0221223D01*
X0106430Y0221253D01*
X0106372Y0221286D01*
X0106316Y0221323D01*
X0106263Y0221363D01*
X0106212Y0221406D01*
X0106164Y0221452D01*
X0106119Y0221501D01*
X0106077Y0221552D01*
X0106037Y0221606D01*
X0106002Y0221662D01*
X0105969Y0221720D01*
X0105940Y0221780D01*
X0105915Y0221842D01*
X0105893Y0221905D01*
X0105876Y0221969D01*
X0105862Y0222034D01*
X0105852Y0222100D01*
X0105846Y0222166D01*
X0105844Y0222233D01*
X0210844Y0222233D02*
X0210846Y0222300D01*
X0210852Y0222366D01*
X0210862Y0222432D01*
X0210876Y0222497D01*
X0210893Y0222561D01*
X0210915Y0222624D01*
X0210940Y0222686D01*
X0210969Y0222746D01*
X0211002Y0222804D01*
X0211037Y0222860D01*
X0211077Y0222914D01*
X0211119Y0222965D01*
X0211164Y0223014D01*
X0211212Y0223060D01*
X0211263Y0223103D01*
X0211316Y0223143D01*
X0211372Y0223180D01*
X0211430Y0223213D01*
X0211489Y0223243D01*
X0211550Y0223269D01*
X0211613Y0223292D01*
X0211677Y0223310D01*
X0211742Y0223325D01*
X0211808Y0223336D01*
X0211874Y0223343D01*
X0211940Y0223346D01*
X0212007Y0223345D01*
X0212073Y0223340D01*
X0212139Y0223331D01*
X0212205Y0223318D01*
X0212269Y0223301D01*
X0212332Y0223281D01*
X0212394Y0223256D01*
X0212455Y0223228D01*
X0212514Y0223197D01*
X0212570Y0223162D01*
X0212625Y0223124D01*
X0212677Y0223082D01*
X0212726Y0223037D01*
X0212773Y0222990D01*
X0212817Y0222940D01*
X0212857Y0222887D01*
X0212895Y0222832D01*
X0212929Y0222775D01*
X0212960Y0222716D01*
X0212987Y0222655D01*
X0213010Y0222593D01*
X0213030Y0222529D01*
X0213046Y0222464D01*
X0213058Y0222399D01*
X0213066Y0222333D01*
X0213070Y0222266D01*
X0213070Y0222200D01*
X0213066Y0222133D01*
X0213058Y0222067D01*
X0213046Y0222002D01*
X0213030Y0221937D01*
X0213010Y0221873D01*
X0212987Y0221811D01*
X0212960Y0221750D01*
X0212929Y0221691D01*
X0212895Y0221634D01*
X0212857Y0221579D01*
X0212817Y0221526D01*
X0212773Y0221476D01*
X0212726Y0221429D01*
X0212677Y0221384D01*
X0212625Y0221342D01*
X0212570Y0221304D01*
X0212513Y0221269D01*
X0212455Y0221238D01*
X0212394Y0221210D01*
X0212332Y0221185D01*
X0212269Y0221165D01*
X0212205Y0221148D01*
X0212139Y0221135D01*
X0212073Y0221126D01*
X0212007Y0221121D01*
X0211940Y0221120D01*
X0211874Y0221123D01*
X0211808Y0221130D01*
X0211742Y0221141D01*
X0211677Y0221156D01*
X0211613Y0221174D01*
X0211550Y0221197D01*
X0211489Y0221223D01*
X0211430Y0221253D01*
X0211372Y0221286D01*
X0211316Y0221323D01*
X0211263Y0221363D01*
X0211212Y0221406D01*
X0211164Y0221452D01*
X0211119Y0221501D01*
X0211077Y0221552D01*
X0211037Y0221606D01*
X0211002Y0221662D01*
X0210969Y0221720D01*
X0210940Y0221780D01*
X0210915Y0221842D01*
X0210893Y0221905D01*
X0210876Y0221969D01*
X0210862Y0222034D01*
X0210852Y0222100D01*
X0210846Y0222166D01*
X0210844Y0222233D01*
X0250844Y0222233D02*
X0250846Y0222300D01*
X0250852Y0222366D01*
X0250862Y0222432D01*
X0250876Y0222497D01*
X0250893Y0222561D01*
X0250915Y0222624D01*
X0250940Y0222686D01*
X0250969Y0222746D01*
X0251002Y0222804D01*
X0251037Y0222860D01*
X0251077Y0222914D01*
X0251119Y0222965D01*
X0251164Y0223014D01*
X0251212Y0223060D01*
X0251263Y0223103D01*
X0251316Y0223143D01*
X0251372Y0223180D01*
X0251430Y0223213D01*
X0251489Y0223243D01*
X0251550Y0223269D01*
X0251613Y0223292D01*
X0251677Y0223310D01*
X0251742Y0223325D01*
X0251808Y0223336D01*
X0251874Y0223343D01*
X0251940Y0223346D01*
X0252007Y0223345D01*
X0252073Y0223340D01*
X0252139Y0223331D01*
X0252205Y0223318D01*
X0252269Y0223301D01*
X0252332Y0223281D01*
X0252394Y0223256D01*
X0252455Y0223228D01*
X0252514Y0223197D01*
X0252570Y0223162D01*
X0252625Y0223124D01*
X0252677Y0223082D01*
X0252726Y0223037D01*
X0252773Y0222990D01*
X0252817Y0222940D01*
X0252857Y0222887D01*
X0252895Y0222832D01*
X0252929Y0222775D01*
X0252960Y0222716D01*
X0252987Y0222655D01*
X0253010Y0222593D01*
X0253030Y0222529D01*
X0253046Y0222464D01*
X0253058Y0222399D01*
X0253066Y0222333D01*
X0253070Y0222266D01*
X0253070Y0222200D01*
X0253066Y0222133D01*
X0253058Y0222067D01*
X0253046Y0222002D01*
X0253030Y0221937D01*
X0253010Y0221873D01*
X0252987Y0221811D01*
X0252960Y0221750D01*
X0252929Y0221691D01*
X0252895Y0221634D01*
X0252857Y0221579D01*
X0252817Y0221526D01*
X0252773Y0221476D01*
X0252726Y0221429D01*
X0252677Y0221384D01*
X0252625Y0221342D01*
X0252570Y0221304D01*
X0252513Y0221269D01*
X0252455Y0221238D01*
X0252394Y0221210D01*
X0252332Y0221185D01*
X0252269Y0221165D01*
X0252205Y0221148D01*
X0252139Y0221135D01*
X0252073Y0221126D01*
X0252007Y0221121D01*
X0251940Y0221120D01*
X0251874Y0221123D01*
X0251808Y0221130D01*
X0251742Y0221141D01*
X0251677Y0221156D01*
X0251613Y0221174D01*
X0251550Y0221197D01*
X0251489Y0221223D01*
X0251430Y0221253D01*
X0251372Y0221286D01*
X0251316Y0221323D01*
X0251263Y0221363D01*
X0251212Y0221406D01*
X0251164Y0221452D01*
X0251119Y0221501D01*
X0251077Y0221552D01*
X0251037Y0221606D01*
X0251002Y0221662D01*
X0250969Y0221720D01*
X0250940Y0221780D01*
X0250915Y0221842D01*
X0250893Y0221905D01*
X0250876Y0221969D01*
X0250862Y0222034D01*
X0250852Y0222100D01*
X0250846Y0222166D01*
X0250844Y0222233D01*
X0301800Y0221800D02*
X0306800Y0221800D01*
X0306800Y0226800D01*
X0356800Y0226800D01*
X0356800Y0221800D01*
X0306800Y0221800D01*
X0301800Y0221800D02*
X0301800Y0243800D01*
X0361800Y0243800D01*
X0361800Y0221800D01*
X0356800Y0221800D01*
D16*
X0326686Y0211202D02*
X0326686Y0203328D01*
X0326686Y0204115D02*
X0326686Y0167304D01*
X0312099Y0167241D02*
X0312099Y0177788D01*
X0313599Y0177741D02*
X0310099Y0177741D01*
X0298099Y0177741D02*
X0294099Y0177741D01*
X0296099Y0177788D02*
X0296099Y0167241D01*
X0280599Y0167241D02*
X0280599Y0177788D01*
X0279099Y0177741D02*
X0282099Y0177741D01*
X0266599Y0177741D02*
X0263099Y0177741D01*
X0265099Y0177788D02*
X0265099Y0167241D01*
X0250013Y0167304D02*
X0250013Y0204115D01*
X0326686Y0204115D01*
X0326599Y0211202D02*
X0250099Y0211202D01*
X0250013Y0211202D02*
X0250013Y0203328D01*
X0234005Y0220265D02*
X0234005Y0245855D01*
X0189910Y0245855D01*
X0189910Y0249792D01*
X0234005Y0249792D01*
X0234005Y0245855D01*
X0234005Y0246052D02*
X0236367Y0246052D01*
X0236367Y0242115D01*
X0234005Y0242115D01*
X0229910Y0245855D02*
X0274005Y0245855D01*
X0274005Y0220265D01*
X0229910Y0220265D01*
X0229910Y0245855D01*
X0229910Y0249792D01*
X0274005Y0249792D01*
X0274005Y0245855D01*
X0274005Y0246052D02*
X0276367Y0246052D01*
X0276367Y0242115D01*
X0274005Y0242115D01*
X0234005Y0220265D02*
X0189910Y0220265D01*
X0189910Y0245855D01*
X0189910Y0224989D02*
X0187548Y0224989D01*
X0187548Y0221052D01*
X0189910Y0221052D01*
X0227548Y0221052D02*
X0227548Y0224989D01*
X0229910Y0224989D01*
X0229910Y0221052D02*
X0227548Y0221052D01*
X0250099Y0177741D02*
X0250599Y0177741D01*
X0250099Y0177741D02*
X0326599Y0177741D01*
X0325599Y0177741D01*
X0326599Y0099202D02*
X0250099Y0099202D01*
X0250013Y0099202D02*
X0250013Y0091328D01*
X0250013Y0092115D02*
X0250013Y0055304D01*
X0250099Y0065741D02*
X0250599Y0065741D01*
X0250099Y0065741D02*
X0326599Y0065741D01*
X0325599Y0065741D01*
X0326686Y0055304D02*
X0326686Y0092115D01*
X0250013Y0092115D01*
X0263099Y0065741D02*
X0266599Y0065741D01*
X0265099Y0065788D02*
X0265099Y0055241D01*
X0280599Y0055241D02*
X0280599Y0065788D01*
X0279099Y0065741D02*
X0282099Y0065741D01*
X0294099Y0065741D02*
X0298099Y0065741D01*
X0296099Y0065788D02*
X0296099Y0055241D01*
X0310099Y0065741D02*
X0313599Y0065741D01*
X0312099Y0065788D02*
X0312099Y0055241D01*
X0326686Y0091328D02*
X0326686Y0099202D01*
X0130186Y0099202D02*
X0130186Y0091328D01*
X0130186Y0092115D02*
X0130186Y0055304D01*
X0130099Y0065741D02*
X0129099Y0065741D01*
X0130099Y0065741D02*
X0053599Y0065741D01*
X0054099Y0065741D01*
X0053513Y0055304D02*
X0053513Y0092115D01*
X0130186Y0092115D01*
X0130099Y0099202D02*
X0053599Y0099202D01*
X0053513Y0099202D02*
X0053513Y0091328D01*
X0045550Y0113800D02*
X0045550Y0116800D01*
X0039550Y0116800D01*
X0045550Y0116800D02*
X0045550Y0119800D01*
X0065550Y0119800D01*
X0065550Y0116800D01*
X0071550Y0116800D01*
X0065550Y0116800D02*
X0065550Y0113800D01*
X0045550Y0113800D01*
X0066599Y0065741D02*
X0070099Y0065741D01*
X0068599Y0065788D02*
X0068599Y0055241D01*
X0082599Y0065741D02*
X0085599Y0065741D01*
X0084099Y0065788D02*
X0084099Y0055241D01*
X0099599Y0055241D02*
X0099599Y0065788D01*
X0097599Y0065741D02*
X0101599Y0065741D01*
X0113599Y0065741D02*
X0117099Y0065741D01*
X0115599Y0065788D02*
X0115599Y0055241D01*
X0115599Y0167241D02*
X0115599Y0177788D01*
X0117099Y0177741D02*
X0113599Y0177741D01*
X0101599Y0177741D02*
X0097599Y0177741D01*
X0099599Y0177788D02*
X0099599Y0167241D01*
X0084099Y0167241D02*
X0084099Y0177788D01*
X0082599Y0177741D02*
X0085599Y0177741D01*
X0070099Y0177741D02*
X0066599Y0177741D01*
X0068599Y0177788D02*
X0068599Y0167241D01*
X0053513Y0167304D02*
X0053513Y0204115D01*
X0130186Y0204115D01*
X0130186Y0167304D01*
X0130099Y0177741D02*
X0129099Y0177741D01*
X0130099Y0177741D02*
X0053599Y0177741D01*
X0054099Y0177741D01*
X0022300Y0191800D02*
X0019300Y0191800D01*
X0019300Y0185800D01*
X0019300Y0191800D02*
X0016300Y0191800D01*
X0016300Y0211800D01*
X0019300Y0211800D01*
X0019300Y0217800D01*
X0019300Y0211800D02*
X0022300Y0211800D01*
X0022300Y0191800D01*
X0053513Y0203328D02*
X0053513Y0211202D01*
X0053599Y0211202D02*
X0130099Y0211202D01*
X0130186Y0211202D02*
X0130186Y0203328D01*
X0129005Y0220265D02*
X0129005Y0245855D01*
X0084910Y0245855D01*
X0084910Y0249792D01*
X0129005Y0249792D01*
X0129005Y0245855D01*
X0129005Y0246052D02*
X0131367Y0246052D01*
X0131367Y0242115D01*
X0129005Y0242115D01*
X0129005Y0220265D02*
X0084910Y0220265D01*
X0084910Y0245855D01*
X0089005Y0245855D02*
X0044910Y0245855D01*
X0044910Y0249792D01*
X0089005Y0249792D01*
X0089005Y0245855D01*
X0089005Y0220265D01*
X0044910Y0220265D01*
X0044910Y0245855D01*
X0044910Y0224989D02*
X0042548Y0224989D01*
X0042548Y0221052D01*
X0044910Y0221052D01*
X0082548Y0221052D02*
X0082548Y0224989D01*
X0084910Y0224989D01*
X0084910Y0221052D02*
X0082548Y0221052D01*
X0089005Y0242115D02*
X0091367Y0242115D01*
X0091367Y0246052D01*
X0089005Y0246052D01*
D17*
X0159500Y0186604D02*
X0161035Y0185069D01*
X0162569Y0186604D01*
X0162569Y0182000D01*
X0164104Y0182767D02*
X0164104Y0184302D01*
X0164871Y0185069D01*
X0166406Y0185069D01*
X0167173Y0184302D01*
X0167173Y0182767D01*
X0166406Y0182000D01*
X0164871Y0182000D01*
X0164104Y0182767D01*
X0164104Y0179104D02*
X0166406Y0179104D01*
X0167173Y0178337D01*
X0167173Y0176802D01*
X0166406Y0176035D01*
X0164104Y0176035D01*
X0165639Y0176035D02*
X0167173Y0174500D01*
X0168708Y0175267D02*
X0169475Y0176035D01*
X0171777Y0176035D01*
X0171777Y0176802D02*
X0171777Y0174500D01*
X0169475Y0174500D01*
X0168708Y0175267D01*
X0169475Y0177569D02*
X0171010Y0177569D01*
X0171777Y0176802D01*
X0173312Y0177569D02*
X0174079Y0177569D01*
X0174079Y0174500D01*
X0173312Y0174500D02*
X0174846Y0174500D01*
X0176381Y0174500D02*
X0177916Y0174500D01*
X0177148Y0174500D02*
X0177148Y0179104D01*
X0176381Y0179104D01*
X0174079Y0179104D02*
X0174079Y0179871D01*
X0174079Y0182000D02*
X0173312Y0182767D01*
X0173312Y0184302D01*
X0174079Y0185069D01*
X0175614Y0185069D01*
X0176381Y0184302D01*
X0176381Y0183535D01*
X0173312Y0183535D01*
X0174079Y0182000D02*
X0175614Y0182000D01*
X0177916Y0182000D02*
X0179450Y0182000D01*
X0178683Y0182000D02*
X0178683Y0186604D01*
X0177916Y0186604D01*
X0171777Y0186604D02*
X0171777Y0182000D01*
X0169475Y0182000D01*
X0168708Y0182767D01*
X0168708Y0184302D01*
X0169475Y0185069D01*
X0171777Y0185069D01*
X0164104Y0179104D02*
X0164104Y0174500D01*
X0168708Y0170837D02*
X0168708Y0167767D01*
X0169475Y0167000D01*
X0171010Y0167000D01*
X0171777Y0167767D01*
X0173312Y0167767D02*
X0174079Y0167000D01*
X0175614Y0167000D01*
X0176381Y0167767D01*
X0176381Y0169302D01*
X0175614Y0170069D01*
X0174079Y0170069D01*
X0173312Y0169302D01*
X0173312Y0167767D01*
X0171777Y0170837D02*
X0171010Y0171604D01*
X0169475Y0171604D01*
X0168708Y0170837D01*
X0177916Y0170069D02*
X0177916Y0167000D01*
X0180985Y0167000D02*
X0180985Y0169302D01*
X0180218Y0170069D01*
X0177916Y0170069D01*
X0182520Y0170069D02*
X0184054Y0170069D01*
X0183287Y0170837D02*
X0183287Y0167767D01*
X0184054Y0167000D01*
X0185589Y0167000D02*
X0185589Y0170069D01*
X0185589Y0168535D02*
X0187124Y0170069D01*
X0187891Y0170069D01*
X0189426Y0169302D02*
X0189426Y0167767D01*
X0190193Y0167000D01*
X0191727Y0167000D01*
X0192495Y0167767D01*
X0192495Y0169302D01*
X0191727Y0170069D01*
X0190193Y0170069D01*
X0189426Y0169302D01*
X0194029Y0171604D02*
X0194797Y0171604D01*
X0194797Y0167000D01*
X0195564Y0167000D02*
X0194029Y0167000D01*
X0194797Y0162569D02*
X0195564Y0162569D01*
X0196331Y0161802D01*
X0197099Y0162569D01*
X0197866Y0161802D01*
X0197866Y0159500D01*
X0196331Y0159500D02*
X0196331Y0161802D01*
X0194797Y0162569D02*
X0194797Y0159500D01*
X0193262Y0161035D02*
X0190193Y0161035D01*
X0190193Y0161802D02*
X0190960Y0162569D01*
X0192495Y0162569D01*
X0193262Y0161802D01*
X0193262Y0161035D01*
X0192495Y0159500D02*
X0190960Y0159500D01*
X0190193Y0160267D01*
X0190193Y0161802D01*
X0188658Y0162569D02*
X0187124Y0162569D01*
X0187891Y0163337D02*
X0187891Y0160267D01*
X0188658Y0159500D01*
X0185589Y0160267D02*
X0184822Y0161035D01*
X0183287Y0161035D01*
X0182520Y0161802D01*
X0183287Y0162569D01*
X0185589Y0162569D01*
X0185589Y0160267D02*
X0184822Y0159500D01*
X0182520Y0159500D01*
X0180985Y0159500D02*
X0178683Y0159500D01*
X0177916Y0160267D01*
X0177916Y0162569D01*
X0176381Y0163337D02*
X0175614Y0164104D01*
X0174079Y0164104D01*
X0173312Y0163337D01*
X0173312Y0162569D01*
X0174079Y0161802D01*
X0175614Y0161802D01*
X0176381Y0161035D01*
X0176381Y0160267D01*
X0175614Y0159500D01*
X0174079Y0159500D01*
X0173312Y0160267D01*
X0179450Y0157965D02*
X0180218Y0157965D01*
X0180985Y0158733D01*
X0180985Y0162569D01*
X0179450Y0174500D02*
X0179450Y0177569D01*
X0179450Y0176035D02*
X0180985Y0177569D01*
X0181752Y0177569D01*
X0183287Y0176802D02*
X0183287Y0175267D01*
X0184054Y0174500D01*
X0185589Y0174500D01*
X0186356Y0175267D01*
X0186356Y0176802D01*
X0185589Y0177569D01*
X0184054Y0177569D01*
X0183287Y0176802D01*
X0187891Y0175267D02*
X0188658Y0176035D01*
X0190960Y0176035D01*
X0190960Y0176802D02*
X0190960Y0174500D01*
X0188658Y0174500D01*
X0187891Y0175267D01*
X0188658Y0177569D02*
X0190193Y0177569D01*
X0190960Y0176802D01*
X0192495Y0176802D02*
X0192495Y0175267D01*
X0193262Y0174500D01*
X0195564Y0174500D01*
X0195564Y0179104D01*
X0195564Y0177569D02*
X0193262Y0177569D01*
X0192495Y0176802D01*
X0200168Y0162569D02*
X0202470Y0162569D01*
X0201703Y0161035D02*
X0200168Y0161035D01*
X0199401Y0161802D01*
X0200168Y0162569D01*
X0201703Y0161035D02*
X0202470Y0160267D01*
X0201703Y0159500D01*
X0199401Y0159500D01*
X0232472Y0167267D02*
X0233240Y0166500D01*
X0236309Y0166500D01*
X0237076Y0167267D01*
X0237076Y0168802D01*
X0236309Y0169569D01*
X0233240Y0169569D01*
X0232472Y0168802D01*
X0232472Y0167267D01*
X0232472Y0171104D02*
X0232472Y0173406D01*
X0233240Y0174173D01*
X0236309Y0174173D01*
X0237076Y0173406D01*
X0237076Y0171104D01*
X0232472Y0171104D01*
X0234007Y0175708D02*
X0232472Y0177242D01*
X0237076Y0177242D01*
X0237076Y0175708D02*
X0237076Y0178777D01*
X0302000Y0216767D02*
X0302767Y0216000D01*
X0304302Y0216000D01*
X0305069Y0216767D01*
X0305069Y0219837D01*
X0304302Y0220604D01*
X0302767Y0220604D01*
X0302000Y0219837D01*
X0302000Y0216767D01*
X0306604Y0216767D02*
X0306604Y0219069D01*
X0306604Y0216767D02*
X0307371Y0216000D01*
X0309673Y0216000D01*
X0309673Y0219069D01*
X0311208Y0219069D02*
X0312742Y0219069D01*
X0311975Y0219837D02*
X0311975Y0216767D01*
X0312742Y0216000D01*
X0314277Y0216000D02*
X0316579Y0216000D01*
X0317346Y0216767D01*
X0317346Y0218302D01*
X0316579Y0219069D01*
X0314277Y0219069D01*
X0314277Y0214465D01*
X0318881Y0216767D02*
X0319648Y0216000D01*
X0321950Y0216000D01*
X0321950Y0219069D01*
X0323485Y0219069D02*
X0325020Y0219069D01*
X0324252Y0219837D02*
X0324252Y0216767D01*
X0325020Y0216000D01*
X0318881Y0216767D02*
X0318881Y0219069D01*
X0367000Y0230767D02*
X0367767Y0230000D01*
X0369302Y0230000D01*
X0370069Y0230767D01*
X0371604Y0230767D02*
X0372371Y0230000D01*
X0373906Y0230000D01*
X0374673Y0230767D01*
X0374673Y0233837D01*
X0373906Y0234604D01*
X0372371Y0234604D01*
X0371604Y0233837D01*
X0371604Y0230767D01*
X0370069Y0233837D02*
X0369302Y0234604D01*
X0367767Y0234604D01*
X0367000Y0233837D01*
X0367000Y0230767D01*
X0376208Y0230000D02*
X0376208Y0234604D01*
X0379277Y0230000D01*
X0379277Y0234604D01*
X0380812Y0233069D02*
X0382346Y0234604D01*
X0382346Y0230000D01*
X0380812Y0230000D02*
X0383881Y0230000D01*
X0159500Y0186604D02*
X0159500Y0182000D01*
X0040576Y0180510D02*
X0040576Y0178975D01*
X0039809Y0178208D01*
X0039809Y0176673D02*
X0036740Y0176673D01*
X0035972Y0175906D01*
X0035972Y0173604D01*
X0040576Y0173604D01*
X0040576Y0175906D01*
X0039809Y0176673D01*
X0036740Y0178208D02*
X0035972Y0178975D01*
X0035972Y0180510D01*
X0036740Y0181277D01*
X0037507Y0181277D01*
X0038274Y0180510D01*
X0039042Y0181277D01*
X0039809Y0181277D01*
X0040576Y0180510D01*
X0038274Y0180510D02*
X0038274Y0179742D01*
X0036740Y0172069D02*
X0035972Y0171302D01*
X0035972Y0169767D01*
X0036740Y0169000D01*
X0039809Y0169000D01*
X0040576Y0169767D01*
X0040576Y0171302D01*
X0039809Y0172069D01*
X0036740Y0172069D01*
X0040774Y0066777D02*
X0040774Y0063708D01*
X0038472Y0066010D01*
X0043076Y0066010D01*
X0042309Y0062173D02*
X0039240Y0062173D01*
X0038472Y0061406D01*
X0038472Y0059104D01*
X0043076Y0059104D01*
X0043076Y0061406D01*
X0042309Y0062173D01*
X0042309Y0057569D02*
X0039240Y0057569D01*
X0038472Y0056802D01*
X0038472Y0055267D01*
X0039240Y0054500D01*
X0042309Y0054500D01*
X0043076Y0055267D01*
X0043076Y0056802D01*
X0042309Y0057569D01*
X0234972Y0057767D02*
X0235740Y0057000D01*
X0238809Y0057000D01*
X0239576Y0057767D01*
X0239576Y0059302D01*
X0238809Y0060069D01*
X0235740Y0060069D01*
X0234972Y0059302D01*
X0234972Y0057767D01*
X0234972Y0061604D02*
X0234972Y0063906D01*
X0235740Y0064673D01*
X0238809Y0064673D01*
X0239576Y0063906D01*
X0239576Y0061604D01*
X0234972Y0061604D01*
X0235740Y0066208D02*
X0234972Y0066975D01*
X0234972Y0068510D01*
X0235740Y0069277D01*
X0236507Y0069277D01*
X0239576Y0066208D01*
X0239576Y0069277D01*
D18*
X0056601Y0122100D02*
X0056351Y0121850D01*
X0055850Y0121850D01*
X0055600Y0122100D01*
X0056601Y0123101D01*
X0056601Y0122100D01*
X0055600Y0122100D02*
X0055600Y0123101D01*
X0055850Y0123351D01*
X0056351Y0123351D01*
X0056601Y0123101D01*
X0043074Y0123101D02*
X0042824Y0123351D01*
X0042323Y0123351D01*
X0042073Y0123101D01*
X0041601Y0123101D02*
X0041601Y0122601D01*
X0041351Y0122350D01*
X0040600Y0122350D01*
X0040600Y0121850D02*
X0040600Y0123351D01*
X0041351Y0123351D01*
X0041601Y0123101D01*
X0041100Y0122350D02*
X0041601Y0121850D01*
X0042073Y0121850D02*
X0043074Y0122851D01*
X0043074Y0123101D01*
X0043074Y0121850D02*
X0042073Y0121850D01*
X0025850Y0208903D02*
X0024349Y0208903D01*
X0024349Y0209654D01*
X0024599Y0209904D01*
X0025099Y0209904D01*
X0025350Y0209654D01*
X0025350Y0208903D01*
X0025350Y0209404D02*
X0025850Y0209904D01*
X0025850Y0210377D02*
X0025850Y0211378D01*
X0025850Y0210877D02*
X0024349Y0210877D01*
X0024849Y0210377D01*
X0073010Y0225500D02*
X0073261Y0225250D01*
X0073761Y0225250D01*
X0074011Y0225500D01*
X0074011Y0225750D01*
X0073761Y0226001D01*
X0073261Y0226001D01*
X0073010Y0226251D01*
X0073010Y0226501D01*
X0073261Y0226751D01*
X0073761Y0226751D01*
X0074011Y0226501D01*
X0074484Y0226751D02*
X0074484Y0225250D01*
X0075485Y0225250D01*
X0075957Y0225500D02*
X0076207Y0225250D01*
X0076708Y0225250D01*
X0076958Y0225500D01*
X0075957Y0225500D02*
X0075957Y0226501D01*
X0076207Y0226751D01*
X0076708Y0226751D01*
X0076958Y0226501D01*
X0077430Y0226751D02*
X0078431Y0226751D01*
X0077931Y0226751D02*
X0077931Y0225250D01*
X0078903Y0226001D02*
X0079904Y0226001D01*
X0080377Y0226001D02*
X0081127Y0226001D01*
X0081378Y0225750D01*
X0081378Y0225500D01*
X0081127Y0225250D01*
X0080377Y0225250D01*
X0080377Y0226751D01*
X0081127Y0226751D01*
X0081378Y0226501D01*
X0081378Y0226251D01*
X0081127Y0226001D01*
X0081378Y0230250D02*
X0081378Y0231751D01*
X0080877Y0231251D01*
X0080377Y0231751D01*
X0080377Y0230250D01*
X0079904Y0230250D02*
X0079904Y0231751D01*
X0079404Y0231251D01*
X0078903Y0231751D01*
X0078903Y0230250D01*
X0078431Y0230500D02*
X0078181Y0230250D01*
X0077680Y0230250D01*
X0077430Y0230500D01*
X0077430Y0231001D02*
X0077931Y0231251D01*
X0078181Y0231251D01*
X0078431Y0231001D01*
X0078431Y0230500D01*
X0077430Y0231001D02*
X0077430Y0231751D01*
X0078431Y0231751D01*
X0076958Y0231501D02*
X0076708Y0231751D01*
X0076207Y0231751D01*
X0075957Y0231501D01*
X0075485Y0231501D02*
X0074484Y0230500D01*
X0074734Y0230250D01*
X0075234Y0230250D01*
X0075485Y0230500D01*
X0075485Y0231501D01*
X0075234Y0231751D01*
X0074734Y0231751D01*
X0074484Y0231501D01*
X0074484Y0230500D01*
X0074011Y0230250D02*
X0074011Y0231751D01*
X0073511Y0231251D01*
X0073010Y0231751D01*
X0073010Y0230250D01*
X0075957Y0230250D02*
X0076958Y0231251D01*
X0076958Y0231501D01*
X0076958Y0230250D02*
X0075957Y0230250D01*
X0075485Y0226751D02*
X0074484Y0226751D01*
X0074484Y0226001D02*
X0074984Y0226001D01*
X0113010Y0226251D02*
X0113261Y0226001D01*
X0113761Y0226001D01*
X0114011Y0225750D01*
X0114011Y0225500D01*
X0113761Y0225250D01*
X0113261Y0225250D01*
X0113010Y0225500D01*
X0113010Y0226251D02*
X0113010Y0226501D01*
X0113261Y0226751D01*
X0113761Y0226751D01*
X0114011Y0226501D01*
X0114484Y0226751D02*
X0114484Y0225250D01*
X0115485Y0225250D01*
X0115957Y0225500D02*
X0116207Y0225250D01*
X0116708Y0225250D01*
X0116958Y0225500D01*
X0115957Y0225500D02*
X0115957Y0226501D01*
X0116207Y0226751D01*
X0116708Y0226751D01*
X0116958Y0226501D01*
X0117430Y0226751D02*
X0118431Y0226751D01*
X0117931Y0226751D02*
X0117931Y0225250D01*
X0118903Y0226001D02*
X0119904Y0226001D01*
X0120377Y0226001D02*
X0121378Y0226001D01*
X0121378Y0226251D02*
X0121378Y0225250D01*
X0121378Y0226251D02*
X0120877Y0226751D01*
X0120377Y0226251D01*
X0120377Y0225250D01*
X0120377Y0230250D02*
X0120377Y0231751D01*
X0120877Y0231251D01*
X0121378Y0231751D01*
X0121378Y0230250D01*
X0119904Y0230250D02*
X0119904Y0231751D01*
X0119404Y0231251D01*
X0118903Y0231751D01*
X0118903Y0230250D01*
X0118431Y0230500D02*
X0118181Y0230250D01*
X0117680Y0230250D01*
X0117430Y0230500D01*
X0117430Y0231001D02*
X0117931Y0231251D01*
X0118181Y0231251D01*
X0118431Y0231001D01*
X0118431Y0230500D01*
X0117430Y0231001D02*
X0117430Y0231751D01*
X0118431Y0231751D01*
X0116958Y0231501D02*
X0116708Y0231751D01*
X0116207Y0231751D01*
X0115957Y0231501D01*
X0115485Y0231501D02*
X0114484Y0230500D01*
X0114734Y0230250D01*
X0115234Y0230250D01*
X0115485Y0230500D01*
X0115485Y0231501D01*
X0115234Y0231751D01*
X0114734Y0231751D01*
X0114484Y0231501D01*
X0114484Y0230500D01*
X0114011Y0230250D02*
X0114011Y0231751D01*
X0113511Y0231251D01*
X0113010Y0231751D01*
X0113010Y0230250D01*
X0115957Y0230250D02*
X0116958Y0231251D01*
X0116958Y0231501D01*
X0116958Y0230250D02*
X0115957Y0230250D01*
X0115485Y0226751D02*
X0114484Y0226751D01*
X0114484Y0226001D02*
X0114984Y0226001D01*
D19*
X0306800Y0231300D03*
X0316800Y0231300D03*
X0326800Y0231300D03*
X0336800Y0231300D03*
X0346800Y0231300D03*
X0356800Y0231300D03*
D20*
X0265736Y0226036D02*
X0265118Y0226653D01*
X0263884Y0226653D01*
X0263267Y0226036D01*
X0262052Y0224802D02*
X0259584Y0224802D01*
X0258369Y0222950D02*
X0255901Y0222950D01*
X0257135Y0222950D02*
X0257135Y0226653D01*
X0255901Y0225419D01*
X0254686Y0226653D02*
X0252217Y0226653D01*
X0251003Y0226653D02*
X0251003Y0223567D01*
X0250386Y0222950D01*
X0249151Y0222950D01*
X0248534Y0223567D01*
X0248534Y0226653D01*
X0247320Y0226036D02*
X0246703Y0226653D01*
X0245468Y0226653D01*
X0244851Y0226036D01*
X0244851Y0223567D01*
X0245468Y0222950D01*
X0246703Y0222950D01*
X0247320Y0223567D01*
X0247320Y0226036D01*
X0243637Y0226036D02*
X0243020Y0226653D01*
X0241785Y0226653D01*
X0241168Y0226036D01*
X0241168Y0223567D01*
X0241785Y0222950D01*
X0243020Y0222950D01*
X0243637Y0223567D01*
X0239954Y0223567D02*
X0239336Y0222950D01*
X0238102Y0222950D01*
X0237485Y0223567D01*
X0237485Y0226036D01*
X0238102Y0226653D01*
X0239336Y0226653D01*
X0239954Y0226036D01*
X0236270Y0226036D02*
X0236270Y0223567D01*
X0235653Y0222950D01*
X0233802Y0222950D01*
X0233802Y0226653D01*
X0235653Y0226653D01*
X0236270Y0226036D01*
X0225736Y0224802D02*
X0223267Y0224802D01*
X0225118Y0226653D01*
X0225118Y0222950D01*
X0222052Y0224802D02*
X0219584Y0224802D01*
X0218369Y0225419D02*
X0217752Y0224802D01*
X0218369Y0224184D01*
X0218369Y0223567D01*
X0217752Y0222950D01*
X0216518Y0222950D01*
X0215901Y0223567D01*
X0217135Y0224802D02*
X0217752Y0224802D01*
X0218369Y0225419D02*
X0218369Y0226036D01*
X0217752Y0226653D01*
X0216518Y0226653D01*
X0215901Y0226036D01*
X0214686Y0226653D02*
X0212217Y0226653D01*
X0211003Y0226653D02*
X0211003Y0223567D01*
X0210386Y0222950D01*
X0209151Y0222950D01*
X0208534Y0223567D01*
X0208534Y0226653D01*
X0207320Y0226036D02*
X0206703Y0226653D01*
X0205468Y0226653D01*
X0204851Y0226036D01*
X0204851Y0223567D01*
X0205468Y0222950D01*
X0206703Y0222950D01*
X0207320Y0223567D01*
X0207320Y0226036D01*
X0203637Y0226036D02*
X0203020Y0226653D01*
X0201785Y0226653D01*
X0201168Y0226036D01*
X0201168Y0223567D01*
X0201785Y0222950D01*
X0203020Y0222950D01*
X0203637Y0223567D01*
X0199954Y0223567D02*
X0199336Y0222950D01*
X0198102Y0222950D01*
X0197485Y0223567D01*
X0197485Y0226036D01*
X0198102Y0226653D01*
X0199336Y0226653D01*
X0199954Y0226036D01*
X0196270Y0226036D02*
X0196270Y0223567D01*
X0195653Y0222950D01*
X0193802Y0222950D01*
X0193802Y0226653D01*
X0195653Y0226653D01*
X0196270Y0226036D01*
X0213452Y0226653D02*
X0213452Y0222950D01*
X0253452Y0222950D02*
X0253452Y0226653D01*
X0263267Y0222950D02*
X0265736Y0225419D01*
X0265736Y0226036D01*
X0265736Y0222950D02*
X0263267Y0222950D01*
D21*
X0146800Y0146800D02*
X0146800Y0126800D01*
X0156800Y0126800D02*
X0136800Y0126800D01*
D22*
X0146800Y0146800D02*
X0146800Y0166800D01*
X0156800Y0166800D01*
X0146800Y0166800D02*
X0146800Y0186800D01*
X0156800Y0176800D01*
M02*
