G75*
%MOIN*%
%OFA0B0*%
%FSLAX25Y25*%
%IPPOS*%
%LPD*%
%AMOC8*
5,1,8,0,0,1.08239X$1,22.5*
%
%ADD10C,0.00000*%
%ADD11C,0.00800*%
%ADD12C,0.01200*%
%ADD13C,0.00500*%
%ADD14C,0.00300*%
%ADD15C,0.00200*%
D10*
X0001800Y0001800D02*
X0001800Y0273454D01*
X0395501Y0273454D01*
X0395501Y0001800D01*
X0001800Y0001800D01*
X0013001Y0019300D02*
X0013003Y0019458D01*
X0013009Y0019616D01*
X0013019Y0019774D01*
X0013033Y0019932D01*
X0013051Y0020089D01*
X0013072Y0020246D01*
X0013098Y0020402D01*
X0013128Y0020558D01*
X0013161Y0020713D01*
X0013199Y0020866D01*
X0013240Y0021019D01*
X0013285Y0021171D01*
X0013334Y0021322D01*
X0013387Y0021471D01*
X0013443Y0021619D01*
X0013503Y0021765D01*
X0013567Y0021910D01*
X0013635Y0022053D01*
X0013706Y0022195D01*
X0013780Y0022335D01*
X0013858Y0022472D01*
X0013940Y0022608D01*
X0014024Y0022742D01*
X0014113Y0022873D01*
X0014204Y0023002D01*
X0014299Y0023129D01*
X0014396Y0023254D01*
X0014497Y0023376D01*
X0014601Y0023495D01*
X0014708Y0023612D01*
X0014818Y0023726D01*
X0014931Y0023837D01*
X0015046Y0023946D01*
X0015164Y0024051D01*
X0015285Y0024153D01*
X0015408Y0024253D01*
X0015534Y0024349D01*
X0015662Y0024442D01*
X0015792Y0024532D01*
X0015925Y0024618D01*
X0016060Y0024702D01*
X0016196Y0024781D01*
X0016335Y0024858D01*
X0016476Y0024930D01*
X0016618Y0025000D01*
X0016762Y0025065D01*
X0016908Y0025127D01*
X0017055Y0025185D01*
X0017204Y0025240D01*
X0017354Y0025291D01*
X0017505Y0025338D01*
X0017657Y0025381D01*
X0017810Y0025420D01*
X0017965Y0025456D01*
X0018120Y0025487D01*
X0018276Y0025515D01*
X0018432Y0025539D01*
X0018589Y0025559D01*
X0018747Y0025575D01*
X0018904Y0025587D01*
X0019063Y0025595D01*
X0019221Y0025599D01*
X0019379Y0025599D01*
X0019537Y0025595D01*
X0019696Y0025587D01*
X0019853Y0025575D01*
X0020011Y0025559D01*
X0020168Y0025539D01*
X0020324Y0025515D01*
X0020480Y0025487D01*
X0020635Y0025456D01*
X0020790Y0025420D01*
X0020943Y0025381D01*
X0021095Y0025338D01*
X0021246Y0025291D01*
X0021396Y0025240D01*
X0021545Y0025185D01*
X0021692Y0025127D01*
X0021838Y0025065D01*
X0021982Y0025000D01*
X0022124Y0024930D01*
X0022265Y0024858D01*
X0022404Y0024781D01*
X0022540Y0024702D01*
X0022675Y0024618D01*
X0022808Y0024532D01*
X0022938Y0024442D01*
X0023066Y0024349D01*
X0023192Y0024253D01*
X0023315Y0024153D01*
X0023436Y0024051D01*
X0023554Y0023946D01*
X0023669Y0023837D01*
X0023782Y0023726D01*
X0023892Y0023612D01*
X0023999Y0023495D01*
X0024103Y0023376D01*
X0024204Y0023254D01*
X0024301Y0023129D01*
X0024396Y0023002D01*
X0024487Y0022873D01*
X0024576Y0022742D01*
X0024660Y0022608D01*
X0024742Y0022472D01*
X0024820Y0022335D01*
X0024894Y0022195D01*
X0024965Y0022053D01*
X0025033Y0021910D01*
X0025097Y0021765D01*
X0025157Y0021619D01*
X0025213Y0021471D01*
X0025266Y0021322D01*
X0025315Y0021171D01*
X0025360Y0021019D01*
X0025401Y0020866D01*
X0025439Y0020713D01*
X0025472Y0020558D01*
X0025502Y0020402D01*
X0025528Y0020246D01*
X0025549Y0020089D01*
X0025567Y0019932D01*
X0025581Y0019774D01*
X0025591Y0019616D01*
X0025597Y0019458D01*
X0025599Y0019300D01*
X0025597Y0019142D01*
X0025591Y0018984D01*
X0025581Y0018826D01*
X0025567Y0018668D01*
X0025549Y0018511D01*
X0025528Y0018354D01*
X0025502Y0018198D01*
X0025472Y0018042D01*
X0025439Y0017887D01*
X0025401Y0017734D01*
X0025360Y0017581D01*
X0025315Y0017429D01*
X0025266Y0017278D01*
X0025213Y0017129D01*
X0025157Y0016981D01*
X0025097Y0016835D01*
X0025033Y0016690D01*
X0024965Y0016547D01*
X0024894Y0016405D01*
X0024820Y0016265D01*
X0024742Y0016128D01*
X0024660Y0015992D01*
X0024576Y0015858D01*
X0024487Y0015727D01*
X0024396Y0015598D01*
X0024301Y0015471D01*
X0024204Y0015346D01*
X0024103Y0015224D01*
X0023999Y0015105D01*
X0023892Y0014988D01*
X0023782Y0014874D01*
X0023669Y0014763D01*
X0023554Y0014654D01*
X0023436Y0014549D01*
X0023315Y0014447D01*
X0023192Y0014347D01*
X0023066Y0014251D01*
X0022938Y0014158D01*
X0022808Y0014068D01*
X0022675Y0013982D01*
X0022540Y0013898D01*
X0022404Y0013819D01*
X0022265Y0013742D01*
X0022124Y0013670D01*
X0021982Y0013600D01*
X0021838Y0013535D01*
X0021692Y0013473D01*
X0021545Y0013415D01*
X0021396Y0013360D01*
X0021246Y0013309D01*
X0021095Y0013262D01*
X0020943Y0013219D01*
X0020790Y0013180D01*
X0020635Y0013144D01*
X0020480Y0013113D01*
X0020324Y0013085D01*
X0020168Y0013061D01*
X0020011Y0013041D01*
X0019853Y0013025D01*
X0019696Y0013013D01*
X0019537Y0013005D01*
X0019379Y0013001D01*
X0019221Y0013001D01*
X0019063Y0013005D01*
X0018904Y0013013D01*
X0018747Y0013025D01*
X0018589Y0013041D01*
X0018432Y0013061D01*
X0018276Y0013085D01*
X0018120Y0013113D01*
X0017965Y0013144D01*
X0017810Y0013180D01*
X0017657Y0013219D01*
X0017505Y0013262D01*
X0017354Y0013309D01*
X0017204Y0013360D01*
X0017055Y0013415D01*
X0016908Y0013473D01*
X0016762Y0013535D01*
X0016618Y0013600D01*
X0016476Y0013670D01*
X0016335Y0013742D01*
X0016196Y0013819D01*
X0016060Y0013898D01*
X0015925Y0013982D01*
X0015792Y0014068D01*
X0015662Y0014158D01*
X0015534Y0014251D01*
X0015408Y0014347D01*
X0015285Y0014447D01*
X0015164Y0014549D01*
X0015046Y0014654D01*
X0014931Y0014763D01*
X0014818Y0014874D01*
X0014708Y0014988D01*
X0014601Y0015105D01*
X0014497Y0015224D01*
X0014396Y0015346D01*
X0014299Y0015471D01*
X0014204Y0015598D01*
X0014113Y0015727D01*
X0014024Y0015858D01*
X0013940Y0015992D01*
X0013858Y0016128D01*
X0013780Y0016265D01*
X0013706Y0016405D01*
X0013635Y0016547D01*
X0013567Y0016690D01*
X0013503Y0016835D01*
X0013443Y0016981D01*
X0013387Y0017129D01*
X0013334Y0017278D01*
X0013285Y0017429D01*
X0013240Y0017581D01*
X0013199Y0017734D01*
X0013161Y0017887D01*
X0013128Y0018042D01*
X0013098Y0018198D01*
X0013072Y0018354D01*
X0013051Y0018511D01*
X0013033Y0018668D01*
X0013019Y0018826D01*
X0013009Y0018984D01*
X0013003Y0019142D01*
X0013001Y0019300D01*
X0010501Y0254300D02*
X0010503Y0254458D01*
X0010509Y0254616D01*
X0010519Y0254774D01*
X0010533Y0254932D01*
X0010551Y0255089D01*
X0010572Y0255246D01*
X0010598Y0255402D01*
X0010628Y0255558D01*
X0010661Y0255713D01*
X0010699Y0255866D01*
X0010740Y0256019D01*
X0010785Y0256171D01*
X0010834Y0256322D01*
X0010887Y0256471D01*
X0010943Y0256619D01*
X0011003Y0256765D01*
X0011067Y0256910D01*
X0011135Y0257053D01*
X0011206Y0257195D01*
X0011280Y0257335D01*
X0011358Y0257472D01*
X0011440Y0257608D01*
X0011524Y0257742D01*
X0011613Y0257873D01*
X0011704Y0258002D01*
X0011799Y0258129D01*
X0011896Y0258254D01*
X0011997Y0258376D01*
X0012101Y0258495D01*
X0012208Y0258612D01*
X0012318Y0258726D01*
X0012431Y0258837D01*
X0012546Y0258946D01*
X0012664Y0259051D01*
X0012785Y0259153D01*
X0012908Y0259253D01*
X0013034Y0259349D01*
X0013162Y0259442D01*
X0013292Y0259532D01*
X0013425Y0259618D01*
X0013560Y0259702D01*
X0013696Y0259781D01*
X0013835Y0259858D01*
X0013976Y0259930D01*
X0014118Y0260000D01*
X0014262Y0260065D01*
X0014408Y0260127D01*
X0014555Y0260185D01*
X0014704Y0260240D01*
X0014854Y0260291D01*
X0015005Y0260338D01*
X0015157Y0260381D01*
X0015310Y0260420D01*
X0015465Y0260456D01*
X0015620Y0260487D01*
X0015776Y0260515D01*
X0015932Y0260539D01*
X0016089Y0260559D01*
X0016247Y0260575D01*
X0016404Y0260587D01*
X0016563Y0260595D01*
X0016721Y0260599D01*
X0016879Y0260599D01*
X0017037Y0260595D01*
X0017196Y0260587D01*
X0017353Y0260575D01*
X0017511Y0260559D01*
X0017668Y0260539D01*
X0017824Y0260515D01*
X0017980Y0260487D01*
X0018135Y0260456D01*
X0018290Y0260420D01*
X0018443Y0260381D01*
X0018595Y0260338D01*
X0018746Y0260291D01*
X0018896Y0260240D01*
X0019045Y0260185D01*
X0019192Y0260127D01*
X0019338Y0260065D01*
X0019482Y0260000D01*
X0019624Y0259930D01*
X0019765Y0259858D01*
X0019904Y0259781D01*
X0020040Y0259702D01*
X0020175Y0259618D01*
X0020308Y0259532D01*
X0020438Y0259442D01*
X0020566Y0259349D01*
X0020692Y0259253D01*
X0020815Y0259153D01*
X0020936Y0259051D01*
X0021054Y0258946D01*
X0021169Y0258837D01*
X0021282Y0258726D01*
X0021392Y0258612D01*
X0021499Y0258495D01*
X0021603Y0258376D01*
X0021704Y0258254D01*
X0021801Y0258129D01*
X0021896Y0258002D01*
X0021987Y0257873D01*
X0022076Y0257742D01*
X0022160Y0257608D01*
X0022242Y0257472D01*
X0022320Y0257335D01*
X0022394Y0257195D01*
X0022465Y0257053D01*
X0022533Y0256910D01*
X0022597Y0256765D01*
X0022657Y0256619D01*
X0022713Y0256471D01*
X0022766Y0256322D01*
X0022815Y0256171D01*
X0022860Y0256019D01*
X0022901Y0255866D01*
X0022939Y0255713D01*
X0022972Y0255558D01*
X0023002Y0255402D01*
X0023028Y0255246D01*
X0023049Y0255089D01*
X0023067Y0254932D01*
X0023081Y0254774D01*
X0023091Y0254616D01*
X0023097Y0254458D01*
X0023099Y0254300D01*
X0023097Y0254142D01*
X0023091Y0253984D01*
X0023081Y0253826D01*
X0023067Y0253668D01*
X0023049Y0253511D01*
X0023028Y0253354D01*
X0023002Y0253198D01*
X0022972Y0253042D01*
X0022939Y0252887D01*
X0022901Y0252734D01*
X0022860Y0252581D01*
X0022815Y0252429D01*
X0022766Y0252278D01*
X0022713Y0252129D01*
X0022657Y0251981D01*
X0022597Y0251835D01*
X0022533Y0251690D01*
X0022465Y0251547D01*
X0022394Y0251405D01*
X0022320Y0251265D01*
X0022242Y0251128D01*
X0022160Y0250992D01*
X0022076Y0250858D01*
X0021987Y0250727D01*
X0021896Y0250598D01*
X0021801Y0250471D01*
X0021704Y0250346D01*
X0021603Y0250224D01*
X0021499Y0250105D01*
X0021392Y0249988D01*
X0021282Y0249874D01*
X0021169Y0249763D01*
X0021054Y0249654D01*
X0020936Y0249549D01*
X0020815Y0249447D01*
X0020692Y0249347D01*
X0020566Y0249251D01*
X0020438Y0249158D01*
X0020308Y0249068D01*
X0020175Y0248982D01*
X0020040Y0248898D01*
X0019904Y0248819D01*
X0019765Y0248742D01*
X0019624Y0248670D01*
X0019482Y0248600D01*
X0019338Y0248535D01*
X0019192Y0248473D01*
X0019045Y0248415D01*
X0018896Y0248360D01*
X0018746Y0248309D01*
X0018595Y0248262D01*
X0018443Y0248219D01*
X0018290Y0248180D01*
X0018135Y0248144D01*
X0017980Y0248113D01*
X0017824Y0248085D01*
X0017668Y0248061D01*
X0017511Y0248041D01*
X0017353Y0248025D01*
X0017196Y0248013D01*
X0017037Y0248005D01*
X0016879Y0248001D01*
X0016721Y0248001D01*
X0016563Y0248005D01*
X0016404Y0248013D01*
X0016247Y0248025D01*
X0016089Y0248041D01*
X0015932Y0248061D01*
X0015776Y0248085D01*
X0015620Y0248113D01*
X0015465Y0248144D01*
X0015310Y0248180D01*
X0015157Y0248219D01*
X0015005Y0248262D01*
X0014854Y0248309D01*
X0014704Y0248360D01*
X0014555Y0248415D01*
X0014408Y0248473D01*
X0014262Y0248535D01*
X0014118Y0248600D01*
X0013976Y0248670D01*
X0013835Y0248742D01*
X0013696Y0248819D01*
X0013560Y0248898D01*
X0013425Y0248982D01*
X0013292Y0249068D01*
X0013162Y0249158D01*
X0013034Y0249251D01*
X0012908Y0249347D01*
X0012785Y0249447D01*
X0012664Y0249549D01*
X0012546Y0249654D01*
X0012431Y0249763D01*
X0012318Y0249874D01*
X0012208Y0249988D01*
X0012101Y0250105D01*
X0011997Y0250224D01*
X0011896Y0250346D01*
X0011799Y0250471D01*
X0011704Y0250598D01*
X0011613Y0250727D01*
X0011524Y0250858D01*
X0011440Y0250992D01*
X0011358Y0251128D01*
X0011280Y0251265D01*
X0011206Y0251405D01*
X0011135Y0251547D01*
X0011067Y0251690D01*
X0011003Y0251835D01*
X0010943Y0251981D01*
X0010887Y0252129D01*
X0010834Y0252278D01*
X0010785Y0252429D01*
X0010740Y0252581D01*
X0010699Y0252734D01*
X0010661Y0252887D01*
X0010628Y0253042D01*
X0010598Y0253198D01*
X0010572Y0253354D01*
X0010551Y0253511D01*
X0010533Y0253668D01*
X0010519Y0253826D01*
X0010509Y0253984D01*
X0010503Y0254142D01*
X0010501Y0254300D01*
X0370501Y0019300D02*
X0370503Y0019458D01*
X0370509Y0019616D01*
X0370519Y0019774D01*
X0370533Y0019932D01*
X0370551Y0020089D01*
X0370572Y0020246D01*
X0370598Y0020402D01*
X0370628Y0020558D01*
X0370661Y0020713D01*
X0370699Y0020866D01*
X0370740Y0021019D01*
X0370785Y0021171D01*
X0370834Y0021322D01*
X0370887Y0021471D01*
X0370943Y0021619D01*
X0371003Y0021765D01*
X0371067Y0021910D01*
X0371135Y0022053D01*
X0371206Y0022195D01*
X0371280Y0022335D01*
X0371358Y0022472D01*
X0371440Y0022608D01*
X0371524Y0022742D01*
X0371613Y0022873D01*
X0371704Y0023002D01*
X0371799Y0023129D01*
X0371896Y0023254D01*
X0371997Y0023376D01*
X0372101Y0023495D01*
X0372208Y0023612D01*
X0372318Y0023726D01*
X0372431Y0023837D01*
X0372546Y0023946D01*
X0372664Y0024051D01*
X0372785Y0024153D01*
X0372908Y0024253D01*
X0373034Y0024349D01*
X0373162Y0024442D01*
X0373292Y0024532D01*
X0373425Y0024618D01*
X0373560Y0024702D01*
X0373696Y0024781D01*
X0373835Y0024858D01*
X0373976Y0024930D01*
X0374118Y0025000D01*
X0374262Y0025065D01*
X0374408Y0025127D01*
X0374555Y0025185D01*
X0374704Y0025240D01*
X0374854Y0025291D01*
X0375005Y0025338D01*
X0375157Y0025381D01*
X0375310Y0025420D01*
X0375465Y0025456D01*
X0375620Y0025487D01*
X0375776Y0025515D01*
X0375932Y0025539D01*
X0376089Y0025559D01*
X0376247Y0025575D01*
X0376404Y0025587D01*
X0376563Y0025595D01*
X0376721Y0025599D01*
X0376879Y0025599D01*
X0377037Y0025595D01*
X0377196Y0025587D01*
X0377353Y0025575D01*
X0377511Y0025559D01*
X0377668Y0025539D01*
X0377824Y0025515D01*
X0377980Y0025487D01*
X0378135Y0025456D01*
X0378290Y0025420D01*
X0378443Y0025381D01*
X0378595Y0025338D01*
X0378746Y0025291D01*
X0378896Y0025240D01*
X0379045Y0025185D01*
X0379192Y0025127D01*
X0379338Y0025065D01*
X0379482Y0025000D01*
X0379624Y0024930D01*
X0379765Y0024858D01*
X0379904Y0024781D01*
X0380040Y0024702D01*
X0380175Y0024618D01*
X0380308Y0024532D01*
X0380438Y0024442D01*
X0380566Y0024349D01*
X0380692Y0024253D01*
X0380815Y0024153D01*
X0380936Y0024051D01*
X0381054Y0023946D01*
X0381169Y0023837D01*
X0381282Y0023726D01*
X0381392Y0023612D01*
X0381499Y0023495D01*
X0381603Y0023376D01*
X0381704Y0023254D01*
X0381801Y0023129D01*
X0381896Y0023002D01*
X0381987Y0022873D01*
X0382076Y0022742D01*
X0382160Y0022608D01*
X0382242Y0022472D01*
X0382320Y0022335D01*
X0382394Y0022195D01*
X0382465Y0022053D01*
X0382533Y0021910D01*
X0382597Y0021765D01*
X0382657Y0021619D01*
X0382713Y0021471D01*
X0382766Y0021322D01*
X0382815Y0021171D01*
X0382860Y0021019D01*
X0382901Y0020866D01*
X0382939Y0020713D01*
X0382972Y0020558D01*
X0383002Y0020402D01*
X0383028Y0020246D01*
X0383049Y0020089D01*
X0383067Y0019932D01*
X0383081Y0019774D01*
X0383091Y0019616D01*
X0383097Y0019458D01*
X0383099Y0019300D01*
X0383097Y0019142D01*
X0383091Y0018984D01*
X0383081Y0018826D01*
X0383067Y0018668D01*
X0383049Y0018511D01*
X0383028Y0018354D01*
X0383002Y0018198D01*
X0382972Y0018042D01*
X0382939Y0017887D01*
X0382901Y0017734D01*
X0382860Y0017581D01*
X0382815Y0017429D01*
X0382766Y0017278D01*
X0382713Y0017129D01*
X0382657Y0016981D01*
X0382597Y0016835D01*
X0382533Y0016690D01*
X0382465Y0016547D01*
X0382394Y0016405D01*
X0382320Y0016265D01*
X0382242Y0016128D01*
X0382160Y0015992D01*
X0382076Y0015858D01*
X0381987Y0015727D01*
X0381896Y0015598D01*
X0381801Y0015471D01*
X0381704Y0015346D01*
X0381603Y0015224D01*
X0381499Y0015105D01*
X0381392Y0014988D01*
X0381282Y0014874D01*
X0381169Y0014763D01*
X0381054Y0014654D01*
X0380936Y0014549D01*
X0380815Y0014447D01*
X0380692Y0014347D01*
X0380566Y0014251D01*
X0380438Y0014158D01*
X0380308Y0014068D01*
X0380175Y0013982D01*
X0380040Y0013898D01*
X0379904Y0013819D01*
X0379765Y0013742D01*
X0379624Y0013670D01*
X0379482Y0013600D01*
X0379338Y0013535D01*
X0379192Y0013473D01*
X0379045Y0013415D01*
X0378896Y0013360D01*
X0378746Y0013309D01*
X0378595Y0013262D01*
X0378443Y0013219D01*
X0378290Y0013180D01*
X0378135Y0013144D01*
X0377980Y0013113D01*
X0377824Y0013085D01*
X0377668Y0013061D01*
X0377511Y0013041D01*
X0377353Y0013025D01*
X0377196Y0013013D01*
X0377037Y0013005D01*
X0376879Y0013001D01*
X0376721Y0013001D01*
X0376563Y0013005D01*
X0376404Y0013013D01*
X0376247Y0013025D01*
X0376089Y0013041D01*
X0375932Y0013061D01*
X0375776Y0013085D01*
X0375620Y0013113D01*
X0375465Y0013144D01*
X0375310Y0013180D01*
X0375157Y0013219D01*
X0375005Y0013262D01*
X0374854Y0013309D01*
X0374704Y0013360D01*
X0374555Y0013415D01*
X0374408Y0013473D01*
X0374262Y0013535D01*
X0374118Y0013600D01*
X0373976Y0013670D01*
X0373835Y0013742D01*
X0373696Y0013819D01*
X0373560Y0013898D01*
X0373425Y0013982D01*
X0373292Y0014068D01*
X0373162Y0014158D01*
X0373034Y0014251D01*
X0372908Y0014347D01*
X0372785Y0014447D01*
X0372664Y0014549D01*
X0372546Y0014654D01*
X0372431Y0014763D01*
X0372318Y0014874D01*
X0372208Y0014988D01*
X0372101Y0015105D01*
X0371997Y0015224D01*
X0371896Y0015346D01*
X0371799Y0015471D01*
X0371704Y0015598D01*
X0371613Y0015727D01*
X0371524Y0015858D01*
X0371440Y0015992D01*
X0371358Y0016128D01*
X0371280Y0016265D01*
X0371206Y0016405D01*
X0371135Y0016547D01*
X0371067Y0016690D01*
X0371003Y0016835D01*
X0370943Y0016981D01*
X0370887Y0017129D01*
X0370834Y0017278D01*
X0370785Y0017429D01*
X0370740Y0017581D01*
X0370699Y0017734D01*
X0370661Y0017887D01*
X0370628Y0018042D01*
X0370598Y0018198D01*
X0370572Y0018354D01*
X0370551Y0018511D01*
X0370533Y0018668D01*
X0370519Y0018826D01*
X0370509Y0018984D01*
X0370503Y0019142D01*
X0370501Y0019300D01*
X0373001Y0254300D02*
X0373003Y0254458D01*
X0373009Y0254616D01*
X0373019Y0254774D01*
X0373033Y0254932D01*
X0373051Y0255089D01*
X0373072Y0255246D01*
X0373098Y0255402D01*
X0373128Y0255558D01*
X0373161Y0255713D01*
X0373199Y0255866D01*
X0373240Y0256019D01*
X0373285Y0256171D01*
X0373334Y0256322D01*
X0373387Y0256471D01*
X0373443Y0256619D01*
X0373503Y0256765D01*
X0373567Y0256910D01*
X0373635Y0257053D01*
X0373706Y0257195D01*
X0373780Y0257335D01*
X0373858Y0257472D01*
X0373940Y0257608D01*
X0374024Y0257742D01*
X0374113Y0257873D01*
X0374204Y0258002D01*
X0374299Y0258129D01*
X0374396Y0258254D01*
X0374497Y0258376D01*
X0374601Y0258495D01*
X0374708Y0258612D01*
X0374818Y0258726D01*
X0374931Y0258837D01*
X0375046Y0258946D01*
X0375164Y0259051D01*
X0375285Y0259153D01*
X0375408Y0259253D01*
X0375534Y0259349D01*
X0375662Y0259442D01*
X0375792Y0259532D01*
X0375925Y0259618D01*
X0376060Y0259702D01*
X0376196Y0259781D01*
X0376335Y0259858D01*
X0376476Y0259930D01*
X0376618Y0260000D01*
X0376762Y0260065D01*
X0376908Y0260127D01*
X0377055Y0260185D01*
X0377204Y0260240D01*
X0377354Y0260291D01*
X0377505Y0260338D01*
X0377657Y0260381D01*
X0377810Y0260420D01*
X0377965Y0260456D01*
X0378120Y0260487D01*
X0378276Y0260515D01*
X0378432Y0260539D01*
X0378589Y0260559D01*
X0378747Y0260575D01*
X0378904Y0260587D01*
X0379063Y0260595D01*
X0379221Y0260599D01*
X0379379Y0260599D01*
X0379537Y0260595D01*
X0379696Y0260587D01*
X0379853Y0260575D01*
X0380011Y0260559D01*
X0380168Y0260539D01*
X0380324Y0260515D01*
X0380480Y0260487D01*
X0380635Y0260456D01*
X0380790Y0260420D01*
X0380943Y0260381D01*
X0381095Y0260338D01*
X0381246Y0260291D01*
X0381396Y0260240D01*
X0381545Y0260185D01*
X0381692Y0260127D01*
X0381838Y0260065D01*
X0381982Y0260000D01*
X0382124Y0259930D01*
X0382265Y0259858D01*
X0382404Y0259781D01*
X0382540Y0259702D01*
X0382675Y0259618D01*
X0382808Y0259532D01*
X0382938Y0259442D01*
X0383066Y0259349D01*
X0383192Y0259253D01*
X0383315Y0259153D01*
X0383436Y0259051D01*
X0383554Y0258946D01*
X0383669Y0258837D01*
X0383782Y0258726D01*
X0383892Y0258612D01*
X0383999Y0258495D01*
X0384103Y0258376D01*
X0384204Y0258254D01*
X0384301Y0258129D01*
X0384396Y0258002D01*
X0384487Y0257873D01*
X0384576Y0257742D01*
X0384660Y0257608D01*
X0384742Y0257472D01*
X0384820Y0257335D01*
X0384894Y0257195D01*
X0384965Y0257053D01*
X0385033Y0256910D01*
X0385097Y0256765D01*
X0385157Y0256619D01*
X0385213Y0256471D01*
X0385266Y0256322D01*
X0385315Y0256171D01*
X0385360Y0256019D01*
X0385401Y0255866D01*
X0385439Y0255713D01*
X0385472Y0255558D01*
X0385502Y0255402D01*
X0385528Y0255246D01*
X0385549Y0255089D01*
X0385567Y0254932D01*
X0385581Y0254774D01*
X0385591Y0254616D01*
X0385597Y0254458D01*
X0385599Y0254300D01*
X0385597Y0254142D01*
X0385591Y0253984D01*
X0385581Y0253826D01*
X0385567Y0253668D01*
X0385549Y0253511D01*
X0385528Y0253354D01*
X0385502Y0253198D01*
X0385472Y0253042D01*
X0385439Y0252887D01*
X0385401Y0252734D01*
X0385360Y0252581D01*
X0385315Y0252429D01*
X0385266Y0252278D01*
X0385213Y0252129D01*
X0385157Y0251981D01*
X0385097Y0251835D01*
X0385033Y0251690D01*
X0384965Y0251547D01*
X0384894Y0251405D01*
X0384820Y0251265D01*
X0384742Y0251128D01*
X0384660Y0250992D01*
X0384576Y0250858D01*
X0384487Y0250727D01*
X0384396Y0250598D01*
X0384301Y0250471D01*
X0384204Y0250346D01*
X0384103Y0250224D01*
X0383999Y0250105D01*
X0383892Y0249988D01*
X0383782Y0249874D01*
X0383669Y0249763D01*
X0383554Y0249654D01*
X0383436Y0249549D01*
X0383315Y0249447D01*
X0383192Y0249347D01*
X0383066Y0249251D01*
X0382938Y0249158D01*
X0382808Y0249068D01*
X0382675Y0248982D01*
X0382540Y0248898D01*
X0382404Y0248819D01*
X0382265Y0248742D01*
X0382124Y0248670D01*
X0381982Y0248600D01*
X0381838Y0248535D01*
X0381692Y0248473D01*
X0381545Y0248415D01*
X0381396Y0248360D01*
X0381246Y0248309D01*
X0381095Y0248262D01*
X0380943Y0248219D01*
X0380790Y0248180D01*
X0380635Y0248144D01*
X0380480Y0248113D01*
X0380324Y0248085D01*
X0380168Y0248061D01*
X0380011Y0248041D01*
X0379853Y0248025D01*
X0379696Y0248013D01*
X0379537Y0248005D01*
X0379379Y0248001D01*
X0379221Y0248001D01*
X0379063Y0248005D01*
X0378904Y0248013D01*
X0378747Y0248025D01*
X0378589Y0248041D01*
X0378432Y0248061D01*
X0378276Y0248085D01*
X0378120Y0248113D01*
X0377965Y0248144D01*
X0377810Y0248180D01*
X0377657Y0248219D01*
X0377505Y0248262D01*
X0377354Y0248309D01*
X0377204Y0248360D01*
X0377055Y0248415D01*
X0376908Y0248473D01*
X0376762Y0248535D01*
X0376618Y0248600D01*
X0376476Y0248670D01*
X0376335Y0248742D01*
X0376196Y0248819D01*
X0376060Y0248898D01*
X0375925Y0248982D01*
X0375792Y0249068D01*
X0375662Y0249158D01*
X0375534Y0249251D01*
X0375408Y0249347D01*
X0375285Y0249447D01*
X0375164Y0249549D01*
X0375046Y0249654D01*
X0374931Y0249763D01*
X0374818Y0249874D01*
X0374708Y0249988D01*
X0374601Y0250105D01*
X0374497Y0250224D01*
X0374396Y0250346D01*
X0374299Y0250471D01*
X0374204Y0250598D01*
X0374113Y0250727D01*
X0374024Y0250858D01*
X0373940Y0250992D01*
X0373858Y0251128D01*
X0373780Y0251265D01*
X0373706Y0251405D01*
X0373635Y0251547D01*
X0373567Y0251690D01*
X0373503Y0251835D01*
X0373443Y0251981D01*
X0373387Y0252129D01*
X0373334Y0252278D01*
X0373285Y0252429D01*
X0373240Y0252581D01*
X0373199Y0252734D01*
X0373161Y0252887D01*
X0373128Y0253042D01*
X0373098Y0253198D01*
X0373072Y0253354D01*
X0373051Y0253511D01*
X0373033Y0253668D01*
X0373019Y0253826D01*
X0373009Y0253984D01*
X0373003Y0254142D01*
X0373001Y0254300D01*
D11*
X0326686Y0211202D02*
X0326686Y0189548D01*
X0326599Y0189548D02*
X0324717Y0189548D01*
X0324717Y0211202D01*
X0251981Y0211202D02*
X0251981Y0189548D01*
X0250099Y0189548D01*
X0250013Y0189548D02*
X0250013Y0211202D01*
X0130186Y0211202D02*
X0130186Y0189548D01*
X0130099Y0189548D02*
X0128217Y0189548D01*
X0128217Y0211202D01*
X0055481Y0211202D02*
X0055481Y0189548D01*
X0053599Y0189548D01*
X0053513Y0189548D02*
X0053513Y0211202D01*
X0053513Y0099202D02*
X0053513Y0077548D01*
X0053599Y0077548D02*
X0055481Y0077548D01*
X0055481Y0099202D01*
X0128217Y0099202D02*
X0128217Y0077548D01*
X0130099Y0077548D01*
X0130186Y0077548D02*
X0130186Y0099202D01*
X0250013Y0099202D02*
X0250013Y0077548D01*
X0250099Y0077548D02*
X0251981Y0077548D01*
X0251981Y0099202D01*
X0324717Y0099202D02*
X0324717Y0077548D01*
X0326599Y0077548D01*
X0326686Y0077548D02*
X0326686Y0099202D01*
D12*
X0096300Y0118800D02*
X0094300Y0118800D01*
X0094300Y0122800D01*
X0094300Y0118800D02*
X0092300Y0118800D01*
X0094300Y0129300D02*
X0090300Y0129300D01*
X0090800Y0132300D02*
X0094300Y0135800D01*
D13*
X0094300Y0129300D01*
X0094300Y0122800D01*
X0094300Y0135800D02*
X0094300Y0136800D01*
D14*
X0089150Y0138153D02*
X0089150Y0134450D01*
X0086681Y0134450D02*
X0086681Y0138153D01*
X0087916Y0136919D01*
X0089150Y0138153D01*
X0086650Y0132153D02*
X0084798Y0132153D01*
X0084181Y0131536D01*
X0084181Y0130302D01*
X0084798Y0129684D01*
X0086650Y0129684D01*
X0086650Y0128450D02*
X0086650Y0132153D01*
X0085416Y0129684D02*
X0084181Y0128450D01*
X0083533Y0127153D02*
X0084150Y0126536D01*
X0084150Y0124067D01*
X0083533Y0123450D01*
X0082298Y0123450D01*
X0081681Y0124067D01*
X0081033Y0122153D02*
X0081650Y0121536D01*
X0081650Y0120919D01*
X0081033Y0120302D01*
X0079798Y0120302D01*
X0079181Y0119684D01*
X0079181Y0119067D01*
X0079798Y0118450D01*
X0081033Y0118450D01*
X0081650Y0119067D01*
X0081033Y0122153D02*
X0079798Y0122153D01*
X0079181Y0121536D01*
X0081681Y0126536D02*
X0082298Y0127153D01*
X0083533Y0127153D01*
D15*
X0082833Y0129400D02*
X0083200Y0129767D01*
X0082833Y0130134D01*
X0081732Y0130134D01*
X0081732Y0130501D02*
X0081732Y0129400D01*
X0082833Y0129400D01*
X0082833Y0130868D02*
X0082099Y0130868D01*
X0081732Y0130501D01*
X0080990Y0130868D02*
X0080623Y0130868D01*
X0080623Y0129400D01*
X0080990Y0129400D02*
X0080256Y0129400D01*
X0079517Y0129400D02*
X0078783Y0129400D01*
X0079150Y0129400D02*
X0079150Y0131602D01*
X0079517Y0131602D01*
X0080623Y0131602D02*
X0080623Y0131969D01*
X0078044Y0130868D02*
X0078044Y0129400D01*
X0078044Y0130134D02*
X0077310Y0130868D01*
X0076943Y0130868D01*
X0076202Y0130501D02*
X0076202Y0129767D01*
X0075835Y0129400D01*
X0075101Y0129400D01*
X0074734Y0129767D01*
X0074734Y0130501D01*
X0075101Y0130868D01*
X0075835Y0130868D01*
X0076202Y0130501D01*
X0073992Y0129767D02*
X0073625Y0130134D01*
X0072524Y0130134D01*
X0072524Y0130501D02*
X0072524Y0129400D01*
X0073625Y0129400D01*
X0073992Y0129767D01*
X0073625Y0130868D02*
X0072891Y0130868D01*
X0072524Y0130501D01*
X0071782Y0130501D02*
X0071415Y0130868D01*
X0070314Y0130868D01*
X0070314Y0131602D02*
X0070314Y0129400D01*
X0071415Y0129400D01*
X0071782Y0129767D01*
X0071782Y0130501D01*
X0070756Y0126602D02*
X0070389Y0126602D01*
X0070389Y0124400D01*
X0070756Y0124400D02*
X0070022Y0124400D01*
X0071498Y0124767D02*
X0071498Y0125501D01*
X0071864Y0125868D01*
X0072598Y0125868D01*
X0072965Y0125501D01*
X0072965Y0124767D01*
X0072598Y0124400D01*
X0071864Y0124400D01*
X0071498Y0124767D01*
X0073706Y0125868D02*
X0074073Y0125868D01*
X0074807Y0125134D01*
X0074807Y0124400D02*
X0074807Y0125868D01*
X0075546Y0125868D02*
X0076280Y0125868D01*
X0075913Y0126235D02*
X0075913Y0124767D01*
X0075546Y0124400D01*
X0077022Y0124400D02*
X0077022Y0125501D01*
X0077389Y0125868D01*
X0078490Y0125868D01*
X0078490Y0124400D01*
X0079232Y0124767D02*
X0079232Y0125501D01*
X0079599Y0125868D01*
X0080333Y0125868D01*
X0080700Y0125501D01*
X0080700Y0124767D01*
X0080333Y0124400D01*
X0079599Y0124400D01*
X0079232Y0124767D01*
X0078200Y0120868D02*
X0078200Y0119767D01*
X0077833Y0119400D01*
X0076732Y0119400D01*
X0076732Y0119033D02*
X0077099Y0118666D01*
X0077466Y0118666D01*
X0076732Y0119033D02*
X0076732Y0120868D01*
X0075990Y0120501D02*
X0075623Y0120134D01*
X0074889Y0120134D01*
X0074522Y0119767D01*
X0074889Y0119400D01*
X0075990Y0119400D01*
X0075990Y0120501D02*
X0075623Y0120868D01*
X0074522Y0120868D01*
X0073780Y0120868D02*
X0073046Y0120868D01*
X0073413Y0121235D02*
X0073413Y0119767D01*
X0073046Y0119400D01*
X0072307Y0119767D02*
X0072307Y0120501D01*
X0071940Y0120868D01*
X0071206Y0120868D01*
X0070839Y0120501D01*
X0070839Y0120134D01*
X0072307Y0120134D01*
X0072307Y0119767D02*
X0071940Y0119400D01*
X0071206Y0119400D01*
X0070097Y0119400D02*
X0070097Y0120868D01*
X0069730Y0120868D01*
X0069363Y0120501D01*
X0068996Y0120868D01*
X0068629Y0120501D01*
X0068629Y0119400D01*
X0069363Y0119400D02*
X0069363Y0120501D01*
X0067887Y0120501D02*
X0067520Y0120868D01*
X0066419Y0120868D01*
X0066786Y0120134D02*
X0067520Y0120134D01*
X0067887Y0120501D01*
X0067887Y0119400D02*
X0066786Y0119400D01*
X0066419Y0119767D01*
X0066786Y0120134D01*
X0078336Y0135400D02*
X0079070Y0135400D01*
X0078703Y0135400D02*
X0078703Y0137602D01*
X0079070Y0137602D01*
X0079812Y0136501D02*
X0079812Y0136134D01*
X0081280Y0136134D01*
X0081280Y0136501D02*
X0080913Y0136868D01*
X0080179Y0136868D01*
X0079812Y0136501D01*
X0080179Y0135400D02*
X0080913Y0135400D01*
X0081280Y0135767D01*
X0081280Y0136501D01*
X0082022Y0136868D02*
X0083123Y0136868D01*
X0083490Y0136501D01*
X0083490Y0135767D01*
X0083123Y0135400D01*
X0082022Y0135400D01*
X0082022Y0137602D01*
X0084232Y0136501D02*
X0084599Y0136868D01*
X0085333Y0136868D01*
X0085700Y0136501D01*
X0085700Y0135767D01*
X0085333Y0135400D01*
X0084599Y0135400D01*
X0084232Y0135767D01*
X0084232Y0136501D01*
X0143439Y0180000D02*
X0143439Y0181468D01*
X0143439Y0180734D02*
X0142705Y0181468D01*
X0142338Y0181468D01*
X0144181Y0181101D02*
X0144181Y0180734D01*
X0145648Y0180734D01*
X0145648Y0181101D02*
X0145281Y0181468D01*
X0144547Y0181468D01*
X0144181Y0181101D01*
X0144547Y0180000D02*
X0145281Y0180000D01*
X0145648Y0180367D01*
X0145648Y0181101D01*
X0146390Y0181468D02*
X0147491Y0181468D01*
X0147858Y0181101D01*
X0147858Y0180367D01*
X0147491Y0180000D01*
X0146390Y0180000D01*
X0148600Y0180000D02*
X0148600Y0181101D01*
X0148967Y0181468D01*
X0150068Y0181468D01*
X0150068Y0180000D01*
X0150810Y0180000D02*
X0151911Y0180000D01*
X0152278Y0180367D01*
X0151911Y0180734D01*
X0150810Y0180734D01*
X0150810Y0181101D02*
X0150810Y0180000D01*
X0150810Y0181101D02*
X0151177Y0181468D01*
X0151911Y0181468D01*
X0153020Y0181468D02*
X0154121Y0181468D01*
X0154488Y0181101D01*
X0154488Y0180367D01*
X0154121Y0180000D01*
X0153020Y0180000D01*
X0153383Y0177868D02*
X0153383Y0176400D01*
X0153383Y0177134D02*
X0152649Y0177868D01*
X0152282Y0177868D01*
X0151541Y0177868D02*
X0151174Y0177868D01*
X0150807Y0177501D01*
X0150440Y0177868D01*
X0150073Y0177501D01*
X0150073Y0176400D01*
X0150807Y0176400D02*
X0150807Y0177501D01*
X0151541Y0177868D02*
X0151541Y0176400D01*
X0149332Y0176400D02*
X0148965Y0176400D01*
X0148965Y0176767D01*
X0149332Y0176767D01*
X0149332Y0176400D01*
X0154125Y0176400D02*
X0155226Y0176400D01*
X0155593Y0176767D01*
X0155226Y0177134D01*
X0154125Y0177134D01*
X0154125Y0177501D02*
X0154125Y0176400D01*
X0154125Y0177501D02*
X0154492Y0177868D01*
X0155226Y0177868D01*
X0156335Y0177501D02*
X0156335Y0176400D01*
X0156335Y0177501D02*
X0156702Y0177868D01*
X0157436Y0177868D01*
X0157803Y0177501D01*
X0157803Y0178602D02*
X0157803Y0176400D01*
X0157067Y0174268D02*
X0156334Y0174268D01*
X0155967Y0173901D01*
X0155967Y0173534D01*
X0157434Y0173534D01*
X0157434Y0173901D02*
X0157067Y0174268D01*
X0157434Y0173901D02*
X0157434Y0173167D01*
X0157067Y0172800D01*
X0156334Y0172800D01*
X0158176Y0173167D02*
X0158543Y0172800D01*
X0159644Y0172800D01*
X0159644Y0175002D01*
X0159644Y0174268D02*
X0158543Y0174268D01*
X0158176Y0173901D01*
X0158176Y0173167D01*
X0158175Y0170668D02*
X0158909Y0170668D01*
X0159276Y0170301D01*
X0159276Y0169567D01*
X0158909Y0169200D01*
X0158175Y0169200D01*
X0157808Y0169567D01*
X0157808Y0170301D01*
X0158175Y0170668D01*
X0157066Y0170668D02*
X0157066Y0169200D01*
X0157066Y0169934D02*
X0156332Y0170668D01*
X0155965Y0170668D01*
X0155225Y0170668D02*
X0155225Y0169200D01*
X0155225Y0170668D02*
X0154124Y0170668D01*
X0153757Y0170301D01*
X0153757Y0169200D01*
X0153015Y0169200D02*
X0152281Y0169200D01*
X0152648Y0169200D02*
X0152648Y0170668D01*
X0153015Y0170668D01*
X0152648Y0171402D02*
X0152648Y0171769D01*
X0151174Y0170668D02*
X0150441Y0170668D01*
X0150074Y0170301D01*
X0150074Y0169200D01*
X0151174Y0169200D01*
X0151541Y0169567D01*
X0151174Y0169934D01*
X0150074Y0169934D01*
X0160015Y0170301D02*
X0160749Y0170301D01*
X0160382Y0171035D02*
X0160015Y0171402D01*
X0160382Y0171035D02*
X0160382Y0169200D01*
X0161489Y0169200D02*
X0162223Y0169200D01*
X0161856Y0169200D02*
X0161856Y0170668D01*
X0162223Y0170668D01*
X0161856Y0171402D02*
X0161856Y0171769D01*
X0162963Y0172800D02*
X0162596Y0173167D01*
X0162596Y0173901D01*
X0162963Y0174268D01*
X0163697Y0174268D01*
X0164064Y0173901D01*
X0164064Y0173167D01*
X0163697Y0172800D01*
X0162963Y0172800D01*
X0163329Y0171402D02*
X0163329Y0169200D01*
X0163696Y0169200D02*
X0162962Y0169200D01*
X0164438Y0169200D02*
X0164438Y0170301D01*
X0164805Y0170668D01*
X0165539Y0170668D01*
X0165539Y0169934D02*
X0164438Y0169934D01*
X0164438Y0169200D02*
X0165539Y0169200D01*
X0165906Y0169567D01*
X0165539Y0169934D01*
X0166648Y0169567D02*
X0167015Y0169200D01*
X0167749Y0169200D01*
X0168116Y0169567D01*
X0168116Y0171035D01*
X0167749Y0171402D01*
X0167015Y0171402D01*
X0166648Y0171035D01*
X0168489Y0172433D02*
X0168489Y0174268D01*
X0169590Y0174268D01*
X0169957Y0173901D01*
X0169957Y0173167D01*
X0169590Y0172800D01*
X0168489Y0172800D01*
X0168489Y0172433D02*
X0168856Y0172066D01*
X0169223Y0172066D01*
X0170699Y0172800D02*
X0170699Y0173901D01*
X0171066Y0174268D01*
X0172167Y0174268D01*
X0172167Y0172800D01*
X0172906Y0172800D02*
X0173640Y0172800D01*
X0173273Y0172800D02*
X0173273Y0174268D01*
X0173640Y0174268D01*
X0173273Y0175002D02*
X0173273Y0175369D01*
X0173642Y0176400D02*
X0174009Y0176767D01*
X0174009Y0177501D01*
X0173642Y0177868D01*
X0172541Y0177868D01*
X0172541Y0178602D02*
X0172541Y0176400D01*
X0173642Y0176400D01*
X0174750Y0176767D02*
X0174750Y0177501D01*
X0175117Y0177868D01*
X0175851Y0177868D01*
X0176218Y0177501D01*
X0176218Y0176767D01*
X0175851Y0176400D01*
X0175117Y0176400D01*
X0174750Y0176767D01*
X0176959Y0177868D02*
X0177326Y0177868D01*
X0178060Y0177134D01*
X0178060Y0176400D02*
X0178060Y0177868D01*
X0178802Y0177501D02*
X0178802Y0176767D01*
X0179169Y0176400D01*
X0180270Y0176400D01*
X0180270Y0175666D02*
X0180270Y0177868D01*
X0179169Y0177868D01*
X0178802Y0177501D01*
X0181012Y0177501D02*
X0181012Y0177134D01*
X0182480Y0177134D01*
X0182480Y0177501D02*
X0182113Y0177868D01*
X0181379Y0177868D01*
X0181012Y0177501D01*
X0181379Y0176400D02*
X0182113Y0176400D01*
X0182480Y0176767D01*
X0182480Y0177501D01*
X0183220Y0177868D02*
X0183587Y0177868D01*
X0184321Y0177134D01*
X0184321Y0176400D02*
X0184321Y0177868D01*
X0184694Y0180000D02*
X0184327Y0180367D01*
X0184327Y0181101D01*
X0184694Y0181468D01*
X0185428Y0181468D01*
X0185795Y0181101D01*
X0185795Y0180367D01*
X0185428Y0180000D01*
X0184694Y0180000D01*
X0183585Y0180000D02*
X0183585Y0181468D01*
X0183585Y0180734D02*
X0182851Y0181468D01*
X0182484Y0181468D01*
X0181743Y0181468D02*
X0180642Y0181468D01*
X0180275Y0181101D01*
X0180275Y0180000D01*
X0179533Y0180000D02*
X0178799Y0180000D01*
X0179166Y0180000D02*
X0179166Y0181468D01*
X0179533Y0181468D01*
X0179166Y0182202D02*
X0179166Y0182569D01*
X0179169Y0183600D02*
X0178802Y0183967D01*
X0179169Y0184334D01*
X0179903Y0184334D01*
X0180270Y0184701D01*
X0179903Y0185068D01*
X0178802Y0185068D01*
X0179169Y0183600D02*
X0180270Y0183600D01*
X0181012Y0183600D02*
X0181012Y0184701D01*
X0181379Y0185068D01*
X0182480Y0185068D01*
X0182480Y0183600D01*
X0183219Y0183600D02*
X0183953Y0183600D01*
X0183586Y0183600D02*
X0183586Y0185068D01*
X0183953Y0185068D01*
X0183586Y0185802D02*
X0183586Y0186169D01*
X0183589Y0187200D02*
X0183222Y0187567D01*
X0183222Y0187934D01*
X0183589Y0188301D01*
X0184690Y0188301D01*
X0184690Y0187567D01*
X0184323Y0187200D01*
X0183589Y0187200D01*
X0182480Y0187567D02*
X0182113Y0187200D01*
X0181379Y0187200D01*
X0181012Y0187567D01*
X0181012Y0188301D01*
X0181379Y0188668D01*
X0181746Y0188668D01*
X0182480Y0188301D01*
X0182480Y0189402D01*
X0181012Y0189402D01*
X0183222Y0189402D02*
X0183956Y0189035D01*
X0184690Y0188301D01*
X0187641Y0187200D02*
X0187641Y0189402D01*
X0189109Y0189402D02*
X0187641Y0187200D01*
X0189109Y0187200D02*
X0189109Y0189402D01*
X0189851Y0189035D02*
X0190218Y0189402D01*
X0190952Y0189402D01*
X0191319Y0189035D01*
X0191319Y0187567D01*
X0190952Y0187200D01*
X0190218Y0187200D01*
X0189851Y0187567D01*
X0189851Y0189035D01*
X0192059Y0189402D02*
X0192793Y0189402D01*
X0192426Y0189402D02*
X0192426Y0187200D01*
X0192793Y0187200D02*
X0192059Y0187200D01*
X0191689Y0185068D02*
X0190955Y0185068D01*
X0190588Y0184701D01*
X0190588Y0183967D01*
X0190955Y0183600D01*
X0191689Y0183600D01*
X0192056Y0183967D01*
X0192056Y0184701D01*
X0191689Y0185068D01*
X0192798Y0185068D02*
X0193899Y0185068D01*
X0194266Y0184701D01*
X0194266Y0183967D01*
X0193899Y0183600D01*
X0192798Y0183600D01*
X0193533Y0182202D02*
X0194267Y0182202D01*
X0194634Y0181835D01*
X0194634Y0180367D01*
X0194267Y0180000D01*
X0193533Y0180000D01*
X0193166Y0180367D01*
X0192424Y0180367D02*
X0192057Y0180734D01*
X0190956Y0180734D01*
X0190956Y0181101D02*
X0190956Y0180000D01*
X0192057Y0180000D01*
X0192424Y0180367D01*
X0192057Y0181468D02*
X0191323Y0181468D01*
X0190956Y0181101D01*
X0190214Y0182202D02*
X0189847Y0182202D01*
X0189847Y0180000D01*
X0190214Y0180000D02*
X0189480Y0180000D01*
X0188741Y0180000D02*
X0188007Y0180000D01*
X0188374Y0180000D02*
X0188374Y0181468D01*
X0188741Y0181468D01*
X0188374Y0182202D02*
X0188374Y0182569D01*
X0188378Y0183600D02*
X0188378Y0184701D01*
X0188745Y0185068D01*
X0189846Y0185068D01*
X0189846Y0183600D01*
X0187269Y0183967D02*
X0186902Y0183600D01*
X0187269Y0183967D02*
X0187269Y0185435D01*
X0187636Y0185068D02*
X0186902Y0185068D01*
X0185796Y0185068D02*
X0185062Y0185068D01*
X0184695Y0184701D01*
X0184695Y0183600D01*
X0185796Y0183600D01*
X0186163Y0183967D01*
X0185796Y0184334D01*
X0184695Y0184334D01*
X0186534Y0182202D02*
X0186901Y0181835D01*
X0186901Y0180000D01*
X0187268Y0181101D02*
X0186534Y0181101D01*
X0187272Y0177868D02*
X0187639Y0177868D01*
X0188373Y0177134D01*
X0188373Y0176400D02*
X0188373Y0177868D01*
X0189115Y0177501D02*
X0189115Y0177134D01*
X0190583Y0177134D01*
X0190583Y0177501D02*
X0190216Y0177868D01*
X0189482Y0177868D01*
X0189115Y0177501D01*
X0189482Y0176400D02*
X0190216Y0176400D01*
X0190583Y0176767D01*
X0190583Y0177501D01*
X0191325Y0177501D02*
X0191325Y0176400D01*
X0191325Y0177501D02*
X0191692Y0177868D01*
X0192426Y0177868D01*
X0192793Y0177501D01*
X0193532Y0177868D02*
X0194266Y0177868D01*
X0193899Y0178235D02*
X0193899Y0176767D01*
X0193532Y0176400D01*
X0192793Y0176400D02*
X0192793Y0178602D01*
X0195008Y0177501D02*
X0195375Y0177868D01*
X0196109Y0177868D01*
X0196476Y0177501D01*
X0196476Y0176767D01*
X0196109Y0176400D01*
X0195375Y0176400D01*
X0195008Y0176767D01*
X0195008Y0177501D01*
X0194639Y0174268D02*
X0195740Y0174268D01*
X0196107Y0173901D01*
X0195740Y0173534D01*
X0195006Y0173534D01*
X0194639Y0173167D01*
X0195006Y0172800D01*
X0196107Y0172800D01*
X0196849Y0173534D02*
X0198317Y0173534D01*
X0198317Y0173901D02*
X0197950Y0174268D01*
X0197216Y0174268D01*
X0196849Y0173901D01*
X0196849Y0173534D01*
X0197216Y0172800D02*
X0197950Y0172800D01*
X0198317Y0173167D01*
X0198317Y0173901D01*
X0199058Y0174268D02*
X0199425Y0174268D01*
X0200159Y0173534D01*
X0200159Y0172800D02*
X0200159Y0174268D01*
X0201265Y0174268D02*
X0201265Y0172800D01*
X0201632Y0172800D02*
X0200898Y0172800D01*
X0202374Y0172800D02*
X0202374Y0174268D01*
X0201632Y0174268D02*
X0201265Y0174268D01*
X0201265Y0175002D02*
X0201265Y0175369D01*
X0201636Y0176400D02*
X0201269Y0176767D01*
X0201269Y0177501D01*
X0201636Y0177868D01*
X0202370Y0177868D01*
X0202737Y0177501D01*
X0202737Y0176767D01*
X0202370Y0176400D01*
X0201636Y0176400D01*
X0200527Y0176400D02*
X0200527Y0177868D01*
X0199793Y0177868D02*
X0199426Y0177868D01*
X0199793Y0177868D02*
X0200527Y0177134D01*
X0200160Y0180000D02*
X0200527Y0180367D01*
X0200527Y0181101D01*
X0200160Y0181468D01*
X0199426Y0181468D01*
X0199059Y0181101D01*
X0199059Y0180367D01*
X0199426Y0180000D01*
X0200160Y0180000D01*
X0198317Y0181101D02*
X0197583Y0181101D01*
X0197950Y0181835D02*
X0197950Y0180000D01*
X0197950Y0181835D02*
X0197583Y0182202D01*
X0197215Y0183600D02*
X0197582Y0183967D01*
X0197582Y0185435D01*
X0197949Y0185068D02*
X0197215Y0185068D01*
X0198691Y0185068D02*
X0199792Y0185068D01*
X0200159Y0184701D01*
X0200159Y0183967D01*
X0199792Y0183600D01*
X0198691Y0183600D01*
X0200901Y0183600D02*
X0200901Y0185068D01*
X0202369Y0185068D02*
X0202369Y0183967D01*
X0202002Y0183600D01*
X0200901Y0183600D01*
X0203111Y0183600D02*
X0204212Y0183600D01*
X0204579Y0183967D01*
X0204579Y0184701D01*
X0204212Y0185068D01*
X0203111Y0185068D01*
X0203111Y0185802D02*
X0203111Y0183600D01*
X0205321Y0183967D02*
X0205321Y0184701D01*
X0205687Y0185068D01*
X0206421Y0185068D01*
X0206788Y0184701D01*
X0206788Y0183967D01*
X0206421Y0183600D01*
X0205687Y0183600D01*
X0205321Y0183967D01*
X0206053Y0181835D02*
X0206053Y0180367D01*
X0205686Y0180000D01*
X0204947Y0180367D02*
X0204947Y0181101D01*
X0204580Y0181468D01*
X0203846Y0181468D01*
X0203479Y0181101D01*
X0203479Y0180734D01*
X0204947Y0180734D01*
X0204947Y0180367D02*
X0204580Y0180000D01*
X0203846Y0180000D01*
X0205686Y0181468D02*
X0206420Y0181468D01*
X0207162Y0181101D02*
X0207162Y0180000D01*
X0208263Y0180000D01*
X0208630Y0180367D01*
X0208263Y0180734D01*
X0207162Y0180734D01*
X0207162Y0181101D02*
X0207529Y0181468D01*
X0208263Y0181468D01*
X0209369Y0181468D02*
X0210103Y0181468D01*
X0209736Y0181835D02*
X0209736Y0180367D01*
X0209369Y0180000D01*
X0210845Y0180367D02*
X0211212Y0180000D01*
X0211946Y0180000D01*
X0212313Y0180367D01*
X0211946Y0181101D02*
X0211212Y0181101D01*
X0210845Y0180734D01*
X0210845Y0180367D01*
X0211946Y0181101D02*
X0212313Y0181468D01*
X0212313Y0181835D01*
X0211946Y0182202D01*
X0211212Y0182202D01*
X0210845Y0181835D01*
X0210840Y0182866D02*
X0210840Y0185068D01*
X0209739Y0185068D01*
X0209372Y0184701D01*
X0209372Y0183967D01*
X0209739Y0183600D01*
X0210840Y0183600D01*
X0208630Y0183600D02*
X0208630Y0185068D01*
X0207896Y0185068D02*
X0207529Y0185068D01*
X0207896Y0185068D02*
X0208630Y0184334D01*
X0207525Y0187200D02*
X0207525Y0189402D01*
X0206424Y0189402D01*
X0206057Y0189035D01*
X0206057Y0188301D01*
X0206424Y0187934D01*
X0207525Y0187934D01*
X0206791Y0187934D02*
X0206057Y0187200D01*
X0205315Y0187567D02*
X0204948Y0187200D01*
X0204214Y0187200D01*
X0203847Y0187567D01*
X0203847Y0189035D01*
X0204214Y0189402D01*
X0204948Y0189402D01*
X0205315Y0189035D01*
X0205315Y0187567D01*
X0203105Y0187934D02*
X0202004Y0187934D01*
X0201637Y0188301D01*
X0201637Y0189035D01*
X0202004Y0189402D01*
X0203105Y0189402D01*
X0203105Y0187200D01*
X0200895Y0187567D02*
X0200528Y0187200D01*
X0199794Y0187200D01*
X0199428Y0187567D01*
X0199428Y0189035D01*
X0199794Y0189402D01*
X0200528Y0189402D01*
X0200895Y0189035D01*
X0200895Y0187567D01*
X0198686Y0187567D02*
X0198319Y0187200D01*
X0197585Y0187200D01*
X0197218Y0187567D01*
X0197218Y0187934D01*
X0197585Y0188301D01*
X0198319Y0188301D01*
X0198686Y0188668D01*
X0198686Y0189035D01*
X0198319Y0189402D01*
X0197585Y0189402D01*
X0197218Y0189035D01*
X0196476Y0189402D02*
X0195742Y0189402D01*
X0196109Y0189402D02*
X0196109Y0187200D01*
X0196476Y0187200D02*
X0195742Y0187200D01*
X0194268Y0187200D02*
X0194268Y0189402D01*
X0195002Y0189402D02*
X0193534Y0189402D01*
X0193533Y0182202D02*
X0193166Y0181835D01*
X0191321Y0174635D02*
X0191321Y0173167D01*
X0190954Y0172800D01*
X0190214Y0172800D02*
X0190214Y0175002D01*
X0189847Y0174268D02*
X0189113Y0174268D01*
X0188746Y0173901D01*
X0188746Y0172800D01*
X0188004Y0172800D02*
X0187270Y0172800D01*
X0187637Y0172800D02*
X0187637Y0174268D01*
X0188004Y0174268D01*
X0187637Y0175002D02*
X0187637Y0175369D01*
X0186531Y0173901D02*
X0186164Y0174268D01*
X0185063Y0174268D01*
X0185430Y0173534D02*
X0186164Y0173534D01*
X0186531Y0173901D01*
X0186531Y0172800D02*
X0185430Y0172800D01*
X0185063Y0173167D01*
X0185430Y0173534D01*
X0185428Y0171402D02*
X0185795Y0171035D01*
X0185795Y0170668D01*
X0185428Y0170301D01*
X0184694Y0170301D01*
X0184327Y0169934D01*
X0184327Y0169567D01*
X0184694Y0169200D01*
X0185428Y0169200D01*
X0185795Y0169567D01*
X0185428Y0171402D02*
X0184694Y0171402D01*
X0184327Y0171035D01*
X0183585Y0170668D02*
X0182851Y0170668D01*
X0183218Y0171035D02*
X0183218Y0169567D01*
X0182851Y0169200D01*
X0182111Y0169567D02*
X0181744Y0169934D01*
X0180644Y0169934D01*
X0180644Y0170301D02*
X0180644Y0169200D01*
X0181744Y0169200D01*
X0182111Y0169567D01*
X0181744Y0170668D02*
X0181011Y0170668D01*
X0180644Y0170301D01*
X0179902Y0170668D02*
X0179168Y0170668D01*
X0179535Y0171035D02*
X0179535Y0169567D01*
X0179168Y0169200D01*
X0178428Y0169567D02*
X0178428Y0170301D01*
X0178061Y0170668D01*
X0177327Y0170668D01*
X0176960Y0170301D01*
X0176960Y0169934D01*
X0178428Y0169934D01*
X0178428Y0169567D02*
X0178061Y0169200D01*
X0177327Y0169200D01*
X0174009Y0169567D02*
X0174009Y0170301D01*
X0173642Y0170668D01*
X0172908Y0170668D01*
X0172541Y0170301D01*
X0172541Y0169567D01*
X0172908Y0169200D01*
X0173642Y0169200D01*
X0174009Y0169567D01*
X0171799Y0170301D02*
X0171065Y0170301D01*
X0171432Y0171035D02*
X0171065Y0171402D01*
X0171432Y0171035D02*
X0171432Y0169200D01*
X0174382Y0172800D02*
X0174382Y0173901D01*
X0174749Y0174268D01*
X0175850Y0174268D01*
X0175850Y0172800D01*
X0176591Y0174268D02*
X0176958Y0174268D01*
X0177692Y0173534D01*
X0177692Y0172800D02*
X0177692Y0174268D01*
X0178434Y0173901D02*
X0178434Y0172800D01*
X0179535Y0172800D01*
X0179902Y0173167D01*
X0179535Y0173534D01*
X0178434Y0173534D01*
X0178434Y0173901D02*
X0178801Y0174268D01*
X0179535Y0174268D01*
X0180644Y0174268D02*
X0180644Y0173167D01*
X0181010Y0172800D01*
X0181377Y0173167D01*
X0181744Y0172800D01*
X0182111Y0173167D01*
X0182111Y0174268D01*
X0181743Y0180000D02*
X0181743Y0181468D01*
X0178060Y0180367D02*
X0177693Y0180734D01*
X0176592Y0180734D01*
X0176592Y0181101D02*
X0176592Y0180000D01*
X0177693Y0180000D01*
X0178060Y0180367D01*
X0177693Y0181468D02*
X0176959Y0181468D01*
X0176592Y0181101D01*
X0175483Y0183600D02*
X0174382Y0183600D01*
X0173640Y0183600D02*
X0173640Y0185802D01*
X0173273Y0185068D02*
X0172539Y0185068D01*
X0172172Y0184701D01*
X0172172Y0183600D01*
X0171430Y0183967D02*
X0171430Y0184701D01*
X0171063Y0185068D01*
X0170329Y0185068D01*
X0169962Y0184701D01*
X0169962Y0184334D01*
X0171430Y0184334D01*
X0171430Y0183967D02*
X0171063Y0183600D01*
X0170329Y0183600D01*
X0169220Y0183600D02*
X0169220Y0185068D01*
X0168854Y0185068D01*
X0168487Y0184701D01*
X0168120Y0185068D01*
X0167753Y0184701D01*
X0167753Y0183600D01*
X0168487Y0183600D02*
X0168487Y0184701D01*
X0167011Y0185068D02*
X0166644Y0185068D01*
X0166644Y0183600D01*
X0167011Y0183600D02*
X0166277Y0183600D01*
X0165537Y0183967D02*
X0165170Y0183600D01*
X0164069Y0183600D01*
X0163327Y0183967D02*
X0162960Y0184334D01*
X0161860Y0184334D01*
X0161860Y0184701D02*
X0161860Y0183600D01*
X0162960Y0183600D01*
X0163327Y0183967D01*
X0162960Y0185068D02*
X0162227Y0185068D01*
X0161860Y0184701D01*
X0161118Y0185802D02*
X0160751Y0185802D01*
X0160751Y0183600D01*
X0161118Y0183600D02*
X0160384Y0183600D01*
X0159644Y0183600D02*
X0158543Y0183600D01*
X0158176Y0183967D01*
X0158543Y0184334D01*
X0159277Y0184334D01*
X0159644Y0184701D01*
X0159277Y0185068D01*
X0158176Y0185068D01*
X0158541Y0181468D02*
X0157807Y0181468D01*
X0157440Y0181101D01*
X0157440Y0180734D01*
X0158908Y0180734D01*
X0158908Y0181101D02*
X0158541Y0181468D01*
X0158908Y0181101D02*
X0158908Y0180367D01*
X0158541Y0180000D01*
X0157807Y0180000D01*
X0159650Y0180367D02*
X0160017Y0180734D01*
X0160751Y0180734D01*
X0161118Y0181101D01*
X0160751Y0181468D01*
X0159650Y0181468D01*
X0159650Y0180367D02*
X0160017Y0180000D01*
X0161118Y0180000D01*
X0161860Y0180000D02*
X0161860Y0181468D01*
X0163327Y0181468D02*
X0163327Y0180367D01*
X0162960Y0180000D01*
X0161860Y0180000D01*
X0161856Y0177868D02*
X0161122Y0177868D01*
X0160755Y0177501D01*
X0160755Y0177134D01*
X0162223Y0177134D01*
X0162223Y0177501D02*
X0161856Y0177868D01*
X0162223Y0177501D02*
X0162223Y0176767D01*
X0161856Y0176400D01*
X0161122Y0176400D01*
X0162964Y0177868D02*
X0163698Y0176400D01*
X0164432Y0177868D01*
X0165539Y0177868D02*
X0165539Y0176400D01*
X0165906Y0176400D02*
X0165172Y0176400D01*
X0166645Y0176400D02*
X0167012Y0176767D01*
X0167012Y0178235D01*
X0167379Y0177868D02*
X0166645Y0177868D01*
X0165906Y0177868D02*
X0165539Y0177868D01*
X0165539Y0178602D02*
X0165539Y0178969D01*
X0165170Y0180000D02*
X0165537Y0180367D01*
X0165170Y0180734D01*
X0164069Y0180734D01*
X0164069Y0181101D02*
X0164069Y0180000D01*
X0165170Y0180000D01*
X0166279Y0180000D02*
X0167380Y0180000D01*
X0167747Y0180367D01*
X0167747Y0181101D01*
X0167380Y0181468D01*
X0166279Y0181468D01*
X0165170Y0181468D02*
X0164436Y0181468D01*
X0164069Y0181101D01*
X0168121Y0177868D02*
X0169222Y0177868D01*
X0169589Y0177501D01*
X0169589Y0176767D01*
X0169222Y0176400D01*
X0168121Y0176400D01*
X0170331Y0176400D02*
X0170331Y0177868D01*
X0171799Y0177868D02*
X0171799Y0176767D01*
X0171432Y0176400D01*
X0170331Y0176400D01*
X0171066Y0180000D02*
X0170699Y0180367D01*
X0170699Y0181101D01*
X0171066Y0181468D01*
X0171800Y0181468D01*
X0172167Y0181101D01*
X0172167Y0180367D01*
X0171800Y0180000D01*
X0171066Y0180000D01*
X0172906Y0180000D02*
X0173273Y0180367D01*
X0173273Y0181835D01*
X0173640Y0181468D02*
X0172906Y0181468D01*
X0173640Y0184701D02*
X0173273Y0185068D01*
X0174382Y0185068D02*
X0175483Y0185068D01*
X0175850Y0184701D01*
X0175850Y0183967D01*
X0175483Y0183600D01*
X0175850Y0187200D02*
X0175850Y0188668D01*
X0175116Y0189402D01*
X0174382Y0188668D01*
X0174382Y0187200D01*
X0173640Y0187200D02*
X0173640Y0189402D01*
X0172539Y0189402D01*
X0172172Y0189035D01*
X0172172Y0188301D01*
X0172539Y0187934D01*
X0173640Y0187934D01*
X0172906Y0187934D02*
X0172172Y0187200D01*
X0171430Y0187200D02*
X0171430Y0189402D01*
X0169962Y0187200D01*
X0169962Y0189402D01*
X0169220Y0189402D02*
X0168487Y0189402D01*
X0168854Y0189402D02*
X0168854Y0187200D01*
X0169220Y0187200D02*
X0168487Y0187200D01*
X0167747Y0187200D02*
X0167747Y0189402D01*
X0166279Y0187200D01*
X0166279Y0189402D01*
X0165537Y0189035D02*
X0165170Y0189402D01*
X0164436Y0189402D01*
X0164069Y0189035D01*
X0164069Y0188301D02*
X0164803Y0188301D01*
X0164069Y0188301D02*
X0164069Y0187567D01*
X0164436Y0187200D01*
X0165170Y0187200D01*
X0165537Y0187567D01*
X0165537Y0189035D01*
X0166644Y0186169D02*
X0166644Y0185802D01*
X0165537Y0184701D02*
X0165537Y0183967D01*
X0165537Y0184701D02*
X0165170Y0185068D01*
X0164069Y0185068D01*
X0174382Y0188301D02*
X0175850Y0188301D01*
X0176592Y0187200D02*
X0176592Y0189402D01*
X0178060Y0189402D02*
X0178060Y0187200D01*
X0177326Y0187934D01*
X0176592Y0187200D01*
X0165170Y0174635D02*
X0165170Y0173167D01*
X0164803Y0172800D01*
X0164803Y0174268D02*
X0165537Y0174268D01*
X0163696Y0171402D02*
X0163329Y0171402D01*
X0188746Y0170301D02*
X0188746Y0169934D01*
X0190214Y0169934D01*
X0190214Y0169567D02*
X0190214Y0170301D01*
X0189847Y0170668D01*
X0189113Y0170668D01*
X0188746Y0170301D01*
X0189113Y0169200D02*
X0189847Y0169200D01*
X0190214Y0169567D01*
X0190956Y0169200D02*
X0190956Y0170301D01*
X0191323Y0170668D01*
X0192057Y0170668D01*
X0192424Y0170301D01*
X0193164Y0170668D02*
X0193897Y0170668D01*
X0193530Y0171035D02*
X0193530Y0169567D01*
X0193164Y0169200D01*
X0192424Y0169200D02*
X0192424Y0171402D01*
X0191688Y0174268D02*
X0190954Y0174268D01*
X0190214Y0173901D02*
X0189847Y0174268D01*
X0196849Y0170301D02*
X0196849Y0169200D01*
X0196849Y0170301D02*
X0197216Y0170668D01*
X0198317Y0170668D01*
X0198317Y0169200D01*
X0199057Y0169200D02*
X0199790Y0169200D01*
X0199423Y0169200D02*
X0199423Y0170668D01*
X0199790Y0170668D01*
X0199423Y0171402D02*
X0199423Y0171769D01*
X0202374Y0172800D02*
X0203475Y0172800D01*
X0203842Y0173167D01*
X0203842Y0174268D01*
X0204584Y0174268D02*
X0205685Y0174268D01*
X0206052Y0173901D01*
X0206052Y0173167D01*
X0205685Y0172800D01*
X0204584Y0172800D01*
X0204584Y0172066D02*
X0204584Y0174268D01*
X0206794Y0173901D02*
X0206794Y0173534D01*
X0208262Y0173534D01*
X0208262Y0173901D02*
X0207895Y0174268D01*
X0207161Y0174268D01*
X0206794Y0173901D01*
X0207161Y0172800D02*
X0207895Y0172800D01*
X0208262Y0173167D01*
X0208262Y0173901D01*
X0209002Y0174268D02*
X0209369Y0174268D01*
X0210103Y0173534D01*
X0210103Y0172800D02*
X0210103Y0174268D01*
X0210473Y0176400D02*
X0209372Y0176400D01*
X0210473Y0176400D02*
X0210840Y0176767D01*
X0210840Y0177501D01*
X0210473Y0177868D01*
X0209372Y0177868D01*
X0208630Y0177868D02*
X0207896Y0177868D01*
X0208263Y0178235D02*
X0208263Y0176767D01*
X0207896Y0176400D01*
X0207157Y0176400D02*
X0206056Y0176400D01*
X0205689Y0176767D01*
X0206056Y0177134D01*
X0206790Y0177134D01*
X0207157Y0177501D01*
X0206790Y0177868D01*
X0205689Y0177868D01*
X0211582Y0177501D02*
X0211582Y0177134D01*
X0213050Y0177134D01*
X0213050Y0177501D02*
X0212683Y0177868D01*
X0211949Y0177868D01*
X0211582Y0177501D01*
X0211949Y0176400D02*
X0212683Y0176400D01*
X0213050Y0176767D01*
X0213050Y0177501D01*
X0213789Y0177501D02*
X0214523Y0177501D01*
X0215265Y0177501D02*
X0215265Y0177134D01*
X0216733Y0177134D01*
X0216733Y0177501D02*
X0216366Y0177868D01*
X0215632Y0177868D01*
X0215265Y0177501D01*
X0215632Y0176400D02*
X0216366Y0176400D01*
X0216733Y0176767D01*
X0216733Y0177501D01*
X0217475Y0177868D02*
X0218576Y0177868D01*
X0218943Y0177501D01*
X0218943Y0176767D01*
X0218576Y0176400D01*
X0217475Y0176400D01*
X0217475Y0178602D01*
X0217475Y0180000D02*
X0217475Y0181101D01*
X0217842Y0181468D01*
X0218576Y0181468D01*
X0218943Y0181101D01*
X0219682Y0181468D02*
X0220416Y0181468D01*
X0220049Y0181835D02*
X0220049Y0180367D01*
X0219682Y0180000D01*
X0218943Y0180000D02*
X0218943Y0182202D01*
X0218943Y0183600D02*
X0218943Y0185802D01*
X0219685Y0185802D02*
X0221153Y0185802D01*
X0220419Y0185802D02*
X0220419Y0183600D01*
X0218943Y0184701D02*
X0218576Y0185068D01*
X0217842Y0185068D01*
X0217475Y0184701D01*
X0217475Y0183600D01*
X0216733Y0183600D02*
X0215999Y0183600D01*
X0216366Y0183600D02*
X0216366Y0185068D01*
X0216733Y0185068D01*
X0216366Y0185802D02*
X0216366Y0186169D01*
X0216370Y0187200D02*
X0216370Y0189402D01*
X0215628Y0189402D02*
X0214894Y0189402D01*
X0215261Y0189402D02*
X0215261Y0187200D01*
X0215628Y0187200D02*
X0214894Y0187200D01*
X0214155Y0187200D02*
X0214155Y0188668D01*
X0213421Y0189402D01*
X0212687Y0188668D01*
X0212687Y0187200D01*
X0212687Y0188301D02*
X0214155Y0188301D01*
X0216370Y0187200D02*
X0217838Y0189402D01*
X0217838Y0187200D01*
X0218580Y0187200D02*
X0219314Y0187934D01*
X0218947Y0187934D02*
X0220048Y0187934D01*
X0220048Y0187200D02*
X0220048Y0189402D01*
X0218947Y0189402D01*
X0218580Y0189035D01*
X0218580Y0188301D01*
X0218947Y0187934D01*
X0220790Y0187567D02*
X0220790Y0189035D01*
X0221157Y0189402D01*
X0221891Y0189402D01*
X0222258Y0189035D01*
X0222258Y0187567D01*
X0221891Y0187200D01*
X0221157Y0187200D01*
X0220790Y0187567D01*
X0223000Y0189402D02*
X0224467Y0189402D01*
X0224467Y0187200D01*
X0225207Y0187200D02*
X0225941Y0187200D01*
X0225574Y0187200D02*
X0225574Y0189402D01*
X0225941Y0189402D02*
X0225207Y0189402D01*
X0224467Y0188301D02*
X0223734Y0188301D01*
X0225576Y0185802D02*
X0226310Y0185802D01*
X0226677Y0185435D01*
X0226677Y0183967D01*
X0226310Y0183600D01*
X0225576Y0183600D01*
X0225209Y0183967D01*
X0225209Y0184701D01*
X0225943Y0184701D01*
X0225209Y0185435D02*
X0225576Y0185802D01*
X0224467Y0185068D02*
X0224467Y0184701D01*
X0224100Y0184701D01*
X0224100Y0185068D01*
X0224467Y0185068D01*
X0224467Y0183967D02*
X0224467Y0183600D01*
X0224100Y0183600D01*
X0224100Y0183967D01*
X0224467Y0183967D01*
X0224469Y0181468D02*
X0224836Y0181101D01*
X0224836Y0180367D01*
X0224469Y0180000D01*
X0223735Y0180000D01*
X0223368Y0180367D01*
X0223368Y0181101D01*
X0223735Y0181468D01*
X0224469Y0181468D01*
X0225575Y0181468D02*
X0226309Y0181468D01*
X0225942Y0181835D02*
X0225942Y0180367D01*
X0225575Y0180000D01*
X0224469Y0178235D02*
X0224469Y0176767D01*
X0224102Y0176400D01*
X0223363Y0176400D02*
X0223363Y0178602D01*
X0222996Y0177868D02*
X0222262Y0177868D01*
X0221895Y0177501D01*
X0221895Y0176400D01*
X0223363Y0177501D02*
X0222996Y0177868D01*
X0224102Y0177868D02*
X0224836Y0177868D01*
X0225576Y0177868D02*
X0225943Y0177868D01*
X0226677Y0177134D01*
X0226677Y0176400D02*
X0226677Y0177868D01*
X0227784Y0177868D02*
X0227784Y0176400D01*
X0228151Y0176400D02*
X0227417Y0176400D01*
X0227784Y0177868D02*
X0228151Y0177868D01*
X0227784Y0178602D02*
X0227784Y0178969D01*
X0229261Y0180000D02*
X0229261Y0181101D01*
X0229628Y0181468D01*
X0230729Y0181468D01*
X0230729Y0180000D01*
X0231471Y0180367D02*
X0231471Y0181468D01*
X0231471Y0180367D02*
X0231838Y0180000D01*
X0232205Y0180367D01*
X0232572Y0180000D01*
X0232939Y0180367D01*
X0232939Y0181468D01*
X0233681Y0181101D02*
X0234048Y0181468D01*
X0234782Y0181468D01*
X0235149Y0181101D01*
X0235149Y0180367D01*
X0234782Y0180000D01*
X0234048Y0180000D01*
X0233681Y0180367D01*
X0233681Y0181101D01*
X0235891Y0181101D02*
X0236257Y0181468D01*
X0237358Y0181468D01*
X0237358Y0180000D01*
X0238099Y0180000D02*
X0239200Y0180734D01*
X0238099Y0181468D01*
X0239200Y0182202D02*
X0239200Y0180000D01*
X0238833Y0177868D02*
X0238099Y0177868D01*
X0237732Y0177501D01*
X0237732Y0176400D01*
X0238833Y0176400D01*
X0239200Y0176767D01*
X0238833Y0177134D01*
X0237732Y0177134D01*
X0236990Y0177868D02*
X0235889Y0177868D01*
X0235522Y0177501D01*
X0235522Y0176400D01*
X0234780Y0176767D02*
X0234780Y0177501D01*
X0234413Y0177868D01*
X0233312Y0177868D01*
X0233312Y0178602D02*
X0233312Y0176400D01*
X0234413Y0176400D01*
X0234780Y0176767D01*
X0234780Y0175002D02*
X0234413Y0175002D01*
X0234413Y0172800D01*
X0234780Y0172800D02*
X0234046Y0172800D01*
X0233307Y0172800D02*
X0232573Y0172800D01*
X0232940Y0172800D02*
X0232940Y0174268D01*
X0233307Y0174268D01*
X0232940Y0175002D02*
X0232940Y0175369D01*
X0231467Y0174635D02*
X0231100Y0175002D01*
X0231467Y0174635D02*
X0231467Y0172800D01*
X0231834Y0173901D02*
X0231100Y0173901D01*
X0230360Y0173901D02*
X0230360Y0173167D01*
X0229994Y0172800D01*
X0229260Y0172800D01*
X0228893Y0173167D01*
X0228893Y0173901D01*
X0229260Y0174268D01*
X0229994Y0174268D01*
X0230360Y0173901D01*
X0228151Y0174268D02*
X0228151Y0172800D01*
X0228151Y0173534D02*
X0227417Y0174268D01*
X0227050Y0174268D01*
X0226309Y0174268D02*
X0225208Y0174268D01*
X0224841Y0173901D01*
X0224841Y0172800D01*
X0224099Y0172800D02*
X0223365Y0172800D01*
X0223732Y0172800D02*
X0223732Y0174268D01*
X0224099Y0174268D01*
X0223732Y0175002D02*
X0223732Y0175369D01*
X0222259Y0174268D02*
X0221525Y0174268D01*
X0221158Y0173901D01*
X0221158Y0172800D01*
X0222259Y0172800D01*
X0222626Y0173167D01*
X0222259Y0173534D01*
X0221158Y0173534D01*
X0220417Y0170668D02*
X0220784Y0170301D01*
X0220784Y0169567D01*
X0220417Y0169200D01*
X0219316Y0169200D01*
X0218574Y0169567D02*
X0218574Y0170668D01*
X0219316Y0170668D02*
X0220417Y0170668D01*
X0218574Y0169567D02*
X0218207Y0169200D01*
X0217107Y0169200D01*
X0217107Y0170668D01*
X0216365Y0170301D02*
X0215998Y0170668D01*
X0214897Y0170668D01*
X0214155Y0170668D02*
X0213421Y0170668D01*
X0213788Y0171035D02*
X0213788Y0169567D01*
X0213421Y0169200D01*
X0212681Y0169567D02*
X0212314Y0169200D01*
X0211581Y0169200D01*
X0211214Y0169567D01*
X0211214Y0170301D01*
X0211581Y0170668D01*
X0212314Y0170668D01*
X0212681Y0170301D01*
X0212681Y0169567D01*
X0214897Y0169567D02*
X0215264Y0169934D01*
X0215998Y0169934D01*
X0216365Y0170301D01*
X0216365Y0169200D02*
X0215264Y0169200D01*
X0214897Y0169567D01*
X0215265Y0172800D02*
X0216366Y0172800D01*
X0216733Y0173167D01*
X0216366Y0173534D01*
X0215265Y0173534D01*
X0215265Y0173901D02*
X0215265Y0172800D01*
X0214523Y0173167D02*
X0214156Y0172800D01*
X0213789Y0173167D01*
X0213422Y0172800D01*
X0213055Y0173167D01*
X0213055Y0174268D01*
X0214523Y0174268D02*
X0214523Y0173167D01*
X0215265Y0173901D02*
X0215632Y0174268D01*
X0216366Y0174268D01*
X0217839Y0175002D02*
X0217839Y0172800D01*
X0218206Y0172800D02*
X0217472Y0172800D01*
X0217839Y0175002D02*
X0218206Y0175002D01*
X0214156Y0176400D02*
X0214156Y0178235D01*
X0213789Y0178602D01*
X0215632Y0180000D02*
X0216366Y0180000D01*
X0216733Y0180367D01*
X0216733Y0181101D01*
X0216366Y0181468D01*
X0215632Y0181468D01*
X0215265Y0181101D01*
X0215265Y0180734D01*
X0216733Y0180734D01*
X0215260Y0183600D02*
X0214159Y0183600D01*
X0213792Y0183967D01*
X0214159Y0184334D01*
X0214893Y0184334D01*
X0215260Y0184701D01*
X0214893Y0185068D01*
X0213792Y0185068D01*
X0209735Y0187200D02*
X0209735Y0189402D01*
X0208634Y0189402D01*
X0208267Y0189035D01*
X0208267Y0188301D01*
X0208634Y0187934D01*
X0209735Y0187934D01*
X0226683Y0187200D02*
X0228151Y0187200D01*
X0228151Y0189402D01*
X0228893Y0188668D02*
X0229627Y0189402D01*
X0230360Y0188668D01*
X0230360Y0187200D01*
X0231102Y0187567D02*
X0231469Y0187200D01*
X0232203Y0187200D01*
X0232570Y0187567D01*
X0232570Y0189035D01*
X0232203Y0189402D01*
X0231469Y0189402D01*
X0231102Y0189035D01*
X0230360Y0188301D02*
X0228893Y0188301D01*
X0228893Y0188668D02*
X0228893Y0187200D01*
X0228887Y0185802D02*
X0227419Y0183600D01*
X0227419Y0185802D01*
X0228887Y0185802D02*
X0228887Y0183600D01*
X0229627Y0183600D02*
X0230360Y0183600D01*
X0229994Y0183600D02*
X0229994Y0185802D01*
X0230360Y0185802D02*
X0229627Y0185802D01*
X0231102Y0185802D02*
X0231102Y0183600D01*
X0232570Y0185802D01*
X0232570Y0183600D01*
X0233312Y0183600D02*
X0234046Y0184334D01*
X0233679Y0184334D02*
X0234780Y0184334D01*
X0234780Y0183600D02*
X0234780Y0185802D01*
X0233679Y0185802D01*
X0233312Y0185435D01*
X0233312Y0184701D01*
X0233679Y0184334D01*
X0235522Y0184701D02*
X0236990Y0184701D01*
X0236990Y0185068D02*
X0236256Y0185802D01*
X0235522Y0185068D01*
X0235522Y0183600D01*
X0236990Y0183600D02*
X0236990Y0185068D01*
X0237732Y0185802D02*
X0237732Y0183600D01*
X0238466Y0184334D01*
X0239200Y0183600D01*
X0239200Y0185802D01*
X0235891Y0181101D02*
X0235891Y0180000D01*
X0236990Y0177868D02*
X0236990Y0176400D01*
X0238099Y0175002D02*
X0238833Y0175002D01*
X0239200Y0174635D01*
X0239200Y0173167D01*
X0238833Y0172800D01*
X0238099Y0172800D01*
X0237732Y0173167D01*
X0236990Y0173167D02*
X0236623Y0173534D01*
X0235522Y0173534D01*
X0235522Y0173901D02*
X0235522Y0172800D01*
X0236623Y0172800D01*
X0236990Y0173167D01*
X0236623Y0174268D02*
X0235889Y0174268D01*
X0235522Y0173901D01*
X0237732Y0174635D02*
X0238099Y0175002D01*
X0236623Y0171769D02*
X0236623Y0171402D01*
X0236623Y0170668D02*
X0236623Y0169200D01*
X0236990Y0169200D02*
X0236256Y0169200D01*
X0234783Y0169200D02*
X0234049Y0170668D01*
X0233307Y0170301D02*
X0232940Y0170668D01*
X0232206Y0170668D01*
X0231839Y0170301D01*
X0231839Y0169934D01*
X0233307Y0169934D01*
X0233307Y0169567D02*
X0233307Y0170301D01*
X0233307Y0169567D02*
X0232940Y0169200D01*
X0232206Y0169200D01*
X0231097Y0169200D02*
X0231097Y0170668D01*
X0229996Y0170668D01*
X0229629Y0170301D01*
X0229629Y0169200D01*
X0226677Y0170668D02*
X0225943Y0170668D01*
X0226310Y0171035D02*
X0226310Y0169567D01*
X0225943Y0169200D01*
X0225204Y0169567D02*
X0224837Y0169200D01*
X0224103Y0169200D01*
X0223736Y0169567D01*
X0223736Y0170301D01*
X0224103Y0170668D01*
X0224837Y0170668D01*
X0225204Y0170301D01*
X0225204Y0169567D01*
X0226309Y0172800D02*
X0226309Y0174268D01*
X0228893Y0176767D02*
X0228893Y0177501D01*
X0229260Y0177868D01*
X0230360Y0177868D01*
X0230360Y0178602D02*
X0230360Y0176400D01*
X0229260Y0176400D01*
X0228893Y0176767D01*
X0235517Y0170668D02*
X0234783Y0169200D01*
X0236623Y0170668D02*
X0236990Y0170668D01*
X0237732Y0170668D02*
X0238833Y0170668D01*
X0239200Y0170301D01*
X0239200Y0169567D01*
X0238833Y0169200D01*
X0237732Y0169200D01*
X0237732Y0168833D02*
X0237732Y0170668D01*
X0237732Y0168833D02*
X0238099Y0168466D01*
X0238466Y0168466D01*
X0210472Y0169200D02*
X0210472Y0170668D01*
X0210105Y0170668D01*
X0209738Y0170301D01*
X0209371Y0170668D01*
X0209004Y0170301D01*
X0209004Y0169200D01*
X0209738Y0169200D02*
X0209738Y0170301D01*
X0208262Y0170301D02*
X0207895Y0170668D01*
X0207161Y0170668D01*
X0206794Y0170301D01*
X0206794Y0169934D01*
X0208262Y0169934D01*
X0208262Y0169567D02*
X0208262Y0170301D01*
X0208262Y0169567D02*
X0207895Y0169200D01*
X0207161Y0169200D01*
X0206052Y0169200D02*
X0206052Y0170668D01*
X0206052Y0169934D02*
X0205318Y0170668D01*
X0204951Y0170668D01*
X0204210Y0170301D02*
X0203843Y0170668D01*
X0202742Y0170668D01*
X0203109Y0169934D02*
X0203843Y0169934D01*
X0204210Y0170301D01*
X0204210Y0169200D02*
X0203109Y0169200D01*
X0202742Y0169567D01*
X0203109Y0169934D01*
M02*
