%
M48
M72
T01C0.03200
T02C0.03543
T03C0.04000
T04C0.05118
T05C0.06693
T06C0.12598
%
T01
X19300Y141800
X19300Y151800
T02
X19300Y181800
X19300Y221800
X35550Y116800
X75550Y116800
T03
X306800Y231800
X316800Y230800
X326800Y231800
X336800Y230800
X346800Y231800
X356800Y230800
T04
X262300Y236800
X241615Y236800
X222300Y236800
X201615Y236800
X116800Y236800
X97115Y236800
X76800Y236800
X57115Y236800
T05
X60619Y173800
X76209Y173800
X91800Y173800
X107391Y173800
X122981Y173800
X257119Y173800
X272709Y173800
X288300Y173800
X303891Y173800
X319481Y173800
X319481Y61800
X303891Y61800
X288300Y61800
X272709Y61800
X257119Y61800
X122981Y61800
X107391Y61800
X91800Y61800
X76209Y61800
X60619Y61800
T06
X19300Y19300
X16800Y254300
X376800Y19300
X379300Y254300
M30
