%
M48
M72
T01C0.03200
T02C0.03543
T03C0.03937
T04C0.04000
T05C0.04400
T06C0.05118
%
T01
X21800Y171800
X21800Y181800
T02
X21800Y211800
X21800Y251800
T03
X201800Y86800
X251985Y81615
T04
X306800Y231800
X316800Y230800
X326800Y231800
X336800Y230800
X346800Y231800
X356800Y230800
T05
X71800Y56800
X81800Y56800
X91800Y56800
X101800Y56800
X111800Y56800
X286800Y56800
X296800Y56800
X306800Y56800
X316800Y56800
X326800Y56800
X326800Y201800
X316800Y201800
X306800Y201800
X296800Y201800
X286800Y201800
X111800Y201800
X101800Y201800
X91800Y201800
X81800Y201800
X71800Y201800
T06
X66800Y236800
X47115Y236800
X97115Y236800
X116800Y236800
X201615Y236800
X222300Y236800
X251615Y236800
X272300Y236800
M30
