G75*
%MOIN*%
%OFA0B0*%
%FSLAX25Y25*%
%IPPOS*%
%LPD*%
%AMOC8*
5,1,8,0,0,1.08239X$1,22.5*
%
%ADD10C,0.00000*%
%ADD11C,0.05200*%
%ADD12OC8,0.05200*%
%ADD13C,0.07400*%
%ADD14C,0.07400*%
%ADD15R,0.08000X0.08000*%
%ADD16C,0.08000*%
%ADD17R,0.05000X0.10000*%
%ADD18C,0.02400*%
%ADD19C,0.05906*%
%ADD20C,0.01600*%
%ADD21C,0.01200*%
D10*
X0001800Y0001800D02*
X0001800Y0273454D01*
X0395501Y0273454D01*
X0395501Y0001800D01*
X0001800Y0001800D01*
D11*
X0021800Y0171800D03*
D12*
X0021800Y0181800D03*
D13*
X0071800Y0198100D02*
X0071800Y0205500D01*
X0081800Y0205500D02*
X0081800Y0198100D01*
X0091800Y0198100D02*
X0091800Y0205500D01*
X0101800Y0205500D02*
X0101800Y0198100D01*
X0111800Y0198100D02*
X0111800Y0205500D01*
X0286800Y0205500D02*
X0286800Y0198100D01*
X0296800Y0198100D02*
X0296800Y0205500D01*
X0306800Y0205500D02*
X0306800Y0198100D01*
X0316800Y0198100D02*
X0316800Y0205500D01*
X0326800Y0205500D02*
X0326800Y0198100D01*
X0326800Y0060500D02*
X0326800Y0053100D01*
X0316800Y0053100D02*
X0316800Y0060500D01*
X0306800Y0060500D02*
X0306800Y0053100D01*
X0296800Y0053100D02*
X0296800Y0060500D01*
X0286800Y0060500D02*
X0286800Y0053100D01*
X0111800Y0053100D02*
X0111800Y0060500D01*
X0101800Y0060500D02*
X0101800Y0053100D01*
X0091800Y0053100D02*
X0091800Y0060500D01*
X0081800Y0060500D02*
X0081800Y0053100D01*
X0071800Y0053100D02*
X0071800Y0060500D01*
D14*
X0021800Y0211800D03*
X0021800Y0251800D03*
X0306800Y0231800D03*
X0316800Y0230800D03*
X0326800Y0231800D03*
X0336800Y0230800D03*
X0346800Y0231800D03*
X0356800Y0230800D03*
D15*
X0272300Y0236800D03*
X0222300Y0236800D03*
X0116800Y0236800D03*
X0066800Y0236800D03*
D16*
X0047115Y0236800D03*
X0097115Y0236800D03*
X0201615Y0236800D03*
X0251615Y0236800D03*
D17*
X0031800Y0096800D03*
X0021800Y0096800D03*
D18*
X0021800Y0141800D01*
X0036800Y0156800D01*
X0036800Y0221800D01*
X0041800Y0226800D01*
X0087115Y0226800D01*
X0097115Y0236800D01*
X0086800Y0216800D02*
X0171800Y0216800D01*
X0181800Y0226800D01*
X0181800Y0251800D01*
X0186800Y0256800D01*
X0216800Y0256800D01*
X0221800Y0251800D01*
X0221800Y0237300D01*
X0222300Y0236800D01*
X0201615Y0236800D02*
X0201800Y0176615D01*
X0201800Y0086800D01*
X0251985Y0081615D02*
X0251615Y0236800D01*
X0316800Y0201800D02*
X0316800Y0056800D01*
X0101800Y0056800D02*
X0101800Y0096800D01*
X0031800Y0096800D01*
X0101800Y0096800D02*
X0101800Y0201800D01*
X0081800Y0201800D02*
X0081800Y0211800D01*
X0086800Y0216800D01*
D19*
X0201800Y0086800D03*
X0251985Y0081615D03*
D20*
X0247765Y0083324D02*
X0204763Y0083324D01*
X0204379Y0082940D02*
X0205660Y0084221D01*
X0206353Y0085894D01*
X0206353Y0087706D01*
X0205660Y0089379D01*
X0204600Y0090439D01*
X0204600Y0176062D01*
X0204602Y0176067D01*
X0204600Y0176619D01*
X0204600Y0177172D01*
X0204598Y0177176D01*
X0204430Y0231905D01*
X0204787Y0232053D01*
X0206362Y0233628D01*
X0207215Y0235686D01*
X0207215Y0237914D01*
X0206362Y0239972D01*
X0204787Y0241547D01*
X0202729Y0242400D01*
X0200501Y0242400D01*
X0198443Y0241547D01*
X0196868Y0239972D01*
X0196015Y0237914D01*
X0196015Y0235686D01*
X0196868Y0233628D01*
X0198443Y0232053D01*
X0198830Y0231892D01*
X0199000Y0176610D01*
X0199000Y0090439D01*
X0197940Y0089379D01*
X0197247Y0087706D01*
X0197247Y0085894D01*
X0197940Y0084221D01*
X0199221Y0082940D01*
X0200894Y0082247D01*
X0202706Y0082247D01*
X0204379Y0082940D01*
X0205950Y0084923D02*
X0248854Y0084923D01*
X0249176Y0085245D02*
X0248125Y0084194D01*
X0247432Y0082521D01*
X0247432Y0080709D01*
X0248125Y0079036D01*
X0249406Y0077755D01*
X0251079Y0077062D01*
X0252891Y0077062D01*
X0254564Y0077755D01*
X0255845Y0079036D01*
X0256538Y0080709D01*
X0256538Y0082521D01*
X0255845Y0084194D01*
X0254776Y0085262D01*
X0254427Y0231903D01*
X0254787Y0232053D01*
X0256362Y0233628D01*
X0257215Y0235686D01*
X0257215Y0237914D01*
X0256362Y0239972D01*
X0254787Y0241547D01*
X0252729Y0242400D01*
X0250501Y0242400D01*
X0248443Y0241547D01*
X0246868Y0239972D01*
X0246015Y0237914D01*
X0246015Y0235686D01*
X0246868Y0233628D01*
X0248443Y0232053D01*
X0248827Y0231894D01*
X0249176Y0085245D01*
X0249173Y0086521D02*
X0206353Y0086521D01*
X0206181Y0088120D02*
X0249170Y0088120D01*
X0249166Y0089718D02*
X0205320Y0089718D01*
X0204600Y0091317D02*
X0249162Y0091317D01*
X0249158Y0092915D02*
X0204600Y0092915D01*
X0204600Y0094514D02*
X0249154Y0094514D01*
X0249150Y0096112D02*
X0204600Y0096112D01*
X0204600Y0097711D02*
X0249147Y0097711D01*
X0249143Y0099309D02*
X0204600Y0099309D01*
X0204600Y0100908D02*
X0249139Y0100908D01*
X0249135Y0102506D02*
X0204600Y0102506D01*
X0204600Y0104105D02*
X0249131Y0104105D01*
X0249128Y0105703D02*
X0204600Y0105703D01*
X0204600Y0107302D02*
X0249124Y0107302D01*
X0249120Y0108900D02*
X0204600Y0108900D01*
X0204600Y0110499D02*
X0249116Y0110499D01*
X0249112Y0112097D02*
X0204600Y0112097D01*
X0204600Y0113696D02*
X0249109Y0113696D01*
X0249105Y0115294D02*
X0204600Y0115294D01*
X0204600Y0116893D02*
X0249101Y0116893D01*
X0249097Y0118491D02*
X0204600Y0118491D01*
X0204600Y0120090D02*
X0249093Y0120090D01*
X0249089Y0121688D02*
X0204600Y0121688D01*
X0204600Y0123287D02*
X0249086Y0123287D01*
X0249082Y0124885D02*
X0204600Y0124885D01*
X0204600Y0126484D02*
X0249078Y0126484D01*
X0249074Y0128082D02*
X0204600Y0128082D01*
X0204600Y0129681D02*
X0249070Y0129681D01*
X0249067Y0131279D02*
X0204600Y0131279D01*
X0204600Y0132878D02*
X0249063Y0132878D01*
X0249059Y0134476D02*
X0204600Y0134476D01*
X0204600Y0136075D02*
X0249055Y0136075D01*
X0249051Y0137673D02*
X0204600Y0137673D01*
X0204600Y0139272D02*
X0249048Y0139272D01*
X0249044Y0140870D02*
X0204600Y0140870D01*
X0204600Y0142469D02*
X0249040Y0142469D01*
X0249036Y0144068D02*
X0204600Y0144068D01*
X0204600Y0145666D02*
X0249032Y0145666D01*
X0249028Y0147265D02*
X0204600Y0147265D01*
X0204600Y0148863D02*
X0249025Y0148863D01*
X0249021Y0150462D02*
X0204600Y0150462D01*
X0204600Y0152060D02*
X0249017Y0152060D01*
X0249013Y0153659D02*
X0204600Y0153659D01*
X0204600Y0155257D02*
X0249009Y0155257D01*
X0249006Y0156856D02*
X0204600Y0156856D01*
X0204600Y0158454D02*
X0249002Y0158454D01*
X0248998Y0160053D02*
X0204600Y0160053D01*
X0204600Y0161651D02*
X0248994Y0161651D01*
X0248990Y0163250D02*
X0204600Y0163250D01*
X0204600Y0164848D02*
X0248987Y0164848D01*
X0248983Y0166447D02*
X0204600Y0166447D01*
X0204600Y0168045D02*
X0248979Y0168045D01*
X0248975Y0169644D02*
X0204600Y0169644D01*
X0204600Y0171242D02*
X0248971Y0171242D01*
X0248967Y0172841D02*
X0204600Y0172841D01*
X0204600Y0174439D02*
X0248964Y0174439D01*
X0248960Y0176038D02*
X0204600Y0176038D01*
X0204597Y0177636D02*
X0248956Y0177636D01*
X0248952Y0179235D02*
X0204592Y0179235D01*
X0204587Y0180833D02*
X0248948Y0180833D01*
X0248945Y0182432D02*
X0204582Y0182432D01*
X0204577Y0184030D02*
X0248941Y0184030D01*
X0248937Y0185629D02*
X0204572Y0185629D01*
X0204567Y0187227D02*
X0248933Y0187227D01*
X0248929Y0188826D02*
X0204562Y0188826D01*
X0204558Y0190424D02*
X0248926Y0190424D01*
X0248922Y0192023D02*
X0204553Y0192023D01*
X0204548Y0193621D02*
X0248918Y0193621D01*
X0248914Y0195220D02*
X0204543Y0195220D01*
X0204538Y0196818D02*
X0248910Y0196818D01*
X0248906Y0198417D02*
X0204533Y0198417D01*
X0204528Y0200015D02*
X0248903Y0200015D01*
X0248899Y0201614D02*
X0204523Y0201614D01*
X0204518Y0203212D02*
X0248895Y0203212D01*
X0248891Y0204811D02*
X0204513Y0204811D01*
X0204508Y0206409D02*
X0248887Y0206409D01*
X0248884Y0208008D02*
X0204503Y0208008D01*
X0204499Y0209606D02*
X0248880Y0209606D01*
X0248876Y0211205D02*
X0204494Y0211205D01*
X0204489Y0212803D02*
X0248872Y0212803D01*
X0248868Y0214402D02*
X0204484Y0214402D01*
X0204479Y0216001D02*
X0248865Y0216001D01*
X0248861Y0217599D02*
X0204474Y0217599D01*
X0204469Y0219198D02*
X0248857Y0219198D01*
X0248853Y0220796D02*
X0204464Y0220796D01*
X0204459Y0222395D02*
X0248849Y0222395D01*
X0248845Y0223993D02*
X0204454Y0223993D01*
X0204449Y0225592D02*
X0248842Y0225592D01*
X0248838Y0227190D02*
X0204445Y0227190D01*
X0204440Y0228789D02*
X0248834Y0228789D01*
X0248830Y0230387D02*
X0204435Y0230387D01*
X0204626Y0231986D02*
X0216852Y0231986D01*
X0216700Y0232137D02*
X0217637Y0231200D01*
X0226963Y0231200D01*
X0227900Y0232137D01*
X0227900Y0241463D01*
X0226963Y0242400D01*
X0224600Y0242400D01*
X0224600Y0252357D01*
X0224174Y0253386D01*
X0223386Y0254174D01*
X0218386Y0259174D01*
X0217357Y0259600D01*
X0186243Y0259600D01*
X0185214Y0259174D01*
X0184426Y0258386D01*
X0179426Y0253386D01*
X0179000Y0252357D01*
X0179000Y0227960D01*
X0170640Y0219600D01*
X0086243Y0219600D01*
X0085214Y0219174D01*
X0084426Y0218386D01*
X0079426Y0213386D01*
X0079000Y0212357D01*
X0079000Y0210077D01*
X0078798Y0209993D01*
X0077307Y0208502D01*
X0076800Y0207278D01*
X0076293Y0208502D01*
X0074802Y0209993D01*
X0072854Y0210800D01*
X0070746Y0210800D01*
X0068798Y0209993D01*
X0067307Y0208502D01*
X0066500Y0206554D01*
X0066500Y0197046D01*
X0067307Y0195098D01*
X0068798Y0193607D01*
X0070746Y0192800D01*
X0072854Y0192800D01*
X0074802Y0193607D01*
X0076293Y0195098D01*
X0076800Y0196322D01*
X0077307Y0195098D01*
X0078798Y0193607D01*
X0080746Y0192800D01*
X0082854Y0192800D01*
X0084802Y0193607D01*
X0086293Y0195098D01*
X0086685Y0196044D01*
X0086703Y0195989D01*
X0087096Y0195217D01*
X0087605Y0194517D01*
X0088217Y0193905D01*
X0088917Y0193396D01*
X0089689Y0193003D01*
X0090512Y0192735D01*
X0091367Y0192600D01*
X0091500Y0192600D01*
X0091500Y0201500D01*
X0092100Y0201500D01*
X0092100Y0192600D01*
X0092233Y0192600D01*
X0093088Y0192735D01*
X0093911Y0193003D01*
X0094683Y0193396D01*
X0095383Y0193905D01*
X0095995Y0194517D01*
X0096504Y0195217D01*
X0096897Y0195989D01*
X0096915Y0196044D01*
X0097307Y0195098D01*
X0098798Y0193607D01*
X0099000Y0193523D01*
X0099000Y0099600D01*
X0035900Y0099600D01*
X0035900Y0102463D01*
X0034963Y0103400D01*
X0028637Y0103400D01*
X0027700Y0102463D01*
X0027700Y0091137D01*
X0028637Y0090200D01*
X0034963Y0090200D01*
X0035900Y0091137D01*
X0035900Y0094000D01*
X0099000Y0094000D01*
X0099000Y0065077D01*
X0098798Y0064993D01*
X0097307Y0063502D01*
X0096915Y0062556D01*
X0096897Y0062611D01*
X0096504Y0063383D01*
X0095995Y0064083D01*
X0095383Y0064695D01*
X0094683Y0065204D01*
X0093911Y0065597D01*
X0093088Y0065865D01*
X0092233Y0066000D01*
X0092100Y0066000D01*
X0092100Y0057100D01*
X0091500Y0057100D01*
X0091500Y0066000D01*
X0091367Y0066000D01*
X0090512Y0065865D01*
X0089689Y0065597D01*
X0088917Y0065204D01*
X0088217Y0064695D01*
X0087605Y0064083D01*
X0087096Y0063383D01*
X0086703Y0062611D01*
X0086685Y0062556D01*
X0086293Y0063502D01*
X0084802Y0064993D01*
X0082854Y0065800D01*
X0080746Y0065800D01*
X0078798Y0064993D01*
X0077307Y0063502D01*
X0076800Y0062278D01*
X0076293Y0063502D01*
X0074802Y0064993D01*
X0072854Y0065800D01*
X0070746Y0065800D01*
X0068798Y0064993D01*
X0067307Y0063502D01*
X0066500Y0061554D01*
X0066500Y0052046D01*
X0067307Y0050098D01*
X0068798Y0048607D01*
X0069600Y0048275D01*
X0069600Y0030889D01*
X0079600Y0020889D01*
X0080889Y0019600D01*
X0260889Y0019600D01*
X0269600Y0010889D01*
X0270889Y0009600D01*
X0342711Y0009600D01*
X0357711Y0024600D01*
X0359000Y0025889D01*
X0359000Y0225975D01*
X0359802Y0226307D01*
X0361293Y0227798D01*
X0362100Y0229746D01*
X0362100Y0231854D01*
X0361293Y0233802D01*
X0359802Y0235293D01*
X0357854Y0236100D01*
X0355746Y0236100D01*
X0353798Y0235293D01*
X0352307Y0233802D01*
X0352007Y0233078D01*
X0351293Y0234802D01*
X0349802Y0236293D01*
X0347854Y0237100D01*
X0345746Y0237100D01*
X0343798Y0236293D01*
X0342307Y0234802D01*
X0341593Y0233078D01*
X0341293Y0233802D01*
X0339802Y0235293D01*
X0337854Y0236100D01*
X0335746Y0236100D01*
X0333798Y0235293D01*
X0332307Y0233802D01*
X0332007Y0233078D01*
X0331293Y0234802D01*
X0329802Y0236293D01*
X0327854Y0237100D01*
X0325746Y0237100D01*
X0323798Y0236293D01*
X0322307Y0234802D01*
X0321593Y0233078D01*
X0321293Y0233802D01*
X0319802Y0235293D01*
X0317854Y0236100D01*
X0315746Y0236100D01*
X0313798Y0235293D01*
X0312307Y0233802D01*
X0312097Y0233296D01*
X0311897Y0233911D01*
X0311504Y0234683D01*
X0310995Y0235383D01*
X0310383Y0235995D01*
X0309683Y0236504D01*
X0308911Y0236897D01*
X0308088Y0237165D01*
X0307233Y0237300D01*
X0307000Y0237300D01*
X0307000Y0232000D01*
X0306600Y0232000D01*
X0306600Y0237300D01*
X0306367Y0237300D01*
X0305512Y0237165D01*
X0304689Y0236897D01*
X0303917Y0236504D01*
X0303217Y0235995D01*
X0302605Y0235383D01*
X0302096Y0234683D01*
X0301703Y0233911D01*
X0301435Y0233088D01*
X0301300Y0232233D01*
X0301300Y0232000D01*
X0306600Y0232000D01*
X0306600Y0231600D01*
X0307000Y0231600D01*
X0307000Y0226300D01*
X0307233Y0226300D01*
X0308088Y0226435D01*
X0308911Y0226703D01*
X0309683Y0227096D01*
X0310383Y0227605D01*
X0310995Y0228217D01*
X0311504Y0228917D01*
X0311691Y0229284D01*
X0312307Y0227798D01*
X0313798Y0226307D01*
X0315746Y0225500D01*
X0317854Y0225500D01*
X0319802Y0226307D01*
X0321293Y0227798D01*
X0322007Y0229522D01*
X0322307Y0228798D01*
X0323798Y0227307D01*
X0325746Y0226500D01*
X0327854Y0226500D01*
X0329802Y0227307D01*
X0331293Y0228798D01*
X0331593Y0229522D01*
X0332307Y0227798D01*
X0333798Y0226307D01*
X0334600Y0225975D01*
X0334600Y0022711D01*
X0330889Y0019000D01*
X0292711Y0019000D01*
X0289000Y0022711D01*
X0289000Y0048275D01*
X0289802Y0048607D01*
X0291293Y0050098D01*
X0291800Y0051322D01*
X0292307Y0050098D01*
X0293798Y0048607D01*
X0295746Y0047800D01*
X0297854Y0047800D01*
X0299802Y0048607D01*
X0301293Y0050098D01*
X0301685Y0051044D01*
X0301703Y0050989D01*
X0302096Y0050217D01*
X0302605Y0049517D01*
X0303217Y0048905D01*
X0303917Y0048396D01*
X0304689Y0048003D01*
X0305512Y0047735D01*
X0306367Y0047600D01*
X0306500Y0047600D01*
X0306500Y0056500D01*
X0307100Y0056500D01*
X0307100Y0047600D01*
X0307233Y0047600D01*
X0308088Y0047735D01*
X0308911Y0048003D01*
X0309683Y0048396D01*
X0310383Y0048905D01*
X0310995Y0049517D01*
X0311504Y0050217D01*
X0311897Y0050989D01*
X0311915Y0051044D01*
X0312307Y0050098D01*
X0313798Y0048607D01*
X0315746Y0047800D01*
X0317854Y0047800D01*
X0319802Y0048607D01*
X0321293Y0050098D01*
X0321800Y0051322D01*
X0322307Y0050098D01*
X0323798Y0048607D01*
X0325746Y0047800D01*
X0327854Y0047800D01*
X0329802Y0048607D01*
X0331293Y0050098D01*
X0332100Y0052046D01*
X0332100Y0061554D01*
X0331293Y0063502D01*
X0329802Y0064993D01*
X0327854Y0065800D01*
X0325746Y0065800D01*
X0323798Y0064993D01*
X0322307Y0063502D01*
X0321800Y0062278D01*
X0321293Y0063502D01*
X0319802Y0064993D01*
X0319600Y0065077D01*
X0319600Y0193523D01*
X0319802Y0193607D01*
X0321293Y0195098D01*
X0321800Y0196322D01*
X0322307Y0195098D01*
X0323798Y0193607D01*
X0325746Y0192800D01*
X0327854Y0192800D01*
X0329802Y0193607D01*
X0331293Y0195098D01*
X0332100Y0197046D01*
X0332100Y0206554D01*
X0331293Y0208502D01*
X0329802Y0209993D01*
X0327854Y0210800D01*
X0325746Y0210800D01*
X0323798Y0209993D01*
X0322307Y0208502D01*
X0321800Y0207278D01*
X0321293Y0208502D01*
X0319802Y0209993D01*
X0317854Y0210800D01*
X0315746Y0210800D01*
X0313798Y0209993D01*
X0312307Y0208502D01*
X0311915Y0207556D01*
X0311897Y0207611D01*
X0311504Y0208383D01*
X0310995Y0209083D01*
X0310383Y0209695D01*
X0309683Y0210204D01*
X0308911Y0210597D01*
X0308088Y0210865D01*
X0307233Y0211000D01*
X0307100Y0211000D01*
X0307100Y0202100D01*
X0306500Y0202100D01*
X0306500Y0211000D01*
X0306367Y0211000D01*
X0305512Y0210865D01*
X0304689Y0210597D01*
X0303917Y0210204D01*
X0303217Y0209695D01*
X0302605Y0209083D01*
X0302096Y0208383D01*
X0301703Y0207611D01*
X0301685Y0207556D01*
X0301293Y0208502D01*
X0299802Y0209993D01*
X0297854Y0210800D01*
X0295746Y0210800D01*
X0293798Y0209993D01*
X0292307Y0208502D01*
X0291800Y0207278D01*
X0291293Y0208502D01*
X0289802Y0209993D01*
X0287854Y0210800D01*
X0285746Y0210800D01*
X0283798Y0209993D01*
X0282307Y0208502D01*
X0281500Y0206554D01*
X0281500Y0197046D01*
X0282307Y0195098D01*
X0283798Y0193607D01*
X0285746Y0192800D01*
X0287854Y0192800D01*
X0289802Y0193607D01*
X0291293Y0195098D01*
X0291800Y0196322D01*
X0292307Y0195098D01*
X0293798Y0193607D01*
X0295746Y0192800D01*
X0297854Y0192800D01*
X0299802Y0193607D01*
X0301293Y0195098D01*
X0301685Y0196044D01*
X0301703Y0195989D01*
X0302096Y0195217D01*
X0302605Y0194517D01*
X0303217Y0193905D01*
X0303917Y0193396D01*
X0304689Y0193003D01*
X0305512Y0192735D01*
X0306367Y0192600D01*
X0306500Y0192600D01*
X0306500Y0201500D01*
X0307100Y0201500D01*
X0307100Y0192600D01*
X0307233Y0192600D01*
X0308088Y0192735D01*
X0308911Y0193003D01*
X0309683Y0193396D01*
X0310383Y0193905D01*
X0310995Y0194517D01*
X0311504Y0195217D01*
X0311897Y0195989D01*
X0311915Y0196044D01*
X0312307Y0195098D01*
X0313798Y0193607D01*
X0314000Y0193523D01*
X0314000Y0065077D01*
X0313798Y0064993D01*
X0312307Y0063502D01*
X0311915Y0062556D01*
X0311897Y0062611D01*
X0311504Y0063383D01*
X0310995Y0064083D01*
X0310383Y0064695D01*
X0309683Y0065204D01*
X0308911Y0065597D01*
X0308088Y0065865D01*
X0307233Y0066000D01*
X0307100Y0066000D01*
X0307100Y0057100D01*
X0306500Y0057100D01*
X0306500Y0066000D01*
X0306367Y0066000D01*
X0305512Y0065865D01*
X0304689Y0065597D01*
X0303917Y0065204D01*
X0303217Y0064695D01*
X0302605Y0064083D01*
X0302096Y0063383D01*
X0301703Y0062611D01*
X0301685Y0062556D01*
X0301293Y0063502D01*
X0299802Y0064993D01*
X0297854Y0065800D01*
X0295746Y0065800D01*
X0293798Y0064993D01*
X0292307Y0063502D01*
X0291800Y0062278D01*
X0291293Y0063502D01*
X0289802Y0064993D01*
X0287854Y0065800D01*
X0285746Y0065800D01*
X0283798Y0064993D01*
X0282307Y0063502D01*
X0281500Y0061554D01*
X0281500Y0052046D01*
X0282307Y0050098D01*
X0283798Y0048607D01*
X0284600Y0048275D01*
X0284600Y0020889D01*
X0289600Y0015889D01*
X0290889Y0014600D01*
X0332711Y0014600D01*
X0337711Y0019600D01*
X0339000Y0020889D01*
X0339000Y0225975D01*
X0339802Y0226307D01*
X0341293Y0227798D01*
X0342007Y0229522D01*
X0342307Y0228798D01*
X0343798Y0227307D01*
X0345746Y0226500D01*
X0347854Y0226500D01*
X0349802Y0227307D01*
X0351293Y0228798D01*
X0351593Y0229522D01*
X0352307Y0227798D01*
X0353798Y0226307D01*
X0354600Y0225975D01*
X0354600Y0027711D01*
X0340889Y0014000D01*
X0272711Y0014000D01*
X0262711Y0024000D01*
X0082711Y0024000D01*
X0074000Y0032711D01*
X0074000Y0048275D01*
X0074802Y0048607D01*
X0076293Y0050098D01*
X0076800Y0051322D01*
X0077307Y0050098D01*
X0078798Y0048607D01*
X0080746Y0047800D01*
X0082854Y0047800D01*
X0084802Y0048607D01*
X0086293Y0050098D01*
X0086685Y0051044D01*
X0086703Y0050989D01*
X0087096Y0050217D01*
X0087605Y0049517D01*
X0088217Y0048905D01*
X0088917Y0048396D01*
X0089689Y0048003D01*
X0090512Y0047735D01*
X0091367Y0047600D01*
X0091500Y0047600D01*
X0091500Y0056500D01*
X0092100Y0056500D01*
X0092100Y0047600D01*
X0092233Y0047600D01*
X0093088Y0047735D01*
X0093911Y0048003D01*
X0094683Y0048396D01*
X0095383Y0048905D01*
X0095995Y0049517D01*
X0096504Y0050217D01*
X0096897Y0050989D01*
X0096915Y0051044D01*
X0097307Y0050098D01*
X0098798Y0048607D01*
X0100746Y0047800D01*
X0102854Y0047800D01*
X0104802Y0048607D01*
X0106293Y0050098D01*
X0106800Y0051322D01*
X0107307Y0050098D01*
X0108798Y0048607D01*
X0110746Y0047800D01*
X0112854Y0047800D01*
X0114802Y0048607D01*
X0116293Y0050098D01*
X0117100Y0052046D01*
X0117100Y0061554D01*
X0116293Y0063502D01*
X0114802Y0064993D01*
X0112854Y0065800D01*
X0110746Y0065800D01*
X0108798Y0064993D01*
X0107307Y0063502D01*
X0106800Y0062278D01*
X0106293Y0063502D01*
X0104802Y0064993D01*
X0104600Y0065077D01*
X0104600Y0193523D01*
X0104802Y0193607D01*
X0106293Y0195098D01*
X0106800Y0196322D01*
X0107307Y0195098D01*
X0108798Y0193607D01*
X0110746Y0192800D01*
X0112854Y0192800D01*
X0114802Y0193607D01*
X0116293Y0195098D01*
X0117100Y0197046D01*
X0117100Y0206554D01*
X0116293Y0208502D01*
X0114802Y0209993D01*
X0112854Y0210800D01*
X0110746Y0210800D01*
X0108798Y0209993D01*
X0107307Y0208502D01*
X0106800Y0207278D01*
X0106293Y0208502D01*
X0104802Y0209993D01*
X0102854Y0210800D01*
X0100746Y0210800D01*
X0098798Y0209993D01*
X0097307Y0208502D01*
X0096915Y0207556D01*
X0096897Y0207611D01*
X0096504Y0208383D01*
X0095995Y0209083D01*
X0095383Y0209695D01*
X0094683Y0210204D01*
X0093911Y0210597D01*
X0093088Y0210865D01*
X0092233Y0211000D01*
X0092100Y0211000D01*
X0092100Y0202100D01*
X0091500Y0202100D01*
X0091500Y0211000D01*
X0091367Y0211000D01*
X0090512Y0210865D01*
X0089689Y0210597D01*
X0088917Y0210204D01*
X0088217Y0209695D01*
X0087605Y0209083D01*
X0087096Y0208383D01*
X0086703Y0207611D01*
X0086685Y0207556D01*
X0086293Y0208502D01*
X0084802Y0209993D01*
X0084600Y0210077D01*
X0084600Y0210640D01*
X0087960Y0214000D01*
X0172357Y0214000D01*
X0173386Y0214426D01*
X0183386Y0224426D01*
X0184174Y0225214D01*
X0184600Y0226243D01*
X0184600Y0250640D01*
X0187960Y0254000D01*
X0215640Y0254000D01*
X0219000Y0250640D01*
X0219000Y0242400D01*
X0217637Y0242400D01*
X0216700Y0241463D01*
X0216700Y0232137D01*
X0216700Y0233584D02*
X0206319Y0233584D01*
X0207006Y0235183D02*
X0216700Y0235183D01*
X0216700Y0236781D02*
X0207215Y0236781D01*
X0207022Y0238380D02*
X0216700Y0238380D01*
X0216700Y0239978D02*
X0206356Y0239978D01*
X0204716Y0241577D02*
X0216814Y0241577D01*
X0219000Y0243175D02*
X0184600Y0243175D01*
X0184600Y0241577D02*
X0198513Y0241577D01*
X0196874Y0239978D02*
X0184600Y0239978D01*
X0184600Y0238380D02*
X0196208Y0238380D01*
X0196015Y0236781D02*
X0184600Y0236781D01*
X0184600Y0235183D02*
X0196223Y0235183D01*
X0196911Y0233584D02*
X0184600Y0233584D01*
X0184600Y0231986D02*
X0198604Y0231986D01*
X0198835Y0230387D02*
X0184600Y0230387D01*
X0184600Y0228789D02*
X0198840Y0228789D01*
X0198844Y0227190D02*
X0184600Y0227190D01*
X0184330Y0225592D02*
X0198849Y0225592D01*
X0198854Y0223993D02*
X0182953Y0223993D01*
X0181354Y0222395D02*
X0198859Y0222395D01*
X0198864Y0220796D02*
X0179756Y0220796D01*
X0178157Y0219198D02*
X0198869Y0219198D01*
X0198874Y0217599D02*
X0176559Y0217599D01*
X0174960Y0216001D02*
X0198879Y0216001D01*
X0198884Y0214402D02*
X0173327Y0214402D01*
X0171836Y0220796D02*
X0039756Y0220796D01*
X0039600Y0220640D02*
X0042960Y0224000D01*
X0087672Y0224000D01*
X0088701Y0224426D01*
X0095629Y0231354D01*
X0096001Y0231200D01*
X0098229Y0231200D01*
X0100287Y0232053D01*
X0101862Y0233628D01*
X0102265Y0234600D01*
X0107711Y0234600D01*
X0109000Y0235889D01*
X0109000Y0237711D01*
X0107711Y0239000D01*
X0102265Y0239000D01*
X0101862Y0239972D01*
X0100287Y0241547D01*
X0098229Y0242400D01*
X0096001Y0242400D01*
X0093943Y0241547D01*
X0092368Y0239972D01*
X0091515Y0237914D01*
X0091515Y0235686D01*
X0091669Y0235314D01*
X0085955Y0229600D01*
X0041243Y0229600D01*
X0040214Y0229174D01*
X0039426Y0228386D01*
X0034426Y0223386D01*
X0034000Y0222357D01*
X0034000Y0157960D01*
X0019426Y0143386D01*
X0019000Y0142357D01*
X0019000Y0103400D01*
X0018637Y0103400D01*
X0017700Y0102463D01*
X0017700Y0091137D01*
X0018637Y0090200D01*
X0024963Y0090200D01*
X0025900Y0091137D01*
X0025900Y0102463D01*
X0024963Y0103400D01*
X0024600Y0103400D01*
X0024600Y0140640D01*
X0038386Y0154426D01*
X0039174Y0155214D01*
X0039600Y0156243D01*
X0039600Y0220640D01*
X0039600Y0219198D02*
X0085271Y0219198D01*
X0084426Y0218386D02*
X0084426Y0218386D01*
X0083639Y0217599D02*
X0039600Y0217599D01*
X0039600Y0216001D02*
X0082041Y0216001D01*
X0080442Y0214402D02*
X0039600Y0214402D01*
X0039600Y0212803D02*
X0079185Y0212803D01*
X0079000Y0211205D02*
X0039600Y0211205D01*
X0039600Y0209606D02*
X0068411Y0209606D01*
X0067102Y0208008D02*
X0039600Y0208008D01*
X0039600Y0206409D02*
X0066500Y0206409D01*
X0066500Y0204811D02*
X0039600Y0204811D01*
X0039600Y0203212D02*
X0066500Y0203212D01*
X0066500Y0201614D02*
X0039600Y0201614D01*
X0039600Y0200015D02*
X0066500Y0200015D01*
X0066500Y0198417D02*
X0039600Y0198417D01*
X0039600Y0196818D02*
X0066594Y0196818D01*
X0067256Y0195220D02*
X0039600Y0195220D01*
X0039600Y0193621D02*
X0068783Y0193621D01*
X0074817Y0193621D02*
X0078783Y0193621D01*
X0077256Y0195220D02*
X0076344Y0195220D01*
X0084817Y0193621D02*
X0088607Y0193621D01*
X0087095Y0195220D02*
X0086344Y0195220D01*
X0091500Y0195220D02*
X0092100Y0195220D01*
X0092100Y0196818D02*
X0091500Y0196818D01*
X0091500Y0198417D02*
X0092100Y0198417D01*
X0092100Y0200015D02*
X0091500Y0200015D01*
X0091500Y0203212D02*
X0092100Y0203212D01*
X0092100Y0204811D02*
X0091500Y0204811D01*
X0091500Y0206409D02*
X0092100Y0206409D01*
X0092100Y0208008D02*
X0091500Y0208008D01*
X0091500Y0209606D02*
X0092100Y0209606D01*
X0095472Y0209606D02*
X0098411Y0209606D01*
X0097102Y0208008D02*
X0096695Y0208008D01*
X0105189Y0209606D02*
X0108411Y0209606D01*
X0107102Y0208008D02*
X0106498Y0208008D01*
X0115189Y0209606D02*
X0198899Y0209606D01*
X0198903Y0208008D02*
X0116498Y0208008D01*
X0117100Y0206409D02*
X0198908Y0206409D01*
X0198913Y0204811D02*
X0117100Y0204811D01*
X0117100Y0203212D02*
X0198918Y0203212D01*
X0198923Y0201614D02*
X0117100Y0201614D01*
X0117100Y0200015D02*
X0198928Y0200015D01*
X0198933Y0198417D02*
X0117100Y0198417D01*
X0117006Y0196818D02*
X0198938Y0196818D01*
X0198943Y0195220D02*
X0116344Y0195220D01*
X0114817Y0193621D02*
X0198948Y0193621D01*
X0198953Y0192023D02*
X0104600Y0192023D01*
X0104600Y0190424D02*
X0198958Y0190424D01*
X0198962Y0188826D02*
X0104600Y0188826D01*
X0104600Y0187227D02*
X0198967Y0187227D01*
X0198972Y0185629D02*
X0104600Y0185629D01*
X0104600Y0184030D02*
X0198977Y0184030D01*
X0198982Y0182432D02*
X0104600Y0182432D01*
X0104600Y0180833D02*
X0198987Y0180833D01*
X0198992Y0179235D02*
X0104600Y0179235D01*
X0104600Y0177636D02*
X0198997Y0177636D01*
X0199000Y0176038D02*
X0104600Y0176038D01*
X0104600Y0174439D02*
X0199000Y0174439D01*
X0199000Y0172841D02*
X0104600Y0172841D01*
X0104600Y0171242D02*
X0199000Y0171242D01*
X0199000Y0169644D02*
X0104600Y0169644D01*
X0104600Y0168045D02*
X0199000Y0168045D01*
X0199000Y0166447D02*
X0104600Y0166447D01*
X0104600Y0164848D02*
X0199000Y0164848D01*
X0199000Y0163250D02*
X0104600Y0163250D01*
X0104600Y0161651D02*
X0199000Y0161651D01*
X0199000Y0160053D02*
X0104600Y0160053D01*
X0104600Y0158454D02*
X0199000Y0158454D01*
X0199000Y0156856D02*
X0104600Y0156856D01*
X0104600Y0155257D02*
X0199000Y0155257D01*
X0199000Y0153659D02*
X0104600Y0153659D01*
X0104600Y0152060D02*
X0199000Y0152060D01*
X0199000Y0150462D02*
X0104600Y0150462D01*
X0104600Y0148863D02*
X0199000Y0148863D01*
X0199000Y0147265D02*
X0104600Y0147265D01*
X0104600Y0145666D02*
X0199000Y0145666D01*
X0199000Y0144068D02*
X0104600Y0144068D01*
X0104600Y0142469D02*
X0199000Y0142469D01*
X0199000Y0140870D02*
X0104600Y0140870D01*
X0104600Y0139272D02*
X0199000Y0139272D01*
X0199000Y0137673D02*
X0104600Y0137673D01*
X0104600Y0136075D02*
X0199000Y0136075D01*
X0199000Y0134476D02*
X0104600Y0134476D01*
X0104600Y0132878D02*
X0199000Y0132878D01*
X0199000Y0131279D02*
X0104600Y0131279D01*
X0104600Y0129681D02*
X0199000Y0129681D01*
X0199000Y0128082D02*
X0104600Y0128082D01*
X0104600Y0126484D02*
X0199000Y0126484D01*
X0199000Y0124885D02*
X0104600Y0124885D01*
X0104600Y0123287D02*
X0199000Y0123287D01*
X0199000Y0121688D02*
X0104600Y0121688D01*
X0104600Y0120090D02*
X0199000Y0120090D01*
X0199000Y0118491D02*
X0104600Y0118491D01*
X0104600Y0116893D02*
X0199000Y0116893D01*
X0199000Y0115294D02*
X0104600Y0115294D01*
X0104600Y0113696D02*
X0199000Y0113696D01*
X0199000Y0112097D02*
X0104600Y0112097D01*
X0104600Y0110499D02*
X0199000Y0110499D01*
X0199000Y0108900D02*
X0104600Y0108900D01*
X0104600Y0107302D02*
X0199000Y0107302D01*
X0199000Y0105703D02*
X0104600Y0105703D01*
X0104600Y0104105D02*
X0199000Y0104105D01*
X0199000Y0102506D02*
X0104600Y0102506D01*
X0104600Y0100908D02*
X0199000Y0100908D01*
X0199000Y0099309D02*
X0104600Y0099309D01*
X0104600Y0097711D02*
X0199000Y0097711D01*
X0199000Y0096112D02*
X0104600Y0096112D01*
X0104600Y0094514D02*
X0199000Y0094514D01*
X0199000Y0092915D02*
X0104600Y0092915D01*
X0104600Y0091317D02*
X0199000Y0091317D01*
X0198280Y0089718D02*
X0104600Y0089718D01*
X0104600Y0088120D02*
X0197419Y0088120D01*
X0197247Y0086521D02*
X0104600Y0086521D01*
X0104600Y0084923D02*
X0197650Y0084923D01*
X0198837Y0083324D02*
X0104600Y0083324D01*
X0104600Y0081726D02*
X0247432Y0081726D01*
X0247673Y0080127D02*
X0104600Y0080127D01*
X0104600Y0078529D02*
X0248633Y0078529D01*
X0255337Y0078529D02*
X0314000Y0078529D01*
X0314000Y0080127D02*
X0256297Y0080127D01*
X0256538Y0081726D02*
X0314000Y0081726D01*
X0314000Y0083324D02*
X0256205Y0083324D01*
X0255116Y0084923D02*
X0314000Y0084923D01*
X0314000Y0086521D02*
X0254773Y0086521D01*
X0254770Y0088120D02*
X0314000Y0088120D01*
X0314000Y0089718D02*
X0254766Y0089718D01*
X0254762Y0091317D02*
X0314000Y0091317D01*
X0314000Y0092915D02*
X0254758Y0092915D01*
X0254754Y0094514D02*
X0314000Y0094514D01*
X0314000Y0096112D02*
X0254750Y0096112D01*
X0254747Y0097711D02*
X0314000Y0097711D01*
X0314000Y0099309D02*
X0254743Y0099309D01*
X0254739Y0100908D02*
X0314000Y0100908D01*
X0314000Y0102506D02*
X0254735Y0102506D01*
X0254731Y0104105D02*
X0314000Y0104105D01*
X0314000Y0105703D02*
X0254728Y0105703D01*
X0254724Y0107302D02*
X0314000Y0107302D01*
X0314000Y0108900D02*
X0254720Y0108900D01*
X0254716Y0110499D02*
X0314000Y0110499D01*
X0314000Y0112097D02*
X0254712Y0112097D01*
X0254709Y0113696D02*
X0314000Y0113696D01*
X0314000Y0115294D02*
X0254705Y0115294D01*
X0254701Y0116893D02*
X0314000Y0116893D01*
X0314000Y0118491D02*
X0254697Y0118491D01*
X0254693Y0120090D02*
X0314000Y0120090D01*
X0314000Y0121688D02*
X0254689Y0121688D01*
X0254686Y0123287D02*
X0314000Y0123287D01*
X0314000Y0124885D02*
X0254682Y0124885D01*
X0254678Y0126484D02*
X0314000Y0126484D01*
X0314000Y0128082D02*
X0254674Y0128082D01*
X0254670Y0129681D02*
X0314000Y0129681D01*
X0314000Y0131279D02*
X0254667Y0131279D01*
X0254663Y0132878D02*
X0314000Y0132878D01*
X0314000Y0134476D02*
X0254659Y0134476D01*
X0254655Y0136075D02*
X0314000Y0136075D01*
X0314000Y0137673D02*
X0254651Y0137673D01*
X0254648Y0139272D02*
X0314000Y0139272D01*
X0314000Y0140870D02*
X0254644Y0140870D01*
X0254640Y0142469D02*
X0314000Y0142469D01*
X0314000Y0144068D02*
X0254636Y0144068D01*
X0254632Y0145666D02*
X0314000Y0145666D01*
X0314000Y0147265D02*
X0254628Y0147265D01*
X0254625Y0148863D02*
X0314000Y0148863D01*
X0314000Y0150462D02*
X0254621Y0150462D01*
X0254617Y0152060D02*
X0314000Y0152060D01*
X0314000Y0153659D02*
X0254613Y0153659D01*
X0254609Y0155257D02*
X0314000Y0155257D01*
X0314000Y0156856D02*
X0254606Y0156856D01*
X0254602Y0158454D02*
X0314000Y0158454D01*
X0314000Y0160053D02*
X0254598Y0160053D01*
X0254594Y0161651D02*
X0314000Y0161651D01*
X0314000Y0163250D02*
X0254590Y0163250D01*
X0254587Y0164848D02*
X0314000Y0164848D01*
X0314000Y0166447D02*
X0254583Y0166447D01*
X0254579Y0168045D02*
X0314000Y0168045D01*
X0314000Y0169644D02*
X0254575Y0169644D01*
X0254571Y0171242D02*
X0314000Y0171242D01*
X0314000Y0172841D02*
X0254567Y0172841D01*
X0254564Y0174439D02*
X0314000Y0174439D01*
X0314000Y0176038D02*
X0254560Y0176038D01*
X0254556Y0177636D02*
X0314000Y0177636D01*
X0314000Y0179235D02*
X0254552Y0179235D01*
X0254548Y0180833D02*
X0314000Y0180833D01*
X0314000Y0182432D02*
X0254545Y0182432D01*
X0254541Y0184030D02*
X0314000Y0184030D01*
X0314000Y0185629D02*
X0254537Y0185629D01*
X0254533Y0187227D02*
X0314000Y0187227D01*
X0314000Y0188826D02*
X0254529Y0188826D01*
X0254526Y0190424D02*
X0314000Y0190424D01*
X0314000Y0192023D02*
X0254522Y0192023D01*
X0254518Y0193621D02*
X0283783Y0193621D01*
X0282256Y0195220D02*
X0254514Y0195220D01*
X0254510Y0196818D02*
X0281594Y0196818D01*
X0281500Y0198417D02*
X0254506Y0198417D01*
X0254503Y0200015D02*
X0281500Y0200015D01*
X0281500Y0201614D02*
X0254499Y0201614D01*
X0254495Y0203212D02*
X0281500Y0203212D01*
X0281500Y0204811D02*
X0254491Y0204811D01*
X0254487Y0206409D02*
X0281500Y0206409D01*
X0282102Y0208008D02*
X0254484Y0208008D01*
X0254480Y0209606D02*
X0283411Y0209606D01*
X0290189Y0209606D02*
X0293411Y0209606D01*
X0292102Y0208008D02*
X0291498Y0208008D01*
X0300189Y0209606D02*
X0303128Y0209606D01*
X0301905Y0208008D02*
X0301498Y0208008D01*
X0306500Y0208008D02*
X0307100Y0208008D01*
X0307100Y0209606D02*
X0306500Y0209606D01*
X0306500Y0206409D02*
X0307100Y0206409D01*
X0307100Y0204811D02*
X0306500Y0204811D01*
X0306500Y0203212D02*
X0307100Y0203212D01*
X0311695Y0208008D02*
X0312102Y0208008D01*
X0313411Y0209606D02*
X0310472Y0209606D01*
X0320189Y0209606D02*
X0323411Y0209606D01*
X0322102Y0208008D02*
X0321498Y0208008D01*
X0330189Y0209606D02*
X0334600Y0209606D01*
X0334600Y0208008D02*
X0331498Y0208008D01*
X0332100Y0206409D02*
X0334600Y0206409D01*
X0334600Y0204811D02*
X0332100Y0204811D01*
X0332100Y0203212D02*
X0334600Y0203212D01*
X0334600Y0201614D02*
X0332100Y0201614D01*
X0332100Y0200015D02*
X0334600Y0200015D01*
X0334600Y0198417D02*
X0332100Y0198417D01*
X0332006Y0196818D02*
X0334600Y0196818D01*
X0334600Y0195220D02*
X0331344Y0195220D01*
X0329817Y0193621D02*
X0334600Y0193621D01*
X0334600Y0192023D02*
X0319600Y0192023D01*
X0319600Y0190424D02*
X0334600Y0190424D01*
X0334600Y0188826D02*
X0319600Y0188826D01*
X0319600Y0187227D02*
X0334600Y0187227D01*
X0334600Y0185629D02*
X0319600Y0185629D01*
X0319600Y0184030D02*
X0334600Y0184030D01*
X0334600Y0182432D02*
X0319600Y0182432D01*
X0319600Y0180833D02*
X0334600Y0180833D01*
X0334600Y0179235D02*
X0319600Y0179235D01*
X0319600Y0177636D02*
X0334600Y0177636D01*
X0334600Y0176038D02*
X0319600Y0176038D01*
X0319600Y0174439D02*
X0334600Y0174439D01*
X0334600Y0172841D02*
X0319600Y0172841D01*
X0319600Y0171242D02*
X0334600Y0171242D01*
X0334600Y0169644D02*
X0319600Y0169644D01*
X0319600Y0168045D02*
X0334600Y0168045D01*
X0334600Y0166447D02*
X0319600Y0166447D01*
X0319600Y0164848D02*
X0334600Y0164848D01*
X0334600Y0163250D02*
X0319600Y0163250D01*
X0319600Y0161651D02*
X0334600Y0161651D01*
X0334600Y0160053D02*
X0319600Y0160053D01*
X0319600Y0158454D02*
X0334600Y0158454D01*
X0334600Y0156856D02*
X0319600Y0156856D01*
X0319600Y0155257D02*
X0334600Y0155257D01*
X0334600Y0153659D02*
X0319600Y0153659D01*
X0319600Y0152060D02*
X0334600Y0152060D01*
X0334600Y0150462D02*
X0319600Y0150462D01*
X0319600Y0148863D02*
X0334600Y0148863D01*
X0334600Y0147265D02*
X0319600Y0147265D01*
X0319600Y0145666D02*
X0334600Y0145666D01*
X0334600Y0144068D02*
X0319600Y0144068D01*
X0319600Y0142469D02*
X0334600Y0142469D01*
X0334600Y0140870D02*
X0319600Y0140870D01*
X0319600Y0139272D02*
X0334600Y0139272D01*
X0334600Y0137673D02*
X0319600Y0137673D01*
X0319600Y0136075D02*
X0334600Y0136075D01*
X0334600Y0134476D02*
X0319600Y0134476D01*
X0319600Y0132878D02*
X0334600Y0132878D01*
X0334600Y0131279D02*
X0319600Y0131279D01*
X0319600Y0129681D02*
X0334600Y0129681D01*
X0334600Y0128082D02*
X0319600Y0128082D01*
X0319600Y0126484D02*
X0334600Y0126484D01*
X0334600Y0124885D02*
X0319600Y0124885D01*
X0319600Y0123287D02*
X0334600Y0123287D01*
X0334600Y0121688D02*
X0319600Y0121688D01*
X0319600Y0120090D02*
X0334600Y0120090D01*
X0334600Y0118491D02*
X0319600Y0118491D01*
X0319600Y0116893D02*
X0334600Y0116893D01*
X0334600Y0115294D02*
X0319600Y0115294D01*
X0319600Y0113696D02*
X0334600Y0113696D01*
X0334600Y0112097D02*
X0319600Y0112097D01*
X0319600Y0110499D02*
X0334600Y0110499D01*
X0334600Y0108900D02*
X0319600Y0108900D01*
X0319600Y0107302D02*
X0334600Y0107302D01*
X0334600Y0105703D02*
X0319600Y0105703D01*
X0319600Y0104105D02*
X0334600Y0104105D01*
X0334600Y0102506D02*
X0319600Y0102506D01*
X0319600Y0100908D02*
X0334600Y0100908D01*
X0334600Y0099309D02*
X0319600Y0099309D01*
X0319600Y0097711D02*
X0334600Y0097711D01*
X0334600Y0096112D02*
X0319600Y0096112D01*
X0319600Y0094514D02*
X0334600Y0094514D01*
X0334600Y0092915D02*
X0319600Y0092915D01*
X0319600Y0091317D02*
X0334600Y0091317D01*
X0334600Y0089718D02*
X0319600Y0089718D01*
X0319600Y0088120D02*
X0334600Y0088120D01*
X0334600Y0086521D02*
X0319600Y0086521D01*
X0319600Y0084923D02*
X0334600Y0084923D01*
X0334600Y0083324D02*
X0319600Y0083324D01*
X0319600Y0081726D02*
X0334600Y0081726D01*
X0334600Y0080127D02*
X0319600Y0080127D01*
X0319600Y0078529D02*
X0334600Y0078529D01*
X0334600Y0076930D02*
X0319600Y0076930D01*
X0319600Y0075332D02*
X0334600Y0075332D01*
X0334600Y0073733D02*
X0319600Y0073733D01*
X0319600Y0072134D02*
X0334600Y0072134D01*
X0334600Y0070536D02*
X0319600Y0070536D01*
X0319600Y0068937D02*
X0334600Y0068937D01*
X0334600Y0067339D02*
X0319600Y0067339D01*
X0319600Y0065740D02*
X0325602Y0065740D01*
X0327998Y0065740D02*
X0334600Y0065740D01*
X0334600Y0064142D02*
X0330653Y0064142D01*
X0331690Y0062543D02*
X0334600Y0062543D01*
X0334600Y0060945D02*
X0332100Y0060945D01*
X0332100Y0059346D02*
X0334600Y0059346D01*
X0334600Y0057748D02*
X0332100Y0057748D01*
X0332100Y0056149D02*
X0334600Y0056149D01*
X0334600Y0054551D02*
X0332100Y0054551D01*
X0332100Y0052952D02*
X0334600Y0052952D01*
X0334600Y0051354D02*
X0331813Y0051354D01*
X0330951Y0049755D02*
X0334600Y0049755D01*
X0334600Y0048157D02*
X0328716Y0048157D01*
X0324884Y0048157D02*
X0318716Y0048157D01*
X0320951Y0049755D02*
X0322649Y0049755D01*
X0314884Y0048157D02*
X0309213Y0048157D01*
X0307100Y0048157D02*
X0306500Y0048157D01*
X0306500Y0049755D02*
X0307100Y0049755D01*
X0307100Y0051354D02*
X0306500Y0051354D01*
X0306500Y0052952D02*
X0307100Y0052952D01*
X0307100Y0054551D02*
X0306500Y0054551D01*
X0306500Y0056149D02*
X0307100Y0056149D01*
X0307100Y0057748D02*
X0306500Y0057748D01*
X0306500Y0059346D02*
X0307100Y0059346D01*
X0307100Y0060945D02*
X0306500Y0060945D01*
X0306500Y0062543D02*
X0307100Y0062543D01*
X0307100Y0064142D02*
X0306500Y0064142D01*
X0306500Y0065740D02*
X0307100Y0065740D01*
X0308470Y0065740D02*
X0314000Y0065740D01*
X0314000Y0067339D02*
X0104600Y0067339D01*
X0104600Y0068937D02*
X0314000Y0068937D01*
X0314000Y0070536D02*
X0104600Y0070536D01*
X0104600Y0072134D02*
X0314000Y0072134D01*
X0314000Y0073733D02*
X0104600Y0073733D01*
X0104600Y0075332D02*
X0314000Y0075332D01*
X0314000Y0076930D02*
X0104600Y0076930D01*
X0099000Y0076930D02*
X0006600Y0076930D01*
X0006600Y0075332D02*
X0099000Y0075332D01*
X0099000Y0073733D02*
X0006600Y0073733D01*
X0006600Y0072134D02*
X0099000Y0072134D01*
X0099000Y0070536D02*
X0006600Y0070536D01*
X0006600Y0068937D02*
X0099000Y0068937D01*
X0099000Y0067339D02*
X0006600Y0067339D01*
X0006600Y0065740D02*
X0070602Y0065740D01*
X0072998Y0065740D02*
X0080602Y0065740D01*
X0082998Y0065740D02*
X0090130Y0065740D01*
X0091500Y0065740D02*
X0092100Y0065740D01*
X0093470Y0065740D02*
X0099000Y0065740D01*
X0097947Y0064142D02*
X0095936Y0064142D01*
X0092100Y0064142D02*
X0091500Y0064142D01*
X0091500Y0062543D02*
X0092100Y0062543D01*
X0092100Y0060945D02*
X0091500Y0060945D01*
X0091500Y0059346D02*
X0092100Y0059346D01*
X0092100Y0057748D02*
X0091500Y0057748D01*
X0091500Y0056149D02*
X0092100Y0056149D01*
X0092100Y0054551D02*
X0091500Y0054551D01*
X0091500Y0052952D02*
X0092100Y0052952D01*
X0092100Y0051354D02*
X0091500Y0051354D01*
X0091500Y0049755D02*
X0092100Y0049755D01*
X0092100Y0048157D02*
X0091500Y0048157D01*
X0089387Y0048157D02*
X0083716Y0048157D01*
X0085951Y0049755D02*
X0087432Y0049755D01*
X0079884Y0048157D02*
X0074000Y0048157D01*
X0074000Y0046558D02*
X0284600Y0046558D01*
X0284600Y0044960D02*
X0074000Y0044960D01*
X0074000Y0043361D02*
X0284600Y0043361D01*
X0284600Y0041763D02*
X0074000Y0041763D01*
X0074000Y0040164D02*
X0284600Y0040164D01*
X0284600Y0038566D02*
X0074000Y0038566D01*
X0074000Y0036967D02*
X0284600Y0036967D01*
X0284600Y0035369D02*
X0074000Y0035369D01*
X0074000Y0033770D02*
X0284600Y0033770D01*
X0284600Y0032172D02*
X0074540Y0032172D01*
X0076138Y0030573D02*
X0284600Y0030573D01*
X0284600Y0028975D02*
X0077737Y0028975D01*
X0079335Y0027376D02*
X0284600Y0027376D01*
X0284600Y0025778D02*
X0080934Y0025778D01*
X0082532Y0024179D02*
X0284600Y0024179D01*
X0284600Y0022581D02*
X0264131Y0022581D01*
X0265729Y0020982D02*
X0284600Y0020982D01*
X0286105Y0019384D02*
X0267328Y0019384D01*
X0268926Y0017785D02*
X0287704Y0017785D01*
X0289302Y0016187D02*
X0270525Y0016187D01*
X0272123Y0014588D02*
X0341477Y0014588D01*
X0343075Y0016187D02*
X0334298Y0016187D01*
X0335896Y0017785D02*
X0344674Y0017785D01*
X0346272Y0019384D02*
X0337495Y0019384D01*
X0339000Y0020982D02*
X0347871Y0020982D01*
X0349469Y0022581D02*
X0339000Y0022581D01*
X0339000Y0024179D02*
X0351068Y0024179D01*
X0352666Y0025778D02*
X0339000Y0025778D01*
X0339000Y0027376D02*
X0354265Y0027376D01*
X0354600Y0028975D02*
X0339000Y0028975D01*
X0339000Y0030573D02*
X0354600Y0030573D01*
X0354600Y0032172D02*
X0339000Y0032172D01*
X0339000Y0033770D02*
X0354600Y0033770D01*
X0354600Y0035369D02*
X0339000Y0035369D01*
X0339000Y0036967D02*
X0354600Y0036967D01*
X0354600Y0038566D02*
X0339000Y0038566D01*
X0339000Y0040164D02*
X0354600Y0040164D01*
X0354600Y0041763D02*
X0339000Y0041763D01*
X0339000Y0043361D02*
X0354600Y0043361D01*
X0354600Y0044960D02*
X0339000Y0044960D01*
X0339000Y0046558D02*
X0354600Y0046558D01*
X0354600Y0048157D02*
X0339000Y0048157D01*
X0339000Y0049755D02*
X0354600Y0049755D01*
X0354600Y0051354D02*
X0339000Y0051354D01*
X0339000Y0052952D02*
X0354600Y0052952D01*
X0354600Y0054551D02*
X0339000Y0054551D01*
X0339000Y0056149D02*
X0354600Y0056149D01*
X0354600Y0057748D02*
X0339000Y0057748D01*
X0339000Y0059346D02*
X0354600Y0059346D01*
X0354600Y0060945D02*
X0339000Y0060945D01*
X0339000Y0062543D02*
X0354600Y0062543D01*
X0354600Y0064142D02*
X0339000Y0064142D01*
X0339000Y0065740D02*
X0354600Y0065740D01*
X0354600Y0067339D02*
X0339000Y0067339D01*
X0339000Y0068937D02*
X0354600Y0068937D01*
X0354600Y0070536D02*
X0339000Y0070536D01*
X0339000Y0072134D02*
X0354600Y0072134D01*
X0354600Y0073733D02*
X0339000Y0073733D01*
X0339000Y0075332D02*
X0354600Y0075332D01*
X0354600Y0076930D02*
X0339000Y0076930D01*
X0339000Y0078529D02*
X0354600Y0078529D01*
X0354600Y0080127D02*
X0339000Y0080127D01*
X0339000Y0081726D02*
X0354600Y0081726D01*
X0354600Y0083324D02*
X0339000Y0083324D01*
X0339000Y0084923D02*
X0354600Y0084923D01*
X0354600Y0086521D02*
X0339000Y0086521D01*
X0339000Y0088120D02*
X0354600Y0088120D01*
X0354600Y0089718D02*
X0339000Y0089718D01*
X0339000Y0091317D02*
X0354600Y0091317D01*
X0354600Y0092915D02*
X0339000Y0092915D01*
X0339000Y0094514D02*
X0354600Y0094514D01*
X0354600Y0096112D02*
X0339000Y0096112D01*
X0339000Y0097711D02*
X0354600Y0097711D01*
X0354600Y0099309D02*
X0339000Y0099309D01*
X0339000Y0100908D02*
X0354600Y0100908D01*
X0354600Y0102506D02*
X0339000Y0102506D01*
X0339000Y0104105D02*
X0354600Y0104105D01*
X0354600Y0105703D02*
X0339000Y0105703D01*
X0339000Y0107302D02*
X0354600Y0107302D01*
X0354600Y0108900D02*
X0339000Y0108900D01*
X0339000Y0110499D02*
X0354600Y0110499D01*
X0354600Y0112097D02*
X0339000Y0112097D01*
X0339000Y0113696D02*
X0354600Y0113696D01*
X0354600Y0115294D02*
X0339000Y0115294D01*
X0339000Y0116893D02*
X0354600Y0116893D01*
X0354600Y0118491D02*
X0339000Y0118491D01*
X0339000Y0120090D02*
X0354600Y0120090D01*
X0354600Y0121688D02*
X0339000Y0121688D01*
X0339000Y0123287D02*
X0354600Y0123287D01*
X0354600Y0124885D02*
X0339000Y0124885D01*
X0339000Y0126484D02*
X0354600Y0126484D01*
X0354600Y0128082D02*
X0339000Y0128082D01*
X0339000Y0129681D02*
X0354600Y0129681D01*
X0354600Y0131279D02*
X0339000Y0131279D01*
X0339000Y0132878D02*
X0354600Y0132878D01*
X0354600Y0134476D02*
X0339000Y0134476D01*
X0339000Y0136075D02*
X0354600Y0136075D01*
X0354600Y0137673D02*
X0339000Y0137673D01*
X0339000Y0139272D02*
X0354600Y0139272D01*
X0354600Y0140870D02*
X0339000Y0140870D01*
X0339000Y0142469D02*
X0354600Y0142469D01*
X0354600Y0144068D02*
X0339000Y0144068D01*
X0339000Y0145666D02*
X0354600Y0145666D01*
X0354600Y0147265D02*
X0339000Y0147265D01*
X0339000Y0148863D02*
X0354600Y0148863D01*
X0354600Y0150462D02*
X0339000Y0150462D01*
X0339000Y0152060D02*
X0354600Y0152060D01*
X0354600Y0153659D02*
X0339000Y0153659D01*
X0339000Y0155257D02*
X0354600Y0155257D01*
X0354600Y0156856D02*
X0339000Y0156856D01*
X0339000Y0158454D02*
X0354600Y0158454D01*
X0354600Y0160053D02*
X0339000Y0160053D01*
X0339000Y0161651D02*
X0354600Y0161651D01*
X0354600Y0163250D02*
X0339000Y0163250D01*
X0339000Y0164848D02*
X0354600Y0164848D01*
X0354600Y0166447D02*
X0339000Y0166447D01*
X0339000Y0168045D02*
X0354600Y0168045D01*
X0354600Y0169644D02*
X0339000Y0169644D01*
X0339000Y0171242D02*
X0354600Y0171242D01*
X0354600Y0172841D02*
X0339000Y0172841D01*
X0339000Y0174439D02*
X0354600Y0174439D01*
X0354600Y0176038D02*
X0339000Y0176038D01*
X0339000Y0177636D02*
X0354600Y0177636D01*
X0354600Y0179235D02*
X0339000Y0179235D01*
X0339000Y0180833D02*
X0354600Y0180833D01*
X0354600Y0182432D02*
X0339000Y0182432D01*
X0339000Y0184030D02*
X0354600Y0184030D01*
X0354600Y0185629D02*
X0339000Y0185629D01*
X0339000Y0187227D02*
X0354600Y0187227D01*
X0354600Y0188826D02*
X0339000Y0188826D01*
X0339000Y0190424D02*
X0354600Y0190424D01*
X0354600Y0192023D02*
X0339000Y0192023D01*
X0339000Y0193621D02*
X0354600Y0193621D01*
X0354600Y0195220D02*
X0339000Y0195220D01*
X0339000Y0196818D02*
X0354600Y0196818D01*
X0354600Y0198417D02*
X0339000Y0198417D01*
X0339000Y0200015D02*
X0354600Y0200015D01*
X0354600Y0201614D02*
X0339000Y0201614D01*
X0339000Y0203212D02*
X0354600Y0203212D01*
X0354600Y0204811D02*
X0339000Y0204811D01*
X0339000Y0206409D02*
X0354600Y0206409D01*
X0354600Y0208008D02*
X0339000Y0208008D01*
X0339000Y0209606D02*
X0354600Y0209606D01*
X0354600Y0211205D02*
X0339000Y0211205D01*
X0339000Y0212803D02*
X0354600Y0212803D01*
X0354600Y0214402D02*
X0339000Y0214402D01*
X0339000Y0216001D02*
X0354600Y0216001D01*
X0354600Y0217599D02*
X0339000Y0217599D01*
X0339000Y0219198D02*
X0354600Y0219198D01*
X0354600Y0220796D02*
X0339000Y0220796D01*
X0339000Y0222395D02*
X0354600Y0222395D01*
X0354600Y0223993D02*
X0339000Y0223993D01*
X0339000Y0225592D02*
X0354600Y0225592D01*
X0352915Y0227190D02*
X0349520Y0227190D01*
X0351284Y0228789D02*
X0351896Y0228789D01*
X0351798Y0233584D02*
X0352217Y0233584D01*
X0350913Y0235183D02*
X0353687Y0235183D01*
X0348624Y0236781D02*
X0390701Y0236781D01*
X0390701Y0235183D02*
X0359913Y0235183D01*
X0361383Y0233584D02*
X0390701Y0233584D01*
X0390701Y0231986D02*
X0362046Y0231986D01*
X0362100Y0230387D02*
X0390701Y0230387D01*
X0390701Y0228789D02*
X0361704Y0228789D01*
X0360685Y0227190D02*
X0390701Y0227190D01*
X0390701Y0225592D02*
X0359000Y0225592D01*
X0359000Y0223993D02*
X0390701Y0223993D01*
X0390701Y0222395D02*
X0359000Y0222395D01*
X0359000Y0220796D02*
X0390701Y0220796D01*
X0390701Y0219198D02*
X0359000Y0219198D01*
X0359000Y0217599D02*
X0390701Y0217599D01*
X0390701Y0216001D02*
X0359000Y0216001D01*
X0359000Y0214402D02*
X0390701Y0214402D01*
X0390701Y0212803D02*
X0359000Y0212803D01*
X0359000Y0211205D02*
X0390701Y0211205D01*
X0390701Y0209606D02*
X0359000Y0209606D01*
X0359000Y0208008D02*
X0390701Y0208008D01*
X0390701Y0206409D02*
X0359000Y0206409D01*
X0359000Y0204811D02*
X0390701Y0204811D01*
X0390701Y0203212D02*
X0359000Y0203212D01*
X0359000Y0201614D02*
X0390701Y0201614D01*
X0390701Y0200015D02*
X0359000Y0200015D01*
X0359000Y0198417D02*
X0390701Y0198417D01*
X0390701Y0196818D02*
X0359000Y0196818D01*
X0359000Y0195220D02*
X0390701Y0195220D01*
X0390701Y0193621D02*
X0359000Y0193621D01*
X0359000Y0192023D02*
X0390701Y0192023D01*
X0390701Y0190424D02*
X0359000Y0190424D01*
X0359000Y0188826D02*
X0390701Y0188826D01*
X0390701Y0187227D02*
X0359000Y0187227D01*
X0359000Y0185629D02*
X0390701Y0185629D01*
X0390701Y0184030D02*
X0359000Y0184030D01*
X0359000Y0182432D02*
X0390701Y0182432D01*
X0390701Y0180833D02*
X0359000Y0180833D01*
X0359000Y0179235D02*
X0390701Y0179235D01*
X0390701Y0177636D02*
X0359000Y0177636D01*
X0359000Y0176038D02*
X0390701Y0176038D01*
X0390701Y0174439D02*
X0359000Y0174439D01*
X0359000Y0172841D02*
X0390701Y0172841D01*
X0390701Y0171242D02*
X0359000Y0171242D01*
X0359000Y0169644D02*
X0390701Y0169644D01*
X0390701Y0168045D02*
X0359000Y0168045D01*
X0359000Y0166447D02*
X0390701Y0166447D01*
X0390701Y0164848D02*
X0359000Y0164848D01*
X0359000Y0163250D02*
X0390701Y0163250D01*
X0390701Y0161651D02*
X0359000Y0161651D01*
X0359000Y0160053D02*
X0390701Y0160053D01*
X0390701Y0158454D02*
X0359000Y0158454D01*
X0359000Y0156856D02*
X0390701Y0156856D01*
X0390701Y0155257D02*
X0359000Y0155257D01*
X0359000Y0153659D02*
X0390701Y0153659D01*
X0390701Y0152060D02*
X0359000Y0152060D01*
X0359000Y0150462D02*
X0390701Y0150462D01*
X0390701Y0148863D02*
X0359000Y0148863D01*
X0359000Y0147265D02*
X0390701Y0147265D01*
X0390701Y0145666D02*
X0359000Y0145666D01*
X0359000Y0144068D02*
X0390701Y0144068D01*
X0390701Y0142469D02*
X0359000Y0142469D01*
X0359000Y0140870D02*
X0390701Y0140870D01*
X0390701Y0139272D02*
X0359000Y0139272D01*
X0359000Y0137673D02*
X0390701Y0137673D01*
X0390701Y0136075D02*
X0359000Y0136075D01*
X0359000Y0134476D02*
X0390701Y0134476D01*
X0390701Y0132878D02*
X0359000Y0132878D01*
X0359000Y0131279D02*
X0390701Y0131279D01*
X0390701Y0129681D02*
X0359000Y0129681D01*
X0359000Y0128082D02*
X0390701Y0128082D01*
X0390701Y0126484D02*
X0359000Y0126484D01*
X0359000Y0124885D02*
X0390701Y0124885D01*
X0390701Y0123287D02*
X0359000Y0123287D01*
X0359000Y0121688D02*
X0390701Y0121688D01*
X0390701Y0120090D02*
X0359000Y0120090D01*
X0359000Y0118491D02*
X0390701Y0118491D01*
X0390701Y0116893D02*
X0359000Y0116893D01*
X0359000Y0115294D02*
X0390701Y0115294D01*
X0390701Y0113696D02*
X0359000Y0113696D01*
X0359000Y0112097D02*
X0390701Y0112097D01*
X0390701Y0110499D02*
X0359000Y0110499D01*
X0359000Y0108900D02*
X0390701Y0108900D01*
X0390701Y0107302D02*
X0359000Y0107302D01*
X0359000Y0105703D02*
X0390701Y0105703D01*
X0390701Y0104105D02*
X0359000Y0104105D01*
X0359000Y0102506D02*
X0390701Y0102506D01*
X0390701Y0100908D02*
X0359000Y0100908D01*
X0359000Y0099309D02*
X0390701Y0099309D01*
X0390701Y0097711D02*
X0359000Y0097711D01*
X0359000Y0096112D02*
X0390701Y0096112D01*
X0390701Y0094514D02*
X0359000Y0094514D01*
X0359000Y0092915D02*
X0390701Y0092915D01*
X0390701Y0091317D02*
X0359000Y0091317D01*
X0359000Y0089718D02*
X0390701Y0089718D01*
X0390701Y0088120D02*
X0359000Y0088120D01*
X0359000Y0086521D02*
X0390701Y0086521D01*
X0390701Y0084923D02*
X0359000Y0084923D01*
X0359000Y0083324D02*
X0390701Y0083324D01*
X0390701Y0081726D02*
X0359000Y0081726D01*
X0359000Y0080127D02*
X0390701Y0080127D01*
X0390701Y0078529D02*
X0359000Y0078529D01*
X0359000Y0076930D02*
X0390701Y0076930D01*
X0390701Y0075332D02*
X0359000Y0075332D01*
X0359000Y0073733D02*
X0390701Y0073733D01*
X0390701Y0072134D02*
X0359000Y0072134D01*
X0359000Y0070536D02*
X0390701Y0070536D01*
X0390701Y0068937D02*
X0359000Y0068937D01*
X0359000Y0067339D02*
X0390701Y0067339D01*
X0390701Y0065740D02*
X0359000Y0065740D01*
X0359000Y0064142D02*
X0390701Y0064142D01*
X0390701Y0062543D02*
X0359000Y0062543D01*
X0359000Y0060945D02*
X0390701Y0060945D01*
X0390701Y0059346D02*
X0359000Y0059346D01*
X0359000Y0057748D02*
X0390701Y0057748D01*
X0390701Y0056149D02*
X0359000Y0056149D01*
X0359000Y0054551D02*
X0390701Y0054551D01*
X0390701Y0052952D02*
X0359000Y0052952D01*
X0359000Y0051354D02*
X0390701Y0051354D01*
X0390701Y0049755D02*
X0359000Y0049755D01*
X0359000Y0048157D02*
X0390701Y0048157D01*
X0390701Y0046558D02*
X0359000Y0046558D01*
X0359000Y0044960D02*
X0390701Y0044960D01*
X0390701Y0043361D02*
X0359000Y0043361D01*
X0359000Y0041763D02*
X0390701Y0041763D01*
X0390701Y0040164D02*
X0359000Y0040164D01*
X0359000Y0038566D02*
X0390701Y0038566D01*
X0390701Y0036967D02*
X0359000Y0036967D01*
X0359000Y0035369D02*
X0390701Y0035369D01*
X0390701Y0033770D02*
X0359000Y0033770D01*
X0359000Y0032172D02*
X0390701Y0032172D01*
X0390701Y0030573D02*
X0359000Y0030573D01*
X0359000Y0028975D02*
X0390701Y0028975D01*
X0390701Y0027376D02*
X0359000Y0027376D01*
X0358889Y0025778D02*
X0390701Y0025778D01*
X0390701Y0024179D02*
X0357290Y0024179D01*
X0355692Y0022581D02*
X0390701Y0022581D01*
X0390701Y0020982D02*
X0354093Y0020982D01*
X0352495Y0019384D02*
X0390701Y0019384D01*
X0390701Y0017785D02*
X0350896Y0017785D01*
X0349298Y0016187D02*
X0390701Y0016187D01*
X0390701Y0014588D02*
X0347699Y0014588D01*
X0346101Y0012990D02*
X0390701Y0012990D01*
X0390701Y0011391D02*
X0344502Y0011391D01*
X0342904Y0009793D02*
X0390701Y0009793D01*
X0390701Y0008194D02*
X0006600Y0008194D01*
X0006600Y0006600D02*
X0006600Y0268654D01*
X0390701Y0268654D01*
X0390701Y0006600D01*
X0006600Y0006600D01*
X0006600Y0009793D02*
X0270696Y0009793D01*
X0269098Y0011391D02*
X0006600Y0011391D01*
X0006600Y0012990D02*
X0267499Y0012990D01*
X0265901Y0014588D02*
X0006600Y0014588D01*
X0006600Y0016187D02*
X0264302Y0016187D01*
X0262704Y0017785D02*
X0006600Y0017785D01*
X0006600Y0019384D02*
X0261105Y0019384D01*
X0289131Y0022581D02*
X0334469Y0022581D01*
X0334600Y0024179D02*
X0289000Y0024179D01*
X0289000Y0025778D02*
X0334600Y0025778D01*
X0334600Y0027376D02*
X0289000Y0027376D01*
X0289000Y0028975D02*
X0334600Y0028975D01*
X0334600Y0030573D02*
X0289000Y0030573D01*
X0289000Y0032172D02*
X0334600Y0032172D01*
X0334600Y0033770D02*
X0289000Y0033770D01*
X0289000Y0035369D02*
X0334600Y0035369D01*
X0334600Y0036967D02*
X0289000Y0036967D01*
X0289000Y0038566D02*
X0334600Y0038566D01*
X0334600Y0040164D02*
X0289000Y0040164D01*
X0289000Y0041763D02*
X0334600Y0041763D01*
X0334600Y0043361D02*
X0289000Y0043361D01*
X0289000Y0044960D02*
X0334600Y0044960D01*
X0334600Y0046558D02*
X0289000Y0046558D01*
X0289000Y0048157D02*
X0294884Y0048157D01*
X0292649Y0049755D02*
X0290951Y0049755D01*
X0284600Y0048157D02*
X0113716Y0048157D01*
X0115951Y0049755D02*
X0282649Y0049755D01*
X0281787Y0051354D02*
X0116813Y0051354D01*
X0117100Y0052952D02*
X0281500Y0052952D01*
X0281500Y0054551D02*
X0117100Y0054551D01*
X0117100Y0056149D02*
X0281500Y0056149D01*
X0281500Y0057748D02*
X0117100Y0057748D01*
X0117100Y0059346D02*
X0281500Y0059346D01*
X0281500Y0060945D02*
X0117100Y0060945D01*
X0116690Y0062543D02*
X0281910Y0062543D01*
X0282947Y0064142D02*
X0115653Y0064142D01*
X0112998Y0065740D02*
X0285602Y0065740D01*
X0287998Y0065740D02*
X0295602Y0065740D01*
X0297998Y0065740D02*
X0305130Y0065740D01*
X0302664Y0064142D02*
X0300653Y0064142D01*
X0292947Y0064142D02*
X0290653Y0064142D01*
X0291690Y0062543D02*
X0291910Y0062543D01*
X0300951Y0049755D02*
X0302432Y0049755D01*
X0304387Y0048157D02*
X0298716Y0048157D01*
X0311168Y0049755D02*
X0312649Y0049755D01*
X0321690Y0062543D02*
X0321910Y0062543D01*
X0322947Y0064142D02*
X0320653Y0064142D01*
X0312947Y0064142D02*
X0310936Y0064142D01*
X0290729Y0020982D02*
X0332871Y0020982D01*
X0331272Y0019384D02*
X0292328Y0019384D01*
X0109884Y0048157D02*
X0103716Y0048157D01*
X0105951Y0049755D02*
X0107649Y0049755D01*
X0099884Y0048157D02*
X0094213Y0048157D01*
X0096168Y0049755D02*
X0097649Y0049755D01*
X0106690Y0062543D02*
X0106910Y0062543D01*
X0107947Y0064142D02*
X0105653Y0064142D01*
X0104600Y0065740D02*
X0110602Y0065740D01*
X0099000Y0078529D02*
X0006600Y0078529D01*
X0006600Y0080127D02*
X0099000Y0080127D01*
X0099000Y0081726D02*
X0006600Y0081726D01*
X0006600Y0083324D02*
X0099000Y0083324D01*
X0099000Y0084923D02*
X0006600Y0084923D01*
X0006600Y0086521D02*
X0099000Y0086521D01*
X0099000Y0088120D02*
X0006600Y0088120D01*
X0006600Y0089718D02*
X0099000Y0089718D01*
X0099000Y0091317D02*
X0035900Y0091317D01*
X0035900Y0092915D02*
X0099000Y0092915D01*
X0099000Y0100908D02*
X0035900Y0100908D01*
X0035857Y0102506D02*
X0099000Y0102506D01*
X0099000Y0104105D02*
X0024600Y0104105D01*
X0024600Y0105703D02*
X0099000Y0105703D01*
X0099000Y0107302D02*
X0024600Y0107302D01*
X0024600Y0108900D02*
X0099000Y0108900D01*
X0099000Y0110499D02*
X0024600Y0110499D01*
X0024600Y0112097D02*
X0099000Y0112097D01*
X0099000Y0113696D02*
X0024600Y0113696D01*
X0024600Y0115294D02*
X0099000Y0115294D01*
X0099000Y0116893D02*
X0024600Y0116893D01*
X0024600Y0118491D02*
X0099000Y0118491D01*
X0099000Y0120090D02*
X0024600Y0120090D01*
X0024600Y0121688D02*
X0099000Y0121688D01*
X0099000Y0123287D02*
X0024600Y0123287D01*
X0024600Y0124885D02*
X0099000Y0124885D01*
X0099000Y0126484D02*
X0024600Y0126484D01*
X0024600Y0128082D02*
X0099000Y0128082D01*
X0099000Y0129681D02*
X0024600Y0129681D01*
X0024600Y0131279D02*
X0099000Y0131279D01*
X0099000Y0132878D02*
X0024600Y0132878D01*
X0024600Y0134476D02*
X0099000Y0134476D01*
X0099000Y0136075D02*
X0024600Y0136075D01*
X0024600Y0137673D02*
X0099000Y0137673D01*
X0099000Y0139272D02*
X0024600Y0139272D01*
X0024830Y0140870D02*
X0099000Y0140870D01*
X0099000Y0142469D02*
X0026429Y0142469D01*
X0028027Y0144068D02*
X0099000Y0144068D01*
X0099000Y0145666D02*
X0029626Y0145666D01*
X0031224Y0147265D02*
X0099000Y0147265D01*
X0099000Y0148863D02*
X0032823Y0148863D01*
X0034421Y0150462D02*
X0099000Y0150462D01*
X0099000Y0152060D02*
X0036020Y0152060D01*
X0037618Y0153659D02*
X0099000Y0153659D01*
X0099000Y0155257D02*
X0039192Y0155257D01*
X0039600Y0156856D02*
X0099000Y0156856D01*
X0099000Y0158454D02*
X0039600Y0158454D01*
X0039600Y0160053D02*
X0099000Y0160053D01*
X0099000Y0161651D02*
X0039600Y0161651D01*
X0039600Y0163250D02*
X0099000Y0163250D01*
X0099000Y0164848D02*
X0039600Y0164848D01*
X0039600Y0166447D02*
X0099000Y0166447D01*
X0099000Y0168045D02*
X0039600Y0168045D01*
X0039600Y0169644D02*
X0099000Y0169644D01*
X0099000Y0171242D02*
X0039600Y0171242D01*
X0039600Y0172841D02*
X0099000Y0172841D01*
X0099000Y0174439D02*
X0039600Y0174439D01*
X0039600Y0176038D02*
X0099000Y0176038D01*
X0099000Y0177636D02*
X0039600Y0177636D01*
X0039600Y0179235D02*
X0099000Y0179235D01*
X0099000Y0180833D02*
X0039600Y0180833D01*
X0039600Y0182432D02*
X0099000Y0182432D01*
X0099000Y0184030D02*
X0039600Y0184030D01*
X0039600Y0185629D02*
X0099000Y0185629D01*
X0099000Y0187227D02*
X0039600Y0187227D01*
X0039600Y0188826D02*
X0099000Y0188826D01*
X0099000Y0190424D02*
X0039600Y0190424D01*
X0039600Y0192023D02*
X0099000Y0192023D01*
X0098783Y0193621D02*
X0094993Y0193621D01*
X0096505Y0195220D02*
X0097256Y0195220D01*
X0092100Y0193621D02*
X0091500Y0193621D01*
X0104817Y0193621D02*
X0108783Y0193621D01*
X0107256Y0195220D02*
X0106344Y0195220D01*
X0088128Y0209606D02*
X0085189Y0209606D01*
X0085165Y0211205D02*
X0198894Y0211205D01*
X0198889Y0212803D02*
X0086763Y0212803D01*
X0086905Y0208008D02*
X0086498Y0208008D01*
X0078411Y0209606D02*
X0075189Y0209606D01*
X0076498Y0208008D02*
X0077102Y0208008D01*
X0089866Y0225592D02*
X0176632Y0225592D01*
X0178230Y0227190D02*
X0091465Y0227190D01*
X0093063Y0228789D02*
X0179000Y0228789D01*
X0179000Y0230387D02*
X0094662Y0230387D01*
X0088341Y0231986D02*
X0072248Y0231986D01*
X0072400Y0232137D02*
X0072400Y0241463D01*
X0071463Y0242400D01*
X0062137Y0242400D01*
X0061200Y0241463D01*
X0061200Y0232137D01*
X0062137Y0231200D01*
X0071463Y0231200D01*
X0072400Y0232137D01*
X0072400Y0233584D02*
X0089939Y0233584D01*
X0091538Y0235183D02*
X0072400Y0235183D01*
X0072400Y0236781D02*
X0091515Y0236781D01*
X0091708Y0238380D02*
X0072400Y0238380D01*
X0072400Y0239978D02*
X0092374Y0239978D01*
X0094013Y0241577D02*
X0072286Y0241577D01*
X0061314Y0241577D02*
X0050216Y0241577D01*
X0050287Y0241547D02*
X0048229Y0242400D01*
X0046001Y0242400D01*
X0043943Y0241547D01*
X0042368Y0239972D01*
X0041515Y0237914D01*
X0041515Y0235686D01*
X0042368Y0233628D01*
X0043943Y0232053D01*
X0046001Y0231200D01*
X0048229Y0231200D01*
X0050287Y0232053D01*
X0051862Y0233628D01*
X0052715Y0235686D01*
X0052715Y0237914D01*
X0051862Y0239972D01*
X0050287Y0241547D01*
X0051856Y0239978D02*
X0061200Y0239978D01*
X0061200Y0238380D02*
X0052522Y0238380D01*
X0052715Y0236781D02*
X0061200Y0236781D01*
X0061200Y0235183D02*
X0052506Y0235183D01*
X0051819Y0233584D02*
X0061200Y0233584D01*
X0061352Y0231986D02*
X0050126Y0231986D01*
X0044104Y0231986D02*
X0006600Y0231986D01*
X0006600Y0233584D02*
X0042411Y0233584D01*
X0041723Y0235183D02*
X0006600Y0235183D01*
X0006600Y0236781D02*
X0041515Y0236781D01*
X0041708Y0238380D02*
X0006600Y0238380D01*
X0006600Y0239978D02*
X0042374Y0239978D01*
X0044013Y0241577D02*
X0006600Y0241577D01*
X0006600Y0243175D02*
X0179000Y0243175D01*
X0179000Y0241577D02*
X0122286Y0241577D01*
X0122400Y0241463D02*
X0121463Y0242400D01*
X0112137Y0242400D01*
X0111200Y0241463D01*
X0111200Y0239000D01*
X0110889Y0239000D01*
X0109600Y0237711D01*
X0109600Y0235889D01*
X0110889Y0234600D01*
X0111200Y0234600D01*
X0111200Y0232137D01*
X0112137Y0231200D01*
X0121463Y0231200D01*
X0122400Y0232137D01*
X0122400Y0241463D01*
X0122400Y0239978D02*
X0179000Y0239978D01*
X0179000Y0238380D02*
X0122400Y0238380D01*
X0122400Y0236781D02*
X0179000Y0236781D01*
X0179000Y0235183D02*
X0122400Y0235183D01*
X0122400Y0233584D02*
X0179000Y0233584D01*
X0179000Y0231986D02*
X0122248Y0231986D01*
X0111352Y0231986D02*
X0100126Y0231986D01*
X0101819Y0233584D02*
X0111200Y0233584D01*
X0110306Y0235183D02*
X0108294Y0235183D01*
X0109000Y0236781D02*
X0109600Y0236781D01*
X0110268Y0238380D02*
X0108332Y0238380D01*
X0111200Y0239978D02*
X0101856Y0239978D01*
X0100216Y0241577D02*
X0111314Y0241577D01*
X0086742Y0230387D02*
X0006600Y0230387D01*
X0006600Y0228789D02*
X0039829Y0228789D01*
X0038230Y0227190D02*
X0006600Y0227190D01*
X0006600Y0225592D02*
X0036632Y0225592D01*
X0035033Y0223993D02*
X0006600Y0223993D01*
X0006600Y0222395D02*
X0034016Y0222395D01*
X0034000Y0220796D02*
X0006600Y0220796D01*
X0006600Y0219198D02*
X0034000Y0219198D01*
X0034000Y0217599D02*
X0006600Y0217599D01*
X0006600Y0216001D02*
X0018505Y0216001D01*
X0018798Y0216293D02*
X0017307Y0214802D01*
X0016500Y0212854D01*
X0016500Y0210746D01*
X0017307Y0208798D01*
X0018798Y0207307D01*
X0019600Y0206975D01*
X0019600Y0185540D01*
X0017600Y0183540D01*
X0017600Y0180060D01*
X0020060Y0177600D01*
X0023540Y0177600D01*
X0026000Y0180060D01*
X0026000Y0183540D01*
X0024000Y0185540D01*
X0024000Y0206975D01*
X0024802Y0207307D01*
X0026293Y0208798D01*
X0027100Y0210746D01*
X0027100Y0212854D01*
X0026293Y0214802D01*
X0024802Y0216293D01*
X0022854Y0217100D01*
X0020746Y0217100D01*
X0018798Y0216293D01*
X0017141Y0214402D02*
X0006600Y0214402D01*
X0006600Y0212803D02*
X0016500Y0212803D01*
X0016500Y0211205D02*
X0006600Y0211205D01*
X0006600Y0209606D02*
X0016972Y0209606D01*
X0018097Y0208008D02*
X0006600Y0208008D01*
X0006600Y0206409D02*
X0019600Y0206409D01*
X0019600Y0204811D02*
X0006600Y0204811D01*
X0006600Y0203212D02*
X0019600Y0203212D01*
X0019600Y0201614D02*
X0006600Y0201614D01*
X0006600Y0200015D02*
X0019600Y0200015D01*
X0019600Y0198417D02*
X0006600Y0198417D01*
X0006600Y0196818D02*
X0019600Y0196818D01*
X0019600Y0195220D02*
X0006600Y0195220D01*
X0006600Y0193621D02*
X0019600Y0193621D01*
X0019600Y0192023D02*
X0006600Y0192023D01*
X0006600Y0190424D02*
X0019600Y0190424D01*
X0019600Y0188826D02*
X0006600Y0188826D01*
X0006600Y0187227D02*
X0019600Y0187227D01*
X0019600Y0185629D02*
X0006600Y0185629D01*
X0006600Y0184030D02*
X0018091Y0184030D01*
X0017600Y0182432D02*
X0006600Y0182432D01*
X0006600Y0180833D02*
X0017600Y0180833D01*
X0018426Y0179235D02*
X0006600Y0179235D01*
X0006600Y0177636D02*
X0020024Y0177636D01*
X0020604Y0176038D02*
X0006600Y0176038D01*
X0006600Y0174439D02*
X0018279Y0174439D01*
X0018444Y0174666D02*
X0018037Y0174106D01*
X0017722Y0173489D01*
X0017508Y0172830D01*
X0017400Y0172146D01*
X0017400Y0171800D01*
X0021800Y0171800D01*
X0021800Y0171800D01*
X0021800Y0176200D01*
X0022146Y0176200D01*
X0022830Y0176092D01*
X0023489Y0175878D01*
X0024106Y0175563D01*
X0024666Y0175156D01*
X0025156Y0174666D01*
X0025563Y0174106D01*
X0025878Y0173489D01*
X0026092Y0172830D01*
X0026200Y0172146D01*
X0026200Y0171800D01*
X0021800Y0171800D01*
X0021800Y0171800D01*
X0021800Y0171800D01*
X0021800Y0176200D01*
X0021454Y0176200D01*
X0020770Y0176092D01*
X0020111Y0175878D01*
X0019494Y0175563D01*
X0018934Y0175156D01*
X0018444Y0174666D01*
X0017512Y0172841D02*
X0006600Y0172841D01*
X0006600Y0171242D02*
X0017433Y0171242D01*
X0017400Y0171454D02*
X0017508Y0170770D01*
X0017722Y0170111D01*
X0018037Y0169494D01*
X0018444Y0168934D01*
X0018934Y0168444D01*
X0019494Y0168037D01*
X0020111Y0167722D01*
X0020770Y0167508D01*
X0021454Y0167400D01*
X0021800Y0167400D01*
X0022146Y0167400D01*
X0022830Y0167508D01*
X0023489Y0167722D01*
X0024106Y0168037D01*
X0024666Y0168444D01*
X0025156Y0168934D01*
X0025563Y0169494D01*
X0025878Y0170111D01*
X0026092Y0170770D01*
X0026200Y0171454D01*
X0026200Y0171800D01*
X0021800Y0171800D01*
X0021800Y0167400D01*
X0021800Y0171800D01*
X0021800Y0171800D01*
X0017400Y0171800D01*
X0017400Y0171454D01*
X0017960Y0169644D02*
X0006600Y0169644D01*
X0006600Y0168045D02*
X0019482Y0168045D01*
X0021800Y0168045D02*
X0021800Y0168045D01*
X0021800Y0169644D02*
X0021800Y0169644D01*
X0021800Y0171242D02*
X0021800Y0171242D01*
X0021800Y0172841D02*
X0021800Y0172841D01*
X0021800Y0174439D02*
X0021800Y0174439D01*
X0021800Y0176038D02*
X0021800Y0176038D01*
X0022996Y0176038D02*
X0034000Y0176038D01*
X0034000Y0177636D02*
X0023576Y0177636D01*
X0025174Y0179235D02*
X0034000Y0179235D01*
X0034000Y0180833D02*
X0026000Y0180833D01*
X0026000Y0182432D02*
X0034000Y0182432D01*
X0034000Y0184030D02*
X0025509Y0184030D01*
X0024000Y0185629D02*
X0034000Y0185629D01*
X0034000Y0187227D02*
X0024000Y0187227D01*
X0024000Y0188826D02*
X0034000Y0188826D01*
X0034000Y0190424D02*
X0024000Y0190424D01*
X0024000Y0192023D02*
X0034000Y0192023D01*
X0034000Y0193621D02*
X0024000Y0193621D01*
X0024000Y0195220D02*
X0034000Y0195220D01*
X0034000Y0196818D02*
X0024000Y0196818D01*
X0024000Y0198417D02*
X0034000Y0198417D01*
X0034000Y0200015D02*
X0024000Y0200015D01*
X0024000Y0201614D02*
X0034000Y0201614D01*
X0034000Y0203212D02*
X0024000Y0203212D01*
X0024000Y0204811D02*
X0034000Y0204811D01*
X0034000Y0206409D02*
X0024000Y0206409D01*
X0025503Y0208008D02*
X0034000Y0208008D01*
X0034000Y0209606D02*
X0026628Y0209606D01*
X0027100Y0211205D02*
X0034000Y0211205D01*
X0034000Y0212803D02*
X0027100Y0212803D01*
X0026459Y0214402D02*
X0034000Y0214402D01*
X0034000Y0216001D02*
X0025095Y0216001D01*
X0041354Y0222395D02*
X0173435Y0222395D01*
X0175033Y0223993D02*
X0042953Y0223993D01*
X0024802Y0247307D02*
X0022854Y0246500D01*
X0020746Y0246500D01*
X0018798Y0247307D01*
X0017307Y0248798D01*
X0016500Y0250746D01*
X0016500Y0252854D01*
X0017307Y0254802D01*
X0018798Y0256293D01*
X0020746Y0257100D01*
X0022854Y0257100D01*
X0024802Y0256293D01*
X0026293Y0254802D01*
X0027100Y0252854D01*
X0027100Y0250746D01*
X0026293Y0248798D01*
X0024802Y0247307D01*
X0025466Y0247971D02*
X0179000Y0247971D01*
X0179000Y0249569D02*
X0026613Y0249569D01*
X0027100Y0251168D02*
X0179000Y0251168D01*
X0179170Y0252766D02*
X0027100Y0252766D01*
X0026474Y0254365D02*
X0180405Y0254365D01*
X0182004Y0255963D02*
X0025132Y0255963D01*
X0018468Y0255963D02*
X0006600Y0255963D01*
X0006600Y0254365D02*
X0017126Y0254365D01*
X0016500Y0252766D02*
X0006600Y0252766D01*
X0006600Y0251168D02*
X0016500Y0251168D01*
X0016987Y0249569D02*
X0006600Y0249569D01*
X0006600Y0247971D02*
X0018134Y0247971D01*
X0006600Y0246372D02*
X0179000Y0246372D01*
X0179000Y0244774D02*
X0006600Y0244774D01*
X0006600Y0257562D02*
X0183602Y0257562D01*
X0185201Y0259160D02*
X0006600Y0259160D01*
X0006600Y0260759D02*
X0390701Y0260759D01*
X0390701Y0262357D02*
X0006600Y0262357D01*
X0006600Y0263956D02*
X0390701Y0263956D01*
X0390701Y0265554D02*
X0006600Y0265554D01*
X0006600Y0267153D02*
X0390701Y0267153D01*
X0390701Y0259160D02*
X0218399Y0259160D01*
X0219998Y0257562D02*
X0390701Y0257562D01*
X0390701Y0255963D02*
X0221596Y0255963D01*
X0223195Y0254365D02*
X0390701Y0254365D01*
X0390701Y0252766D02*
X0224430Y0252766D01*
X0224600Y0251168D02*
X0390701Y0251168D01*
X0390701Y0249569D02*
X0224600Y0249569D01*
X0224600Y0247971D02*
X0390701Y0247971D01*
X0390701Y0246372D02*
X0224600Y0246372D01*
X0224600Y0244774D02*
X0390701Y0244774D01*
X0390701Y0243175D02*
X0224600Y0243175D01*
X0227786Y0241577D02*
X0248513Y0241577D01*
X0246874Y0239978D02*
X0227900Y0239978D01*
X0227900Y0238380D02*
X0246208Y0238380D01*
X0246015Y0236781D02*
X0227900Y0236781D01*
X0227900Y0235183D02*
X0246223Y0235183D01*
X0246911Y0233584D02*
X0227900Y0233584D01*
X0227748Y0231986D02*
X0248604Y0231986D01*
X0254626Y0231986D02*
X0266852Y0231986D01*
X0266700Y0232137D02*
X0267637Y0231200D01*
X0276963Y0231200D01*
X0277900Y0232137D01*
X0277900Y0241463D01*
X0276963Y0242400D01*
X0267637Y0242400D01*
X0266700Y0241463D01*
X0266700Y0232137D01*
X0266700Y0233584D02*
X0256319Y0233584D01*
X0257006Y0235183D02*
X0266700Y0235183D01*
X0266700Y0236781D02*
X0257215Y0236781D01*
X0257022Y0238380D02*
X0266700Y0238380D01*
X0266700Y0239978D02*
X0256356Y0239978D01*
X0254716Y0241577D02*
X0266814Y0241577D01*
X0277786Y0241577D02*
X0390701Y0241577D01*
X0390701Y0239978D02*
X0277900Y0239978D01*
X0277900Y0238380D02*
X0390701Y0238380D01*
X0344976Y0236781D02*
X0328624Y0236781D01*
X0330913Y0235183D02*
X0333687Y0235183D01*
X0332217Y0233584D02*
X0331798Y0233584D01*
X0331896Y0228789D02*
X0331284Y0228789D01*
X0332915Y0227190D02*
X0329520Y0227190D01*
X0334600Y0225592D02*
X0318075Y0225592D01*
X0315525Y0225592D02*
X0254442Y0225592D01*
X0254438Y0227190D02*
X0303788Y0227190D01*
X0303917Y0227096D02*
X0304689Y0226703D01*
X0305512Y0226435D01*
X0306367Y0226300D01*
X0306600Y0226300D01*
X0306600Y0231600D01*
X0301300Y0231600D01*
X0301300Y0231367D01*
X0301435Y0230512D01*
X0301703Y0229689D01*
X0302096Y0228917D01*
X0302605Y0228217D01*
X0303217Y0227605D01*
X0303917Y0227096D01*
X0302190Y0228789D02*
X0254434Y0228789D01*
X0254430Y0230387D02*
X0301476Y0230387D01*
X0306600Y0230387D02*
X0307000Y0230387D01*
X0307000Y0228789D02*
X0306600Y0228789D01*
X0306600Y0227190D02*
X0307000Y0227190D01*
X0309812Y0227190D02*
X0312915Y0227190D01*
X0311896Y0228789D02*
X0311410Y0228789D01*
X0312003Y0233584D02*
X0312217Y0233584D01*
X0311141Y0235183D02*
X0313687Y0235183D01*
X0309139Y0236781D02*
X0324976Y0236781D01*
X0322687Y0235183D02*
X0319913Y0235183D01*
X0321383Y0233584D02*
X0321802Y0233584D01*
X0321704Y0228789D02*
X0322316Y0228789D01*
X0320685Y0227190D02*
X0324080Y0227190D01*
X0334600Y0223993D02*
X0254445Y0223993D01*
X0254449Y0222395D02*
X0334600Y0222395D01*
X0334600Y0220796D02*
X0254453Y0220796D01*
X0254457Y0219198D02*
X0334600Y0219198D01*
X0334600Y0217599D02*
X0254461Y0217599D01*
X0254465Y0216001D02*
X0334600Y0216001D01*
X0334600Y0214402D02*
X0254468Y0214402D01*
X0254472Y0212803D02*
X0334600Y0212803D01*
X0334600Y0211205D02*
X0254476Y0211205D01*
X0277748Y0231986D02*
X0306600Y0231986D01*
X0306600Y0233584D02*
X0307000Y0233584D01*
X0307000Y0235183D02*
X0306600Y0235183D01*
X0306600Y0236781D02*
X0307000Y0236781D01*
X0304461Y0236781D02*
X0277900Y0236781D01*
X0277900Y0235183D02*
X0302459Y0235183D01*
X0301597Y0233584D02*
X0277900Y0233584D01*
X0306500Y0200015D02*
X0307100Y0200015D01*
X0307100Y0198417D02*
X0306500Y0198417D01*
X0306500Y0196818D02*
X0307100Y0196818D01*
X0307100Y0195220D02*
X0306500Y0195220D01*
X0306500Y0193621D02*
X0307100Y0193621D01*
X0309993Y0193621D02*
X0313783Y0193621D01*
X0312256Y0195220D02*
X0311505Y0195220D01*
X0303607Y0193621D02*
X0299817Y0193621D01*
X0301344Y0195220D02*
X0302095Y0195220D01*
X0293783Y0193621D02*
X0289817Y0193621D01*
X0291344Y0195220D02*
X0292256Y0195220D01*
X0319817Y0193621D02*
X0323783Y0193621D01*
X0322256Y0195220D02*
X0321344Y0195220D01*
X0340685Y0227190D02*
X0344080Y0227190D01*
X0342316Y0228789D02*
X0341704Y0228789D01*
X0341802Y0233584D02*
X0341383Y0233584D01*
X0342687Y0235183D02*
X0339913Y0235183D01*
X0219000Y0244774D02*
X0184600Y0244774D01*
X0184600Y0246372D02*
X0219000Y0246372D01*
X0219000Y0247971D02*
X0184600Y0247971D01*
X0184600Y0249569D02*
X0219000Y0249569D01*
X0218472Y0251168D02*
X0185128Y0251168D01*
X0186726Y0252766D02*
X0216874Y0252766D01*
X0034000Y0174439D02*
X0025321Y0174439D01*
X0026088Y0172841D02*
X0034000Y0172841D01*
X0034000Y0171242D02*
X0026166Y0171242D01*
X0025640Y0169644D02*
X0034000Y0169644D01*
X0034000Y0168045D02*
X0024118Y0168045D01*
X0034000Y0166447D02*
X0006600Y0166447D01*
X0006600Y0164848D02*
X0034000Y0164848D01*
X0034000Y0163250D02*
X0006600Y0163250D01*
X0006600Y0161651D02*
X0034000Y0161651D01*
X0034000Y0160053D02*
X0006600Y0160053D01*
X0006600Y0158454D02*
X0034000Y0158454D01*
X0032896Y0156856D02*
X0006600Y0156856D01*
X0006600Y0155257D02*
X0031297Y0155257D01*
X0029699Y0153659D02*
X0006600Y0153659D01*
X0006600Y0152060D02*
X0028100Y0152060D01*
X0026502Y0150462D02*
X0006600Y0150462D01*
X0006600Y0148863D02*
X0024903Y0148863D01*
X0023305Y0147265D02*
X0006600Y0147265D01*
X0006600Y0145666D02*
X0021706Y0145666D01*
X0020108Y0144068D02*
X0006600Y0144068D01*
X0006600Y0142469D02*
X0019046Y0142469D01*
X0019000Y0140870D02*
X0006600Y0140870D01*
X0006600Y0139272D02*
X0019000Y0139272D01*
X0019000Y0137673D02*
X0006600Y0137673D01*
X0006600Y0136075D02*
X0019000Y0136075D01*
X0019000Y0134476D02*
X0006600Y0134476D01*
X0006600Y0132878D02*
X0019000Y0132878D01*
X0019000Y0131279D02*
X0006600Y0131279D01*
X0006600Y0129681D02*
X0019000Y0129681D01*
X0019000Y0128082D02*
X0006600Y0128082D01*
X0006600Y0126484D02*
X0019000Y0126484D01*
X0019000Y0124885D02*
X0006600Y0124885D01*
X0006600Y0123287D02*
X0019000Y0123287D01*
X0019000Y0121688D02*
X0006600Y0121688D01*
X0006600Y0120090D02*
X0019000Y0120090D01*
X0019000Y0118491D02*
X0006600Y0118491D01*
X0006600Y0116893D02*
X0019000Y0116893D01*
X0019000Y0115294D02*
X0006600Y0115294D01*
X0006600Y0113696D02*
X0019000Y0113696D01*
X0019000Y0112097D02*
X0006600Y0112097D01*
X0006600Y0110499D02*
X0019000Y0110499D01*
X0019000Y0108900D02*
X0006600Y0108900D01*
X0006600Y0107302D02*
X0019000Y0107302D01*
X0019000Y0105703D02*
X0006600Y0105703D01*
X0006600Y0104105D02*
X0019000Y0104105D01*
X0017743Y0102506D02*
X0006600Y0102506D01*
X0006600Y0100908D02*
X0017700Y0100908D01*
X0017700Y0099309D02*
X0006600Y0099309D01*
X0006600Y0097711D02*
X0017700Y0097711D01*
X0017700Y0096112D02*
X0006600Y0096112D01*
X0006600Y0094514D02*
X0017700Y0094514D01*
X0017700Y0092915D02*
X0006600Y0092915D01*
X0006600Y0091317D02*
X0017700Y0091317D01*
X0025900Y0091317D02*
X0027700Y0091317D01*
X0027700Y0092915D02*
X0025900Y0092915D01*
X0025900Y0094514D02*
X0027700Y0094514D01*
X0027700Y0096112D02*
X0025900Y0096112D01*
X0025900Y0097711D02*
X0027700Y0097711D01*
X0027700Y0099309D02*
X0025900Y0099309D01*
X0025900Y0100908D02*
X0027700Y0100908D01*
X0027743Y0102506D02*
X0025857Y0102506D01*
X0006600Y0064142D02*
X0067947Y0064142D01*
X0066910Y0062543D02*
X0006600Y0062543D01*
X0006600Y0060945D02*
X0066500Y0060945D01*
X0066500Y0059346D02*
X0006600Y0059346D01*
X0006600Y0057748D02*
X0066500Y0057748D01*
X0066500Y0056149D02*
X0006600Y0056149D01*
X0006600Y0054551D02*
X0066500Y0054551D01*
X0066500Y0052952D02*
X0006600Y0052952D01*
X0006600Y0051354D02*
X0066787Y0051354D01*
X0067649Y0049755D02*
X0006600Y0049755D01*
X0006600Y0048157D02*
X0069600Y0048157D01*
X0069600Y0046558D02*
X0006600Y0046558D01*
X0006600Y0044960D02*
X0069600Y0044960D01*
X0069600Y0043361D02*
X0006600Y0043361D01*
X0006600Y0041763D02*
X0069600Y0041763D01*
X0069600Y0040164D02*
X0006600Y0040164D01*
X0006600Y0038566D02*
X0069600Y0038566D01*
X0069600Y0036967D02*
X0006600Y0036967D01*
X0006600Y0035369D02*
X0069600Y0035369D01*
X0069600Y0033770D02*
X0006600Y0033770D01*
X0006600Y0032172D02*
X0069600Y0032172D01*
X0069916Y0030573D02*
X0006600Y0030573D01*
X0006600Y0028975D02*
X0071514Y0028975D01*
X0073113Y0027376D02*
X0006600Y0027376D01*
X0006600Y0025778D02*
X0074711Y0025778D01*
X0076310Y0024179D02*
X0006600Y0024179D01*
X0006600Y0022581D02*
X0077908Y0022581D01*
X0079507Y0020982D02*
X0006600Y0020982D01*
X0075653Y0064142D02*
X0077947Y0064142D01*
X0076910Y0062543D02*
X0076690Y0062543D01*
X0085653Y0064142D02*
X0087664Y0064142D01*
X0077649Y0049755D02*
X0075951Y0049755D01*
D21*
X0071800Y0056800D02*
X0071800Y0031800D01*
X0081800Y0021800D01*
X0261800Y0021800D01*
X0271800Y0011800D01*
X0341800Y0011800D01*
X0356800Y0026800D01*
X0356800Y0230800D01*
X0336800Y0230800D02*
X0336800Y0021800D01*
X0331800Y0016800D01*
X0291800Y0016800D01*
X0286800Y0021800D01*
X0286800Y0056800D01*
X0116800Y0236800D02*
X0111800Y0236800D01*
X0106800Y0236800D02*
X0097115Y0236800D01*
X0021800Y0211800D02*
X0021800Y0181800D01*
M02*
