G75*
%MOIN*%
%OFA0B0*%
%FSLAX25Y25*%
%IPPOS*%
%LPD*%
%AMOC8*
5,1,8,0,0,1.08239X$1,22.5*
%
%ADD10C,0.00000*%
%ADD11C,0.06000*%
%ADD12OC8,0.06000*%
%ADD13C,0.08200*%
%ADD14C,0.08200*%
%ADD15R,0.08800X0.08800*%
%ADD16C,0.08800*%
%ADD17R,0.05800X0.10800*%
%ADD18C,0.06706*%
D10*
X0001800Y0001800D02*
X0001800Y0273454D01*
X0395501Y0273454D01*
X0395501Y0001800D01*
X0001800Y0001800D01*
D11*
X0021800Y0171800D03*
D12*
X0021800Y0181800D03*
D13*
X0071800Y0198100D02*
X0071800Y0205500D01*
X0081800Y0205500D02*
X0081800Y0198100D01*
X0091800Y0198100D02*
X0091800Y0205500D01*
X0101800Y0205500D02*
X0101800Y0198100D01*
X0111800Y0198100D02*
X0111800Y0205500D01*
X0286800Y0205500D02*
X0286800Y0198100D01*
X0296800Y0198100D02*
X0296800Y0205500D01*
X0306800Y0205500D02*
X0306800Y0198100D01*
X0316800Y0198100D02*
X0316800Y0205500D01*
X0326800Y0205500D02*
X0326800Y0198100D01*
X0326800Y0060500D02*
X0326800Y0053100D01*
X0316800Y0053100D02*
X0316800Y0060500D01*
X0306800Y0060500D02*
X0306800Y0053100D01*
X0296800Y0053100D02*
X0296800Y0060500D01*
X0286800Y0060500D02*
X0286800Y0053100D01*
X0111800Y0053100D02*
X0111800Y0060500D01*
X0101800Y0060500D02*
X0101800Y0053100D01*
X0091800Y0053100D02*
X0091800Y0060500D01*
X0081800Y0060500D02*
X0081800Y0053100D01*
X0071800Y0053100D02*
X0071800Y0060500D01*
D14*
X0021800Y0211800D03*
X0021800Y0251800D03*
X0306800Y0231800D03*
X0316800Y0230800D03*
X0326800Y0231800D03*
X0336800Y0230800D03*
X0346800Y0231800D03*
X0356800Y0230800D03*
D15*
X0272300Y0236800D03*
X0222300Y0236800D03*
X0116800Y0236800D03*
X0066800Y0236800D03*
D16*
X0047115Y0236800D03*
X0097115Y0236800D03*
X0201615Y0236800D03*
X0251615Y0236800D03*
D17*
X0031800Y0096800D03*
X0021800Y0096800D03*
D18*
X0201800Y0086800D03*
X0251985Y0081615D03*
M02*
